<svg width="109" height="77" viewBox="0 0 109 77" fill="none" xmlns="http://www.w3.org/2000/svg">
<path d="M68.3704 2.6438L65.4163 3.45674C65.4163 3.45674 64.0727 3.59458 65.2126 7.41982C66.3525 11.2451 67.1831 18.5935 71.0126 19.2683C74.8422 19.9432 77.8946 11.2813 77.8946 11.2813L68.3704 2.6438Z" fill="#090814"/>
<path d="M55.3519 31.1527L66.888 29.0956L66.2933 33.0309L55.7717 33.8996C55.3606 34.4757 54.6618 34.9116 53.8217 35.0394C52.3517 35.263 51.0096 34.4604 50.8241 33.2468C50.6386 32.0332 51.6799 30.8681 53.1499 30.6445C53.9901 30.5167 54.7873 30.725 55.3519 31.1527Z" fill="#FFB6B6"/>
<path d="M71.9158 17.1282H70.7662L70.0765 18.2188L64.1719 29.7664L66.8835 33.7011L70.7662 29.7553L71.9158 17.1282Z" fill="#327AAD"/>
<path opacity="0.2" d="M71.9158 17.1282H70.7662L70.0765 18.2188L64.1719 29.7664L66.8835 33.7011L70.7662 29.7553L71.9158 17.1282Z" fill="black"/>
<path d="M77.2981 4.59364C75.9127 1.58662 72.346 0.269345 69.3317 1.65143C66.3174 3.03351 64.997 6.59158 66.3824 9.59859C67.5059 12.0373 70.0642 13.3643 72.5989 13.0417L73.5516 14.4891L70.6397 25.6922L76.8589 19.514L80.1775 12.5763C80.1775 12.5763 78.3352 11.6326 76.9451 10.2535C77.9686 8.6031 78.1714 6.48914 77.2981 4.59364Z" fill="#FFB6B6"/>
<path d="M95.2514 27.5081L96.1711 50.1008H76.168V27.2849L95.2514 27.5081Z" fill="#D6D6E3"/>
<path d="M18.6004 35.2068H15.752V76.6125H18.6004V35.2068Z" fill="#D6D6E3"/>
<path d="M30.5125 35.2068H27.6641V76.6125H30.5125V35.2068Z" fill="#D6D6E3"/>
<path d="M64.1766 35.2068H61.3281V76.6125H64.1766V35.2068Z" fill="#D6D6E3"/>
<path d="M72.7076 38.9727L53.6844 44.332C53.6844 44.332 47.8103 45.5575 50.9435 52.6528C54.0767 59.748 54.3741 69.2819 54.3741 69.2819L57.4781 69.3966C57.4781 69.3966 60.7656 58.9096 56.9033 50.4165C56.9033 50.4165 75.9053 50.6736 78.4565 48.7526C81.0078 46.8316 81.7185 44.4363 79.5505 40.7257C77.3825 37.0151 72.7076 38.9727 72.7076 38.9727Z" fill="#090814"/>
<path d="M78.8137 13.9755L72.261 24.0103L73.2956 15.3517L70.3066 22.4047L74.7885 40.1233L79.3885 39.5499L78.8137 13.9755Z" fill="#090814"/>
<path d="M80.9409 43.9079L72.9277 26.569L79.2165 13.5167L81.8591 14.8577C81.8591 14.8577 85.9301 16.2068 83.9873 21.3152C82.0445 26.4236 83.0514 33.9116 84.6196 35.0758C86.1878 36.2401 88.7007 39.9513 88.7007 39.9513C88.7007 39.9513 88.1237 43.3091 80.9409 43.9079Z" fill="#327AAD"/>
<path d="M75.5362 40.4673L70.0756 40.582L71.9149 33.5239L69.1559 29.8018C69.1559 29.8018 66.6944 27.1398 68.1538 24.3276L69.6157 21.6019L71.1047 17.1542L73.4094 15.0076L71.57 24.0102L75.5362 40.4673Z" fill="#327AAD"/>
<path d="M81.5123 38.7144L62.489 44.0737C62.489 44.0737 56.615 45.2992 59.7482 52.3945C62.8814 59.4897 63.1788 69.0236 63.1788 69.0236L66.2827 69.1383C66.2827 69.1383 69.5703 58.6513 65.7079 50.1582C65.7079 50.1582 84.71 50.4153 87.2612 48.4943C89.8125 46.5733 90.5232 44.178 88.3552 40.4674C86.1872 36.7568 81.5123 38.7144 81.5123 38.7144Z" fill="#090814"/>
<path d="M51.9576 32.5499L68.5278 32.7837L69.2176 33.7011L36.2715 33.7405L51.9576 32.5499Z" fill="#090814"/>
<path d="M76.0887 35.5784H73.2402V75.8387H76.0887V35.5784Z" fill="#D6D6E3"/>
<path d="M74.0164 36.4984H15.752V38.565H74.0164V36.4984Z" fill="#D6D6E3"/>
<path d="M70.0753 49.3553C70.0753 49.3553 67.3535 53.2761 78.5824 53.5413C89.8114 53.8064 96.3438 52.3944 96.3438 52.3944C96.3438 52.3944 98.1292 50.6559 96.1714 49.5187C94.2136 48.3815 90.9866 47.5466 86.5147 48.6099C82.0428 49.6732 70.0753 49.3553 70.0753 49.3553Z" fill="#D6D6E3"/>
<path d="M78.1602 52.7731V54.0104L80.7109 54C80.7109 54 81.6997 54.8805 84.3321 54.8601C86.9646 54.8398 86.8038 54.1147 86.8038 54.1147L92.4956 54.0104V52.2224L78.1602 52.7731Z" fill="#D6D6E3"/>
<path d="M82.6074 53.2408V73.8266H86.343V53.1688L82.6074 53.2408Z" fill="#D6D6E3"/>
<path d="M72.7207 72.9585V74.328H94.8506V72.8372L72.7207 72.9585Z" fill="#D6D6E3"/>
<path d="M90.5885 76.2822C91.1606 76.2822 91.6244 75.8196 91.6244 75.2489C91.6244 74.6782 91.1606 74.2156 90.5885 74.2156C90.0165 74.2156 89.5527 74.6782 89.5527 75.2489C89.5527 75.8196 90.0165 76.2822 90.5885 76.2822Z" fill="#D6D6E3"/>
<path d="M94.7331 76.2822C95.3051 76.2822 95.7689 75.8196 95.7689 75.2489C95.7689 74.6782 95.3051 74.2156 94.7331 74.2156C94.161 74.2156 93.6973 74.6782 93.6973 75.2489C93.6973 75.8196 94.161 76.2822 94.7331 76.2822Z" fill="#D6D6E3"/>
<path d="M72.9811 76.2822C73.5532 76.2822 74.0169 75.8196 74.0169 75.2489C74.0169 74.6782 73.5532 74.2156 72.9811 74.2156C72.4091 74.2156 71.9453 74.6782 71.9453 75.2489C71.9453 75.8196 72.4091 76.2822 72.9811 76.2822Z" fill="#D6D6E3"/>
<path d="M77.1237 76.2822C77.6958 76.2822 78.1595 75.8196 78.1595 75.2489C78.1595 74.6782 77.6958 74.2156 77.1237 74.2156C76.5516 74.2156 76.0879 74.6782 76.0879 75.2489C76.0879 75.8196 76.5516 76.2822 77.1237 76.2822Z" fill="#D6D6E3"/>
<path d="M79.9728 33.6569H10.3145V36.4985H79.9728V33.6569Z" fill="#D6D6E3"/>
<path d="M36.3367 33.8468C35.9953 33.8468 35.6922 33.6299 35.5824 33.307L31.5333 21.3962C31.4504 21.1525 31.4883 20.8921 31.6372 20.682C31.7861 20.4718 32.0194 20.3493 32.2774 20.3458L48.0196 20.1343H48.0198C48.3574 20.1343 48.6562 20.3388 48.7739 20.643L53.3414 32.4483C53.4363 32.6938 53.4064 32.9597 53.2594 33.178C53.1125 33.3962 52.877 33.5244 52.6134 33.5296L36.3367 33.8468Z" fill="#327AAD"/>
<path d="M61.2464 32.7005L72.7825 30.6433L72.1878 34.5786L61.6662 35.4473C61.2551 36.0234 60.5563 36.4593 59.7162 36.5871C58.2462 36.8107 56.9042 36.0082 56.7187 34.7945C56.5332 33.5809 57.5745 32.4158 59.0445 32.1922C59.8846 32.0644 60.6819 32.2728 61.2464 32.7005Z" fill="#FFB6B6"/>
<path d="M81.5819 23.2303L75.6233 34.0106L72.1511 34.3728L70.5117 31.0152L72.9217 29.0626L77.1467 18.1936" fill="#327AAD"/>
<path d="M63.0482 66.1958L63.0779 71.0251L60.6149 75.1232C60.6149 75.1232 58.1002 75.2739 58.3859 76.6741L64.7911 76.6475L66.5608 73.8647L66.4721 76.6477L68.3036 76.5338L68.3795 71.865C68.3795 71.865 67.9505 69.9034 66.8295 69.7604L65.7857 65.6683L63.0482 66.1958Z" fill="#090814"/>
<path d="M54.0482 66.1958L54.0779 71.0251L51.6149 75.1232C51.6149 75.1232 49.1002 75.2739 49.3859 76.6741L55.7911 76.6475L57.5608 73.8647L57.4721 76.6477L59.3036 76.5338L59.3795 71.865C59.3795 71.865 58.9505 69.9034 57.8295 69.7604L56.7857 65.6683L54.0482 66.1958Z" fill="#090814"/>
<path d="M107.978 76.9999H0.583901C0.235936 76.9846 -0.0211588 76.8105 0.00137446 76.6102C-0.0211578 76.412 0.235937 76.2378 0.583901 76.2225H107.978C108.284 76.2442 108.526 76.3837 108.564 76.56C108.613 76.7756 108.352 76.9715 107.978 76.9999Z" fill="#CCCCCC"/>
<path d="M65.418 3.45683C65.418 3.45683 72.0463 -5.96563 79.9844 6.30212C79.9844 6.30212 83.6823 7.42635 86.6055 11.2814C89.5286 15.1364 87.619 26.8455 81.9198 27.7434C81.9198 27.7434 84.3489 17.7421 81.0878 15.7525C77.8267 13.763 72.8875 7.89342 72.8875 7.89342L72.803 7.928L66.4366 4.98109L65.418 3.45683Z" fill="#090814"/>
<path d="M40.4746 9.71916C39.8734 10.7466 37.2018 13.4414 36.2119 14.0931C32.4254 16.5857 33.6683 12.9799 32.4364 11.1164C32.3123 10.9287 31.9103 10.5204 31.6447 10.5696C31.052 10.6795 25.3613 17.48 23.2412 19.1959C23.0557 19.3461 22.5395 19.25 22.4495 19.4997C23.365 22.8102 25.0808 27.4438 25.8597 30.556C25.9315 30.843 25.7926 31.6647 25.9815 32.2569L29.8179 32.4392C30.9426 34.8283 29.0182 34.2157 26.5904 34.2616C24.3998 34.3031 22.1887 34.121 20.0137 34.1401C19.5598 31.602 21.091 32.6605 24.3982 32.2569L20.7445 18.7707C22.3191 17.4947 29.2451 10.9257 29.8788 10.0229C30.0262 9.81288 29.9681 9.36037 30.1832 9.11167C32.2548 10.4336 30.3876 9.15628 30.2441 8.80793C30.2252 8.76206 30.1802 7.83436 30.6095 8.32194C29.5188 4.13297 34.8465 7.54233 37.4907 6.80322C41.2019 7.7942 41.7207 7.58917 40.4746 9.71916Z" fill="#090814"/>
</svg>
