<svg width="55" height="51" viewBox="0 0 55 51" fill="none" xmlns="http://www.w3.org/2000/svg">
<path opacity="0.4" fill-rule="evenodd" clip-rule="evenodd" d="M0 6C0 4.4087 0.643847 2.88258 1.7899 1.75736C2.93596 0.632141 4.49034 0 6.11111 0H23.0144C23.9102 0.000329761 24.7949 0.193982 25.6059 0.567246C26.417 0.940511 27.1345 1.48426 27.7078 2.16L33.5133 9H0V6ZM0 15V45C0 46.5913 0.643847 48.1174 1.7899 49.2426C2.93596 50.3679 4.49034 51 6.11111 51H48.8889C50.5097 51 52.064 50.3679 53.2101 49.2426C54.3562 48.1174 55 46.5913 55 45V15H0Z" fill="#327AAD"/>
</svg>
