<svg width="108" height="87" viewBox="0 0 108 87" fill="none" xmlns="http://www.w3.org/2000/svg">
<path d="M107.029 4.68378H0.638893C0.480897 4.68361 0.329422 4.62095 0.217701 4.50955C0.105981 4.39815 0.0431412 4.24711 0.0429688 4.08956V0.594217C0.0431412 0.436674 0.105981 0.285632 0.217701 0.174232C0.329422 0.0628321 0.480897 0.000171966 0.638893 0H107.029C107.187 0.000171966 107.338 0.0628321 107.45 0.174232C107.562 0.285632 107.625 0.436674 107.625 0.594217V4.08956C107.625 4.24711 107.562 4.39815 107.45 4.50955C107.338 4.62095 107.187 4.68361 107.029 4.68378Z" fill="#E4E4E4"/>
<path d="M3.50231 3.01504C3.96958 3.01504 4.34838 2.63733 4.34838 2.1714C4.34838 1.70547 3.96958 1.32776 3.50231 1.32776C3.03505 1.32776 2.65625 1.70547 2.65625 2.1714C2.65625 2.63733 3.03505 3.01504 3.50231 3.01504Z" fill="white"/>
<path d="M6.71325 3.01504C7.18052 3.01504 7.55932 2.63733 7.55932 2.1714C7.55932 1.70547 7.18052 1.32776 6.71325 1.32776C6.24598 1.32776 5.86719 1.70547 5.86719 2.1714C5.86719 2.63733 6.24598 3.01504 6.71325 3.01504Z" fill="white"/>
<path d="M9.92419 3.01504C10.3915 3.01504 10.7703 2.63733 10.7703 2.1714C10.7703 1.70547 10.3915 1.32776 9.92419 1.32776C9.45692 1.32776 9.07812 1.70547 9.07812 2.1714C9.07812 2.63733 9.45692 3.01504 9.92419 3.01504Z" fill="white"/>
<path d="M106.224 87H58.9057C58.5227 86.9996 58.1554 86.8476 57.8846 86.5776C57.6137 86.3075 57.4614 85.9413 57.4609 85.5594V52.2064C57.4614 51.8244 57.6137 51.4583 57.8846 51.1882C58.1554 50.9181 58.5227 50.7662 58.9057 50.7657H106.224C106.607 50.7662 106.974 50.9181 107.245 51.1882C107.516 51.4583 107.668 51.8244 107.669 52.2064V85.5594C107.668 85.9413 107.516 86.3075 107.245 86.5776C106.974 86.8476 106.607 86.9996 106.224 87Z" fill="#E6E6E6"/>
<path d="M104.253 52.7299H60.8751C60.4919 52.7303 60.1245 52.8824 59.8536 53.1525C59.5826 53.4227 59.4302 53.789 59.4297 54.1711V83.5945C59.4302 83.9766 59.5826 84.3429 59.8536 84.6131C60.1245 84.8833 60.4919 85.0353 60.8751 85.0358H104.253C104.636 85.0353 105.003 84.8832 105.274 84.613C105.545 84.3428 105.697 83.9765 105.697 83.5945V54.1711C105.697 53.7891 105.545 53.4229 105.274 53.1526C105.003 52.8824 104.636 52.7304 104.253 52.7299Z" fill="white"/>
<path d="M86.5176 66.7174C87.2375 63.5908 85.2791 60.4744 82.1436 59.7566C79.0081 59.0388 75.8826 60.9915 75.1628 64.118C74.4429 67.2446 76.4012 70.3611 79.5368 71.0789C82.6723 71.7966 85.7977 69.844 86.5176 66.7174Z" fill="#9E616A"/>
<path d="M97.5939 79.5663C97.3796 78.5571 96.8948 77.6246 96.1911 76.8684C95.4874 76.1122 94.5911 75.5604 93.5977 75.272L93.5934 75.2697C93.4038 75.1766 93.203 75.1079 92.9961 75.0653L85.9956 73.6371L84.5931 72.1365L78.6252 72.5163L78.0022 74.2425L71.1469 77.2805L71.2605 77.201C70.9668 77.3184 70.6812 77.4549 70.4054 77.6097L70.3707 77.6251C70.1731 77.7135 69.9895 77.8302 69.8258 77.9717C68.0825 79.1781 66.9306 81.1146 66.888 83.2739L66.707 85.0358H98.7581L97.5939 79.5663Z" fill="#327AAD"/>
<path d="M87.2152 62.3045C86.7383 60.8193 85.3431 59.5651 83.7796 59.605C83.9014 59.2345 83.6934 58.8191 83.382 58.5833C83.0706 58.3475 82.6768 58.2531 82.294 58.1736C81.5027 58.0092 80.6781 57.8836 79.8914 58.0689C79.1047 58.2541 78.3592 58.8169 78.1821 59.6033C77.4656 58.9336 76.1407 59.1189 75.6366 59.9593C75.3772 60.3918 75.3404 60.9728 75.6208 61.3921C75.8994 61.8086 76.427 61.9962 76.9286 62.0198C77.4302 62.0434 77.9269 61.9311 78.4263 61.8788C79.6192 61.7539 80.8791 61.9937 81.8434 62.7048C82.8077 63.416 83.424 64.6355 83.2525 65.8192C83.638 65.5736 84.1933 65.7442 84.4625 66.113C84.7317 66.4818 84.753 66.9857 84.6279 67.4245C84.5029 67.8632 84.249 68.2526 83.9987 68.6344C83.5378 69.3375 83.0769 70.0406 82.616 70.7437L82.8048 70.8689C83.5001 71.1613 84.2523 70.6147 84.7585 70.0567C85.612 69.1151 86.2996 68.0363 86.7921 66.8659C87.3967 65.4276 87.6921 63.7898 87.2152 62.3045Z" fill="#2F2E41"/>
<path d="M62.0871 61.1728H1.83953C1.35183 61.1722 0.884256 60.9788 0.539396 60.6349C0.194536 60.291 0.000552042 59.8248 0 59.3385V16.8722C0.000550291 16.3859 0.194533 15.9197 0.539394 15.5758C0.884254 15.2319 1.35183 15.0385 1.83953 15.038H62.0871C62.5748 15.0385 63.0423 15.2319 63.3872 15.5758C63.732 15.9197 63.926 16.3859 63.9266 16.8722V59.3385C63.926 59.8248 63.732 60.291 63.3872 60.6349C63.0423 60.9788 62.5748 61.1722 62.0871 61.1728Z" fill="#E6E6E6"/>
<path d="M59.5785 17.5387H4.34818C3.86028 17.5393 3.39254 17.7329 3.04754 18.0769C2.70254 18.4209 2.50844 18.8873 2.50781 19.3738V56.8368C2.50844 57.3233 2.70253 57.7897 3.04753 58.1337C3.39253 58.4777 3.86027 58.6713 4.34818 58.6719H59.5785C60.0663 58.6712 60.5339 58.4776 60.8786 58.1336C61.2234 57.7895 61.4172 57.3232 61.4175 56.8368V19.3738C61.4172 18.8874 61.2234 18.4211 60.8786 18.077C60.5339 17.733 60.0663 17.5394 59.5785 17.5387Z" fill="white"/>
<path d="M39.9099 35.1199L39.8081 35.303C40.7148 33.0748 39.8903 30.3292 38.2728 28.6491C36.6554 26.969 34.4068 26.2009 32.1927 25.8962C30.5491 25.67 28.843 25.6765 27.2802 26.2768C25.017 27.1462 23.2878 29.1587 21.8442 31.2522C21.1838 32.2098 20.5345 33.3015 20.6003 34.4983C20.6614 35.609 21.3226 36.5515 21.864 37.4939C22.4055 38.4362 22.8577 39.6053 22.4691 40.6338C22.2375 41.2467 21.7481 41.6881 21.351 42.1894C20.9538 42.6908 20.6272 43.3685 20.819 43.9975C20.9742 44.5064 21.441 44.8411 21.9212 44.9527C22.4012 45.0642 22.8993 44.9913 23.3855 44.9181L36.0058 43.0168C36.8634 42.8876 37.6769 42.5535 38.377 42.043C39.0771 41.5326 39.643 40.8609 40.0265 40.0852C40.41 39.3095 40.5997 38.4528 40.5794 37.5883C40.5591 36.7237 40.3294 35.8768 39.9099 35.1199Z" fill="#2F2E41"/>
<path d="M30.5238 42.9291C33.9316 42.9291 36.6942 40.1744 36.6942 36.7764C36.6942 33.3784 33.9316 30.6238 30.5238 30.6238C27.1161 30.6238 24.3535 33.3784 24.3535 36.7764C24.3535 40.1744 27.1161 42.9291 30.5238 42.9291Z" fill="#FFB9B9"/>
<path d="M45.9142 50.7045C45.5148 49.832 44.885 49.0843 44.0921 48.5414C43.2993 47.9985 42.3732 47.6809 41.4132 47.6225L39.6935 47.5187L39.6977 47.5367L35.3261 44.9146C35.4337 45.0373 28.2154 45.2944 28.2154 45.2944L25.5372 47.5983L24.414 47.6661C23.454 47.7244 22.5279 48.042 21.735 48.585C20.9422 49.1279 20.3124 49.8756 19.9131 50.7481L16.2656 58.7154H23.5354L23.7041 57.9916C23.8875 58.2145 24.0654 58.4413 24.2378 58.6718H49.5615L45.9142 50.7045Z" fill="#327AAD"/>
<path d="M36.3763 31.066C36.217 30.2258 35.3576 29.8415 34.6213 29.6553C32.4856 29.112 30.2639 28.9903 28.0813 29.2972C26.4902 29.5235 24.8614 30.0224 23.707 31.2607C22.8066 32.2265 22.2618 33.6101 22.2194 35.0387C22.1947 35.8712 22.344 36.7376 22.7594 37.4388C23.1749 38.1399 23.883 38.6485 24.614 38.6306L24.688 38.8874C27.7859 38.457 30.6636 36.5349 32.476 33.6858C32.1359 34.8969 31.4589 35.9873 30.5235 36.8309C32.615 35.9965 34.4331 34.5993 35.7751 32.7952C36.1416 32.3101 36.4974 31.7052 36.3763 31.066Z" fill="#2F2E41"/>
<path d="M103.883 1.59084H100.185C100.149 1.59095 100.113 1.58397 100.08 1.57029C100.047 1.55662 100.016 1.53652 99.9907 1.51114C99.9652 1.48577 99.9449 1.45562 99.9311 1.42242C99.9173 1.38923 99.9102 1.35364 99.9102 1.3177C99.9102 1.28176 99.9173 1.24617 99.9311 1.21298C99.9449 1.17978 99.9652 1.14963 99.9907 1.12426C100.016 1.09888 100.047 1.07878 100.08 1.0651C100.113 1.05143 100.149 1.04445 100.185 1.04456H103.883C103.955 1.04478 104.025 1.07366 104.076 1.12486C104.127 1.17606 104.156 1.24541 104.156 1.3177C104.156 1.39 104.127 1.45934 104.076 1.51054C104.025 1.56174 103.955 1.59062 103.883 1.59084Z" fill="white"/>
<path d="M103.883 2.61513H100.185C100.149 2.61525 100.113 2.60826 100.08 2.59459C100.047 2.58091 100.016 2.56081 99.9907 2.53543C99.9652 2.51006 99.9449 2.47991 99.9311 2.44671C99.9173 2.41352 99.9102 2.37793 99.9102 2.34199C99.9102 2.30605 99.9173 2.27046 99.9311 2.23727C99.9449 2.20407 99.9652 2.17392 99.9907 2.14855C100.016 2.12318 100.047 2.10307 100.08 2.0894C100.113 2.07572 100.149 2.06874 100.185 2.06885H103.883C103.955 2.06907 104.025 2.09795 104.076 2.14915C104.127 2.20035 104.156 2.2697 104.156 2.34199C104.156 2.41429 104.127 2.48363 104.076 2.53483C104.025 2.58603 103.955 2.61491 103.883 2.61513Z" fill="white"/>
<path d="M103.883 3.63943H100.185C100.149 3.63954 100.113 3.63255 100.08 3.61888C100.047 3.6052 100.016 3.5851 99.9907 3.55972C99.9652 3.53435 99.9449 3.5042 99.9311 3.47101C99.9173 3.43781 99.9102 3.40222 99.9102 3.36628C99.9102 3.33034 99.9173 3.29475 99.9311 3.26156C99.9449 3.22837 99.9652 3.19822 99.9907 3.17284C100.016 3.14747 100.047 3.12737 100.08 3.11369C100.113 3.10001 100.149 3.09303 100.185 3.09314H103.883C103.955 3.09337 104.025 3.12224 104.076 3.17344C104.127 3.22464 104.156 3.29399 104.156 3.36628C104.156 3.43858 104.127 3.50792 104.076 3.55912C104.025 3.61032 103.955 3.6392 103.883 3.63943Z" fill="white"/>
</svg>
