<svg width="31" height="31" viewBox="0 0 31 31" fill="none" xmlns="http://www.w3.org/2000/svg">
<circle cx="15.5" cy="15.5" r="15.5" fill="#7964A0"/>
<path d="M15.0567 18.9227C14.659 18.9227 14.3427 18.8066 14.1077 18.5742C13.8908 18.3253 13.7823 17.9934 13.7823 17.5785C13.7823 17.0973 13.8456 16.6492 13.9721 16.2344C14.0987 15.8029 14.2975 15.3714 14.5686 14.9399C14.8579 14.5085 15.2375 14.0687 15.7074 13.6207C16.0328 13.2722 16.2949 12.9735 16.4937 12.7245C16.7107 12.459 16.8553 12.2101 16.9276 11.9778C17.018 11.7288 17.0631 11.4799 17.0631 11.231C17.0631 10.7663 16.8733 10.4012 16.4937 10.1357C16.1322 9.87021 15.608 9.73745 14.9211 9.73745C14.2704 9.73745 13.6648 9.81213 13.1045 9.96148C12.5622 10.1108 12.0289 10.3266 11.5047 10.6087C11.0348 10.841 10.61 10.9323 10.2304 10.8825C9.86884 10.8161 9.57963 10.6668 9.36271 10.4344C9.1458 10.1855 9.01927 9.8951 8.98311 9.56321C8.94696 9.23131 9.0283 8.90771 9.22714 8.59241C9.42598 8.26051 9.76039 7.9701 10.2304 7.72117C10.9715 7.3229 11.794 7.02419 12.6978 6.82505C13.6016 6.62591 14.4421 6.52634 15.2194 6.52634C16.4124 6.52634 17.4608 6.70889 18.3646 7.07397C19.2684 7.43906 19.9644 7.93691 20.4524 8.56751C20.9585 9.19812 21.2116 9.93659 21.2116 10.7829C21.2116 11.2974 21.1303 11.7786 20.9676 12.2267C20.8049 12.6747 20.5428 13.1228 20.1813 13.5709C19.8198 14.0023 19.3227 14.4587 18.69 14.9399C18.1296 15.3714 17.6868 15.7614 17.3614 16.1099C17.036 16.4418 16.801 16.7654 16.6564 17.0807C16.5118 17.3794 16.4124 17.703 16.3582 18.0515C16.3039 18.3004 16.1684 18.5078 15.9515 18.6738C15.7526 18.8397 15.4544 18.9227 15.0567 18.9227ZM15.0025 24.4737C14.2794 24.4737 13.701 24.2746 13.2672 23.8763C12.8514 23.478 12.6435 22.9636 12.6435 22.333C12.6435 21.719 12.8514 21.2211 13.2672 20.8394C13.701 20.4412 14.2794 20.242 15.0025 20.242C15.7255 20.242 16.2859 20.4412 16.6835 20.8394C17.0993 21.2211 17.3072 21.719 17.3072 22.333C17.3072 22.9636 17.0993 23.478 16.6835 23.8763C16.2859 24.2746 15.7255 24.4737 15.0025 24.4737Z" fill="white"/>
</svg>
