<svg xmlns="http://www.w3.org/2000/svg" viewBox="0 0 48 48" width="48" height="48">
  <!-- Geometric elephant icon matching navbar logo style -->
  <!-- Main head shape -->
  <path d="M24 8 C 16 8, 10 12, 10 20 C 10 24, 12 28, 15 30 C 13 32, 12 35, 12 38 C 12 42, 15 44, 19 44 C 20 44, 21 44, 22 43 C 23 44, 25 44, 26 43 C 27 44, 28 44, 29 44 C 33 44, 36 42, 36 38 C 36 35, 35 32, 33 30 C 36 28, 38 24, 38 20 C 38 12, 32 8, 24 8 Z" fill="#327AAD"/>
  
  <!-- Left ear -->
  <ellipse cx="15" cy="19" rx="5" ry="6" fill="#4A9BC7"/>
  
  <!-- Right ear -->
  <ellipse cx="33" cy="19" rx="5" ry="6" fill="#4A9BC7"/>
  
  <!-- Trunk curve -->
  <path d="M22 30 Q 24 36, 24 40 Q 24 36, 26 30" stroke="#2A6A9D" stroke-width="2.5" fill="none" stroke-linecap="round"/>
  
  <!-- Left eye -->
  <circle cx="20" cy="22" r="2" fill="white"/>
  
  <!-- Right eye -->
  <circle cx="28" cy="22" r="2" fill="white"/>
</svg>
