<svg width="50" height="50" viewBox="0 0 50 50" fill="none" xmlns="http://www.w3.org/2000/svg">
<path d="M0 5C0 2.23858 2.23858 0 5 0H45C47.7614 0 50 2.23858 50 5V45C50 47.7614 47.7614 50 45 50H5C2.23858 50 0 47.7614 0 45V5Z" fill="#262626"/>
<path d="M14 23.4438C14 18.8348 14 16.5297 15.4324 15.0985C16.8649 13.6672 19.1688 13.666 23.7778 13.666H26.2222C30.8312 13.666 33.1363 13.666 34.5676 15.0985C35.9988 16.5309 36 18.8348 36 23.4438V25.8882C36 30.4972 36 32.8023 34.5676 34.2336C33.1351 35.6648 30.8312 35.666 26.2222 35.666H23.7778C19.1688 35.666 16.8637 35.666 15.4324 34.2336C14.0012 32.8011 14 30.4972 14 25.8882V23.4438Z" fill="#262626" stroke="white" stroke-width="2"/>
<path d="M30.5 20.9994C31.5125 20.9994 32.3334 20.1786 32.3334 19.1661C32.3334 18.1536 31.5125 17.3328 30.5 17.3328C29.4875 17.3328 28.6667 18.1536 28.6667 19.1661C28.6667 20.1786 29.4875 20.9994 30.5 20.9994Z" fill="#262626"/>
<path d="M25 28.3326C27.025 28.3326 28.6666 26.691 28.6666 24.6659C28.6666 22.6409 27.025 20.9993 25 20.9993C22.9749 20.9993 21.3333 22.6409 21.3333 24.6659C21.3333 26.691 22.9749 28.3326 25 28.3326Z" fill="#262626" stroke="white" stroke-width="2"/>
</svg>
