<svg width="50" height="50" viewBox="0 0 50 50" fill="none" xmlns="http://www.w3.org/2000/svg">
<path d="M0 5C0 2.23858 2.23858 0 5 0H45C47.7614 0 50 2.23858 50 5V45C50 47.7614 47.7614 50 45 50H5C2.23858 50 0 47.7614 0 45V5Z" fill="#1DA1F2"/>
<path d="M28.3564 15.4111C30.1154 14.6353 32.2686 14.9805 33.6436 16.2607C33.7845 16.3919 33.9556 16.5046 34.1719 16.5479C34.3308 16.5796 34.48 16.5671 34.6133 16.5371L34.7412 16.502C35.3528 16.3099 35.9584 16.0978 36.5752 15.8506C36.1844 16.3762 35.6542 16.8182 35.0312 17.291L33.6191 18.3633L35.3838 18.1865C35.9006 18.1348 36.3737 18.0387 36.8232 17.9268C36.4408 18.293 36.0429 18.6395 35.6201 18.9551L35.6191 18.9561C35.4827 19.0581 35.3599 19.1866 35.2773 19.3574C35.1952 19.5274 35.1711 19.7013 35.1729 19.8643V19.8652C35.2199 23.5364 34.0147 26.7648 31.4805 29.5098C29.0031 32.1926 25.8947 33.7605 22.1729 34.1748C19.4839 34.4748 16.9392 34.1022 14.5371 33.0732C16.6873 32.9068 18.6429 32.1199 20.4658 30.7773L21.4521 30.0508L20.2393 29.8799C19.5845 29.7873 19.0706 29.7034 18.5889 29.5273C17.4275 29.103 16.5987 28.3733 16.0527 27.3506C16.5731 27.3679 17.1336 27.3416 17.7432 27.1572L19.4727 26.6348L17.7207 26.1943C16.243 25.8229 15.1489 25.1797 14.4727 24.0117C14.2821 23.6831 14.1179 23.251 14.0156 22.8145C13.9801 22.6627 13.9558 22.5153 13.9375 22.377C14.4548 22.5617 14.9971 22.6905 15.582 22.7412L16.4805 22.8184L16.0713 22.0156C15.9767 21.8302 15.8519 21.6985 15.749 21.6025C15.6998 21.5567 15.648 21.5124 15.6113 21.4805C15.5709 21.4452 15.5425 21.4188 15.5186 21.3945H15.5176C14.615 20.4827 14.0171 19.4983 13.917 18.2979C13.859 17.6057 13.9992 16.9516 14.293 16.3086C14.786 16.8291 15.3144 17.3176 15.8867 17.7646C18.0486 19.4537 20.5083 20.5158 23.2207 21.0322V21.0332C23.747 21.1342 24.2732 21.2015 24.7881 21.2627C24.8738 21.2731 24.9815 21.2799 25.0918 21.2598C25.2115 21.2379 25.3652 21.1782 25.4795 21.0312C25.5867 20.8933 25.6079 20.7441 25.6113 20.6533C25.6131 20.6079 25.6104 20.5633 25.6064 20.5225L25.5918 20.4141C25.2355 18.2841 26.3182 16.31 28.3564 15.4111Z" fill="white" stroke="white"/>
<mask id="path-3-inside-1_493_13942" fill="white">
<path d="M38.1365 17.0296L38.2372 17.0032L37.2305 17.0244L38.1365 17.0296Z"/>
</mask>
<path d="M38.1365 17.0296L38.2372 17.0032L37.2305 17.0244L38.1365 17.0296Z" fill="white"/>
<path d="M38.1365 17.0296L38.1307 18.0296L38.2627 18.0304L38.3904 17.9968L38.1365 17.0296ZM38.2372 17.0032L38.4911 17.9704L38.2161 16.0034L38.2372 17.0032ZM37.2305 17.0244L37.2094 16.0246L37.2247 18.0243L37.2305 17.0244ZM38.1365 17.0296L38.3904 17.9968L38.4911 17.9704L38.2372 17.0032L37.9833 16.0359L37.8826 16.0624L38.1365 17.0296ZM38.2372 17.0032L38.2161 16.0034L37.2094 16.0246L37.2305 17.0244L37.2515 18.0241L38.2582 18.003L38.2372 17.0032ZM37.2305 17.0244L37.2247 18.0243L38.1307 18.0296L38.1365 17.0296L38.1423 16.0296L37.2363 16.0244L37.2305 17.0244Z" fill="white" mask="url(#path-3-inside-1_493_13942)"/>
</svg>
