<svg width="307" height="50" viewBox="0 0 307 50" fill="none" xmlns="http://www.w3.org/2000/svg">
<path d="M0 5C0 2.23858 2.23858 0 5 0H45C47.7614 0 50 2.23858 50 5V45C50 47.7614 47.7614 50 45 50H5C2.23858 50 0 47.7614 0 45V5Z" fill="#1DA1F2"/>
<path d="M28.3564 15.4111C30.1154 14.6353 32.2686 14.9805 33.6436 16.2607C33.7845 16.3919 33.9556 16.5046 34.1719 16.5479C34.3308 16.5796 34.48 16.5671 34.6133 16.5371L34.7412 16.502C35.3528 16.3099 35.9584 16.0978 36.5752 15.8506C36.1844 16.3762 35.6542 16.8182 35.0312 17.291L33.6191 18.3633L35.3838 18.1865C35.9006 18.1348 36.3737 18.0387 36.8232 17.9268C36.4408 18.293 36.0429 18.6395 35.6201 18.9551L35.6191 18.9561C35.4827 19.0581 35.3599 19.1866 35.2773 19.3574C35.1952 19.5274 35.1711 19.7013 35.1729 19.8643V19.8652C35.2199 23.5364 34.0147 26.7648 31.4805 29.5098C29.0031 32.1926 25.8947 33.7605 22.1729 34.1748C19.4839 34.4748 16.9392 34.1022 14.5371 33.0732C16.6873 32.9068 18.6429 32.1199 20.4658 30.7773L21.4521 30.0508L20.2393 29.8799C19.5845 29.7873 19.0706 29.7034 18.5889 29.5273C17.4275 29.103 16.5987 28.3733 16.0527 27.3506C16.5731 27.3679 17.1336 27.3416 17.7432 27.1572L19.4727 26.6348L17.7207 26.1943C16.243 25.8229 15.1489 25.1797 14.4727 24.0117C14.2821 23.6831 14.1179 23.251 14.0156 22.8145C13.9801 22.6627 13.9558 22.5153 13.9375 22.377C14.4548 22.5617 14.9971 22.6905 15.582 22.7412L16.4805 22.8184L16.0713 22.0156C15.9767 21.8302 15.8519 21.6985 15.749 21.6025C15.6998 21.5567 15.648 21.5124 15.6113 21.4805C15.5709 21.4452 15.5425 21.4188 15.5186 21.3945H15.5176C14.615 20.4827 14.0171 19.4983 13.917 18.2979C13.859 17.6057 13.9992 16.9516 14.293 16.3086C14.786 16.8291 15.3144 17.3176 15.8867 17.7646C18.0486 19.4537 20.5083 20.5158 23.2207 21.0322V21.0332C23.747 21.1342 24.2732 21.2015 24.7881 21.2627C24.8738 21.2731 24.9815 21.2799 25.0918 21.2598C25.2115 21.2379 25.3652 21.1782 25.4795 21.0312C25.5867 20.8933 25.6079 20.7441 25.6113 20.6533C25.6131 20.6079 25.6104 20.5633 25.6064 20.5225L25.5918 20.4141C25.2355 18.2841 26.3182 16.31 28.3564 15.4111Z" fill="white" stroke="white"/>
<mask id="path-3-inside-1_2_858" fill="white">
<path d="M38.1365 17.0296L38.2372 17.0032L37.2305 17.0244L38.1365 17.0296Z"/>
</mask>
<path d="M38.1365 17.0296L38.2372 17.0032L37.2305 17.0244L38.1365 17.0296Z" fill="white"/>
<path d="M38.1365 17.0296L38.1307 18.0296L38.2627 18.0304L38.3904 17.9968L38.1365 17.0296ZM38.2372 17.0032L38.4911 17.9704L38.2161 16.0034L38.2372 17.0032ZM37.2305 17.0244L37.2094 16.0246L37.2247 18.0243L37.2305 17.0244ZM38.1365 17.0296L38.3904 17.9968L38.4911 17.9704L38.2372 17.0032L37.9833 16.0359L37.8826 16.0624L38.1365 17.0296ZM38.2372 17.0032L38.2161 16.0034L37.2094 16.0246L37.2305 17.0244L37.2515 18.0241L38.2582 18.003L38.2372 17.0032ZM37.2305 17.0244L37.2247 18.0243L38.1307 18.0296L38.1365 17.0296L38.1423 16.0296L37.2363 16.0244L37.2305 17.0244Z" fill="white" mask="url(#path-3-inside-1_2_858)"/>
<path d="M61 5C61 2.23858 63.2386 0 66 0H106C108.761 0 111 2.23858 111 5V45C111 47.7614 108.761 50 106 50H66C63.2386 50 61 47.7614 61 45V5Z" fill="#CD201F"/>
<path d="M83 29.666L90.785 25.166L83 20.666V29.666ZM100.34 17.921C100.535 18.626 100.67 19.571 100.76 20.771C100.865 21.971 100.91 23.006 100.91 23.906L101 25.166C101 28.451 100.76 30.866 100.34 32.411C99.965 33.761 99.095 34.631 97.745 35.006C97.04 35.201 95.75 35.336 93.77 35.426C91.82 35.531 90.035 35.576 88.385 35.576L86 35.666C79.715 35.666 75.8 35.426 74.255 35.006C72.905 34.631 72.035 33.761 71.66 32.411C71.465 31.706 71.33 30.761 71.24 29.561C71.135 28.361 71.09 27.326 71.09 26.426L71 25.166C71 21.881 71.24 19.466 71.66 17.921C72.035 16.571 72.905 15.701 74.255 15.326C74.96 15.131 76.25 14.996 78.23 14.906C80.18 14.801 81.965 14.756 83.615 14.756L86 14.666C92.285 14.666 96.2 14.906 97.745 15.326C99.095 15.701 99.965 16.571 100.34 17.921Z" fill="white"/>
<path d="M122 5C122 2.23858 124.239 0 127 0H167C169.761 0 172 2.23858 172 5V45C172 47.7614 169.761 50 167 50H127C124.239 50 122 47.7614 122 45V5Z" fill="#262626"/>
<path d="M136 23.4438C136 18.8348 136 16.5297 137.432 15.0985C138.865 13.6672 141.169 13.666 145.778 13.666H148.222C152.831 13.666 155.136 13.666 156.568 15.0985C157.999 16.5309 158 18.8348 158 23.4438V25.8882C158 30.4972 158 32.8023 156.568 34.2336C155.135 35.6648 152.831 35.666 148.222 35.666H145.778C141.169 35.666 138.864 35.666 137.432 34.2336C136.001 32.8011 136 30.4972 136 25.8882V23.4438Z" fill="#262626" stroke="white" stroke-width="2"/>
<path d="M152.5 20.9994C153.513 20.9994 154.333 20.1786 154.333 19.1661C154.333 18.1536 153.513 17.3328 152.5 17.3328C151.487 17.3328 150.667 18.1536 150.667 19.1661C150.667 20.1786 151.487 20.9994 152.5 20.9994Z" fill="#262626"/>
<path d="M147 28.3326C149.025 28.3326 150.667 26.691 150.667 24.6659C150.667 22.6409 149.025 20.9993 147 20.9993C144.975 20.9993 143.333 22.6409 143.333 24.6659C143.333 26.691 144.975 28.3326 147 28.3326Z" fill="#262626" stroke="white" stroke-width="2"/>
<path d="M183 5C183 2.23858 185.239 0 188 0H228C230.761 0 233 2.23858 233 5V45C233 47.7614 230.761 50 228 50H188C185.239 50 183 47.7614 183 45V5Z" fill="#69727D"/>
<path d="M214.247 15.896C213.245 14.7253 212.692 13.2221 212.693 11.666H208.16V30.266C208.126 31.2728 207.711 32.2266 207.002 32.9263C206.293 33.6259 205.346 34.0166 204.361 34.016C202.278 34.016 200.547 32.276 200.547 30.116C200.547 27.536 202.982 25.601 205.49 26.396V21.656C200.43 20.966 196 24.986 196 30.116C196 35.111 200.048 38.666 204.346 38.666C208.952 38.666 212.693 34.841 212.693 30.116V20.681C214.531 22.0308 216.737 22.755 219 22.751V18.116C219 18.116 216.242 18.251 214.247 15.896Z" fill="white"/>
</svg>
