<svg width="50" height="50" viewBox="0 0 50 50" fill="none" xmlns="http://www.w3.org/2000/svg">
<path d="M0 5C0 2.23858 2.23858 0 5 0H45C47.7614 0 50 2.23858 50 5V45C50 47.7614 47.7614 50 45 50H5C2.23858 50 0 47.7614 0 45V5Z" fill="#CD201F"/>
<path d="M22 29.666L29.785 25.166L22 20.666V29.666ZM39.34 17.921C39.535 18.626 39.67 19.571 39.76 20.771C39.865 21.971 39.91 23.006 39.91 23.906L40 25.166C40 28.451 39.76 30.866 39.34 32.411C38.965 33.761 38.095 34.631 36.745 35.006C36.04 35.201 34.75 35.336 32.77 35.426C30.82 35.531 29.035 35.576 27.385 35.576L25 35.666C18.715 35.666 14.8 35.426 13.255 35.006C11.905 34.631 11.035 33.761 10.66 32.411C10.465 31.706 10.33 30.761 10.24 29.561C10.135 28.361 10.09 27.326 10.09 26.426L10 25.166C10 21.881 10.24 19.466 10.66 17.921C11.035 16.571 11.905 15.701 13.255 15.326C13.96 15.131 15.25 14.996 17.23 14.906C19.18 14.801 20.965 14.756 22.615 14.756L25 14.666C31.285 14.666 35.2 14.906 36.745 15.326C38.095 15.701 38.965 16.571 39.34 17.921Z" fill="white"/>
</svg>
