<svg width="50" height="50" viewBox="0 0 50 50" fill="none" xmlns="http://www.w3.org/2000/svg">
<path d="M0 5C0 2.23858 2.23858 0 5 0H45C47.7614 0 50 2.23858 50 5V45C50 47.7614 47.7614 50 45 50H5C2.23858 50 0 47.7614 0 45V5Z" fill="#69727D"/>
<path d="M31.2474 15.896C30.245 14.7253 29.6924 13.2221 29.6926 11.666H25.1601V30.266C25.1258 31.2728 24.7105 32.2266 24.0017 32.9263C23.2929 33.6259 22.3461 34.0166 21.361 34.016C19.2781 34.016 17.5472 32.276 17.5472 30.116C17.5472 27.536 19.9821 25.601 22.4904 26.396V21.656C17.4298 20.966 13 24.986 13 30.116C13 35.111 17.0485 38.666 21.3463 38.666C25.9522 38.666 29.6926 34.841 29.6926 30.116V20.681C31.5305 22.0308 33.7372 22.755 36 22.751V18.116C36 18.116 33.2423 18.251 31.2474 15.896Z" fill="white"/>
</svg>
