<svg width="163" height="130" viewBox="0 0 163 130" fill="none" xmlns="http://www.w3.org/2000/svg">
<rect width="163" height="130" fill="white"/>
<g clip-path="url(#clip0_134_13457)">
<path d="M55.133 95.9803C55.133 103.296 48.754 109.148 41.0665 109.148C33.2154 109.148 27 103.296 27 95.9803C27 88.665 33.379 82.6502 41.0665 82.6502C48.9176 82.6502 55.133 88.665 55.133 95.9803Z" fill="#33C1C2"/>
<path d="M43.1928 92.8916V87.202H45.3192C45.6463 87.202 45.9734 86.8768 45.9734 86.5517C45.9734 86.2266 45.6463 85.9015 45.3192 85.9015H36.4867C36.1596 85.9015 35.8325 86.2266 35.8325 86.5517C35.8325 86.8768 36.1596 87.202 36.4867 87.202H38.613V92.8916C35.8325 93.867 33.8697 96.3054 33.8697 99.2315C33.8697 102.97 36.9774 105.897 40.9029 105.897C44.8285 105.897 47.9362 102.97 47.9362 99.2315C47.9362 96.1429 45.9734 93.7044 43.1928 92.8916Z" fill="#CAE8E3"/>
<path d="M42.5386 93.867L42.375 89.3153H39.4309V93.867C36.9774 94.5172 34.8511 96.7931 34.8511 99.2315C34.8511 102.32 37.6317 104.921 40.9029 104.921C44.3378 104.921 46.9548 102.32 46.9548 99.2315C46.9548 96.7931 44.8285 94.5172 42.5386 93.867Z" fill="#7964A0"/>
<path d="M39.9215 95.9803C39.9215 96.3054 39.5944 96.6305 39.2673 96.6305C38.9402 96.6305 38.613 96.3054 38.613 95.9803C38.613 95.6552 38.9402 95.33 39.2673 95.33C39.5944 95.33 39.9215 95.6552 39.9215 95.9803Z" fill="white"/>
<path d="M41.3936 95.0049C41.3936 95.1675 41.2301 95.3301 41.0665 95.3301C40.9029 95.3301 40.7394 95.1675 40.7394 95.0049C40.7394 94.8424 40.9029 94.6798 41.0665 94.6798C41.2301 94.6798 41.3936 94.8424 41.3936 95.0049Z" fill="white"/>
<path d="M42.5386 97.931C42.5386 98.4187 42.2115 98.7438 41.7208 98.7438C41.2301 98.7438 40.903 98.4187 40.903 97.931C40.903 97.4433 41.2301 97.1182 41.7208 97.1182C42.2115 97.1182 42.5386 97.4433 42.5386 97.931Z" fill="white"/>
<path d="M38.613 100.044C38.613 100.532 38.1223 101.02 37.4681 101.02C36.8138 101.02 36.3231 100.532 36.3231 100.044C36.3231 99.5566 36.8138 99.069 37.4681 99.069C38.1223 99.069 38.613 99.5566 38.613 100.044Z" fill="white"/>
<path d="M44.992 99.8818C44.992 100.207 44.8284 100.369 44.5013 100.369C44.1742 100.369 44.0106 100.207 44.0106 99.8818C44.0106 99.5566 44.1742 99.3941 44.5013 99.3941C44.6649 99.3941 44.992 99.7192 44.992 99.8818Z" fill="white"/>
<path d="M42.8657 101.507C42.8657 101.67 42.7022 101.995 42.375 101.995C42.0479 101.995 41.8843 101.833 41.8843 101.507C41.8843 101.345 42.0479 101.02 42.375 101.02C42.7022 101.182 42.8657 101.345 42.8657 101.507Z" fill="white"/>
<path d="M45.1556 96.3054C45.1556 96.6305 44.992 96.7931 44.6649 96.7931C44.3378 96.7931 44.1742 96.6305 44.1742 96.3054C44.1742 95.9803 44.3378 95.8177 44.6649 95.8177C44.992 95.9803 45.1556 96.1429 45.1556 96.3054Z" fill="white"/>
<path d="M41.3936 92.5665C41.3936 92.7291 41.2301 92.8916 41.0665 92.8916C40.9029 92.8916 40.7394 92.7291 40.7394 92.5665C40.7394 92.4039 40.9029 92.2414 41.0665 92.2414C41.2301 92.0788 41.3936 92.2414 41.3936 92.5665Z" fill="white"/>
<path d="M40.5758 93.7044C40.5758 93.867 40.4123 94.0296 40.2487 94.0296C40.0851 94.0296 39.9216 93.867 39.9216 93.7044C39.9216 93.5419 40.0851 93.3793 40.2487 93.3793C40.4123 93.3793 40.5758 93.5419 40.5758 93.7044Z" fill="white"/>
<path d="M114.67 56.6404H57.75V94.5172H114.67V56.6404Z" fill="#10787B"/>
<path d="M84.9016 113.537V111.261C88.0093 111.261 91.1171 110.936 94.0612 110.286L94.5519 112.562C91.4442 113.212 88.1729 113.537 84.9016 113.537ZM75.2514 112.562C72.1436 111.911 69.0359 110.936 66.0918 109.635L67.0732 107.522C69.8538 108.823 72.7979 109.635 75.7421 110.286L75.2514 112.562ZM103.875 109.635L102.894 107.522C105.674 106.222 108.291 104.759 110.745 102.97L112.217 104.759C109.6 106.709 106.819 108.335 103.875 109.635ZM57.75 104.921C55.133 102.97 52.8431 100.857 50.7168 98.5813L52.516 97.1182C54.4788 99.3941 56.7686 101.345 59.2221 103.133L57.75 104.921ZM119.25 98.4187L117.451 96.9557C119.414 94.6798 121.049 92.2414 122.521 89.6404L124.648 90.6158C123.012 93.5419 121.213 96.1429 119.25 98.4187ZM45.3192 90.7783C43.8471 88.0148 42.7022 85.0887 42.0479 82.1626L44.3378 81.6749C44.9921 84.4384 46.137 87.202 47.4455 89.803L45.3192 90.7783ZM127.755 82.1626L125.465 81.6749C126.12 78.9113 126.447 75.9852 126.447 73.0591V72.8965H128.9V73.0591C128.9 76.1478 128.573 79.2365 127.755 82.1626ZM43.3564 73.0591H40.903V72.8965C40.903 69.8079 41.2301 66.8818 42.0479 63.7931L44.3378 64.2808C43.6835 67.3695 43.3564 70.133 43.3564 73.0591ZM125.465 64.2808C124.811 61.5172 123.666 58.7537 122.358 56.1527L124.484 55.1773C125.956 57.9409 127.101 60.867 127.919 63.7931L125.465 64.2808ZM47.4455 56.3153L45.3192 55.3399C46.7913 52.5764 48.5905 49.9754 50.5532 47.6995L52.3524 49.1626C50.5532 51.4384 48.754 53.8768 47.4455 56.3153ZM117.124 49C115.161 46.7241 112.871 44.7734 110.418 42.9852L111.89 41.197C114.507 42.9852 116.797 45.2611 118.923 47.5369L117.124 49ZM59.0585 43.1478L57.5865 41.3596C60.2035 39.4089 62.9841 37.9458 65.9282 36.6453L66.9096 38.7586C64.129 39.734 61.512 41.3596 59.0585 43.1478ZM102.73 38.4335C99.9495 37.2956 97.0053 36.3202 94.0612 35.67L94.5519 33.3941C97.6596 34.0443 100.767 35.0197 103.875 36.3202L102.73 38.4335ZM75.5785 35.8325L75.0878 33.5567C78.1955 32.9064 81.4668 32.5813 84.7381 32.5813V34.8571C81.6303 34.8571 78.5226 35.1823 75.5785 35.8325Z" fill="#D34A07"/>
<path d="M71.1622 41.0345C71.1622 50.9507 62.8205 59.0788 52.516 59.0788C42.2114 59.0788 33.8697 50.9507 33.8697 41.0345C33.8697 31.1182 42.2114 22.9902 52.516 22.9902C62.8205 23.1527 71.1622 31.1182 71.1622 41.0345Z" fill="#7964A0"/>
<path d="M133.807 35.3448C133.807 46.0739 124.975 54.6897 114.016 54.6897C103.057 54.6897 94.2247 46.0739 94.2247 35.3448C94.2247 24.6158 103.057 16 114.016 16C124.811 16 133.807 24.6158 133.807 35.3448Z" fill="#DDEEFB"/>
<path d="M111.399 89.3153C111.399 90.1281 110.418 90.9409 109.273 90.9409H63.1476C62.0027 90.9409 61.0213 90.2906 61.0213 89.3153V60.867C61.0213 60.0542 62.0027 59.2414 63.1476 59.2414H109.436C110.581 59.2414 111.563 59.8916 111.563 60.867V89.3153H111.399Z" fill="#33C1C2"/>
<path d="M109.436 91.1035H63.1476C61.8391 91.1035 60.8577 90.2906 60.8577 89.3153V60.867C60.8577 59.8916 61.8391 59.0788 63.1476 59.0788H109.436C110.745 59.0788 111.726 59.8916 111.726 60.867V89.3153C111.726 90.2906 110.581 91.1035 109.436 91.1035ZM63.1476 59.4039C62.1662 59.4039 61.1849 60.0542 61.1849 60.867V89.3153C61.1849 90.1281 62.0027 90.7783 63.1476 90.7783H109.436C110.418 90.7783 111.399 90.1281 111.399 89.3153V60.867C111.399 60.0542 110.581 59.4039 109.436 59.4039H63.1476Z" fill="#074751"/>
<path d="M88.3365 92.5665C88.3365 93.2167 87.1915 93.7044 85.883 93.7044C84.5745 93.7044 83.4296 93.2167 83.4296 92.5665C83.4296 91.9163 84.5745 91.4286 85.883 91.4286C87.1915 91.4286 88.3365 91.9163 88.3365 92.5665Z" fill="#074751"/>
<path d="M85.7194 58.4286C85.7194 58.5911 85.5559 58.7537 85.3923 58.7537C85.2288 58.7537 85.0652 58.5911 85.0652 58.4286C85.0652 58.266 85.2288 58.1034 85.3923 58.1034C85.5559 58.1034 85.7194 58.266 85.7194 58.4286Z" fill="#074751"/>
<path d="M87.3551 58.4286C87.3551 58.5911 87.1915 58.7537 87.0279 58.7537C86.8644 58.7537 86.7008 58.5911 86.7008 58.4286C86.7008 58.266 86.8644 58.1034 87.0279 58.1034C87.1915 58.1034 87.3551 58.266 87.3551 58.4286Z" fill="#074751"/>
<path d="M88.9907 58.4286C88.9907 58.5911 88.8271 58.7537 88.6636 58.7537C88.5 58.7537 88.3364 58.5911 88.3364 58.4286C88.3364 58.266 88.5 58.1034 88.6636 58.1034C88.8271 58.1034 88.9907 58.266 88.9907 58.4286Z" fill="#074751"/>
<path d="M111.399 89.3153C111.399 90.1281 110.418 90.9409 109.273 90.9409H63.1476C62.0027 90.9409 61.0213 90.2906 61.0213 89.3153V87.5271C61.0213 86.7143 84.9016 71.2709 101.585 59.2414H109.436C110.581 59.2414 111.563 59.8916 111.563 60.867V89.3153H111.399Z" fill="#08919B"/>
<path d="M103.057 115H69.1995L78.359 109.961H94.5519L103.057 115Z" fill="#10787B"/>
<path d="M91.7713 94.0296H80.3218V111.099H91.7713V94.0296Z" fill="#10787B"/>
<path d="M94.5519 108.823H78.1955V109.961H94.5519V108.823Z" fill="#074751"/>
<path d="M91.7713 108.823H80.3218L86.2101 94.5172H91.7713V108.823Z" fill="#074751"/>
<path d="M103.057 115H69.1995L71.1622 113.862H101.258L103.057 115Z" fill="#074751"/>
<path d="M115.652 34.6946C115.979 34.0443 116.142 33.2315 116.142 32.4187C116.142 32.2562 116.142 32.0936 116.142 31.931C116.306 31.931 116.469 31.931 116.633 31.931C117.778 32.0936 118.923 32.4187 118.923 32.4187C118.923 32.4187 118.923 32.0936 118.923 31.6059C118.923 31.4434 118.923 31.1182 118.759 30.7931C118.759 30.6305 118.759 30.468 118.759 30.3054C118.759 30.1429 118.759 29.9803 118.596 29.8177C118.596 29.6552 118.596 29.4926 118.432 29.33C118.432 29.1675 118.269 29.0049 118.269 28.8424C118.269 28.6798 118.105 28.5172 118.105 28.3547C118.105 28.1921 117.941 28.0296 117.941 28.0296C117.778 27.867 117.778 27.7044 117.614 27.5419C117.614 27.3793 117.451 27.3793 117.451 27.3793C117.451 27.3793 116.633 28.3547 115.652 29.0049C115.488 29.1675 115.324 29.1675 115.161 29.33C114.67 28.5172 114.016 27.867 113.362 27.3793C113.525 27.2167 113.852 27.0542 114.18 26.7291C114.67 26.4039 115.161 26.0788 115.488 25.7537C115.815 25.5911 116.142 25.4286 116.142 25.4286C116.142 25.4286 116.142 25.4286 115.979 25.266C115.815 25.1034 115.652 25.1034 115.488 24.9409C115.324 24.7783 114.997 24.6158 114.834 24.4532C114.67 24.2906 114.343 24.1281 114.016 23.9655C113.689 23.803 113.362 23.6404 113.198 23.4778C112.871 23.3153 112.707 23.3153 112.38 23.1527C112.217 22.9901 111.89 22.9901 111.89 22.9901C111.726 22.9901 111.726 22.9901 111.726 22.9901C111.726 22.9901 111.726 23.3153 111.726 23.803C111.726 24.2906 111.563 24.7783 111.563 25.4286C111.563 25.9163 111.399 26.2414 111.399 26.5665C110.745 26.4039 110.09 26.2414 109.273 26.2414C109.109 26.2414 108.945 26.2414 108.782 26.2414C108.782 25.9163 108.782 25.4286 108.945 24.9409C108.782 23.6404 108.945 22.5025 108.945 22.5025C108.945 22.5025 108.618 22.5025 108.128 22.5025C107.801 22.5025 107.637 22.5025 107.31 22.665C106.983 22.665 106.656 22.8276 106.328 22.8276C106.001 22.8276 105.674 22.9901 105.347 23.1527C105.02 23.3153 104.856 23.3153 104.529 23.4778C104.039 23.6404 103.875 23.803 103.875 23.803C103.875 23.803 104.039 23.9655 104.366 24.2906C104.856 24.7783 105.184 25.266 105.511 25.7537C105.674 26.0788 106.001 26.4039 106.165 26.7291C105.347 27.0542 104.529 27.5419 103.875 28.1921C103.711 28.0296 103.548 27.7044 103.384 27.5419C102.566 26.5665 101.912 25.5911 101.912 25.5911C101.912 25.5911 101.749 25.7537 101.422 26.0788C101.258 26.2414 101.094 26.5665 100.931 26.7291C100.767 27.0542 100.604 27.3793 100.44 27.5419C100.113 28.0296 99.9495 28.6798 99.7859 29.1675C99.6223 29.3301 99.6223 29.6552 99.6223 29.6552C99.6223 29.8177 99.6223 29.8177 99.6223 29.8177C99.6223 29.8177 100.767 29.8177 101.912 30.1429C102.076 30.1429 102.239 30.1429 102.403 30.3054C102.076 30.9557 101.912 31.7685 101.912 32.5813C101.912 32.7438 101.912 32.9064 101.912 33.069C101.749 33.069 101.585 33.069 101.422 33.069C100.277 32.9064 99.1317 32.5813 99.1317 32.5813C99.1317 32.5813 99.1317 32.9064 99.1317 33.3941C99.1317 33.5567 99.1317 33.8818 99.2952 34.2069C99.2952 34.3695 99.2952 34.532 99.2952 34.6946C99.2952 34.8571 99.2952 35.0197 99.4588 35.1823C99.4588 35.3448 99.4588 35.5074 99.6223 35.67C99.6223 35.8325 99.7859 35.9951 99.7859 36.1576C99.7859 36.3202 99.9495 36.4828 99.9495 36.6453C99.9495 36.8079 100.113 36.9704 100.113 36.9704C100.277 37.133 100.277 37.2956 100.44 37.4581C100.44 37.6207 100.604 37.6207 100.604 37.6207C100.604 37.6207 101.585 36.8079 102.566 36.1576C102.73 35.9951 102.894 35.9951 103.057 35.8325C103.548 36.6453 104.202 37.2956 104.856 37.7833C104.693 37.9458 104.366 38.1084 104.039 38.4335C103.548 38.7586 103.057 39.0837 102.73 39.4089C102.403 39.5714 102.076 39.734 102.076 39.734C102.076 39.734 102.076 39.734 102.239 39.8966C102.403 40.0591 102.566 40.0591 102.73 40.2217C102.894 40.3842 103.057 40.5468 103.384 40.7094C103.548 40.8719 103.875 41.0345 104.202 41.197C104.529 41.3596 104.856 41.5222 105.02 41.6847C105.347 41.8473 105.511 41.8473 105.838 42.0099C106.001 42.1724 106.328 42.1724 106.328 42.1724C106.492 42.1724 106.492 42.1724 106.492 42.1724C106.492 42.1724 106.492 41.8473 106.492 41.3596C106.492 40.8719 106.656 40.3842 106.656 39.734C106.656 39.2463 106.819 38.9212 106.819 38.5961C107.473 38.7586 108.128 38.9212 108.945 38.9212C109.109 38.9212 109.273 38.9212 109.436 38.9212C109.436 39.2463 109.436 39.734 109.273 40.2217C109.109 41.3596 108.782 42.4975 108.782 42.4975C108.782 42.4975 109.109 42.4975 109.6 42.4975C109.927 42.4975 110.09 42.4975 110.418 42.335C110.745 42.335 111.072 42.1724 111.399 42.1724C111.726 42.1724 112.053 42.0099 112.38 41.8473C112.707 41.6847 112.871 41.6847 113.198 41.5222C113.689 41.3596 113.852 41.197 113.852 41.197C113.852 41.197 113.689 41.0345 113.362 40.7094C113.035 40.3842 112.707 39.8966 112.38 39.4089C112.217 39.0837 111.89 38.7586 111.726 38.4335C112.544 38.1084 113.362 37.6207 114.016 36.9704C114.18 37.133 114.343 37.4581 114.507 37.6207C115.324 38.5961 115.979 39.5714 115.979 39.5714C115.979 39.5714 116.142 39.4089 116.469 38.9212C116.633 38.7586 116.797 38.4335 116.96 38.2709C117.124 37.9458 117.287 37.7833 117.451 37.4581C117.778 36.9704 117.941 36.3202 118.105 35.8325C118.269 35.67 118.269 35.3448 118.269 35.3448C118.269 35.1823 118.269 35.1823 118.269 35.1823C118.269 35.1823 117.124 35.1823 115.979 34.8571C115.979 34.8571 115.815 34.6946 115.652 34.6946ZM108.945 35.8325C106.983 35.8325 105.511 34.3695 105.511 32.4187C105.511 30.468 107.146 29.0049 108.945 29.0049C110.908 29.0049 112.38 30.468 112.38 32.4187C112.38 34.3695 110.908 35.8325 108.945 35.8325Z" fill="#7964A0"/>
<path d="M108.945 37.9458C105.838 37.9458 103.221 35.5074 103.221 32.4187C103.221 29.33 105.838 26.8916 108.945 26.8916C112.053 26.8916 114.67 29.33 114.67 32.4187C114.67 35.5074 112.217 37.9458 108.945 37.9458ZM108.945 27.7044C106.165 27.7044 104.039 29.8177 104.039 32.4187C104.039 35.0197 106.328 37.133 108.945 37.133C111.726 37.133 113.852 35.0197 113.852 32.4187C114.016 29.8177 111.726 27.7044 108.945 27.7044Z" fill="#752A00"/>
<path d="M126.12 43.9606H127.592C127.592 43.9606 127.592 43.798 127.592 43.4729V43.3103V43.1478C127.592 42.9852 127.592 42.8227 127.428 42.6601C127.428 42.4975 127.265 42.335 127.265 42.1724C127.265 42.0099 127.101 41.8473 127.101 41.6847C127.101 41.5222 126.938 41.5222 126.938 41.3596V41.197L125.629 41.8473C125.302 41.197 124.811 40.7094 124.321 40.2217L125.138 39.0837C125.138 39.0837 124.975 38.9212 124.811 38.7586C124.648 38.7586 124.648 38.5961 124.484 38.5961C124.321 38.4335 124.157 38.4335 123.993 38.4335C123.993 38.4335 123.83 38.4335 123.83 38.2709C123.83 38.2709 123.666 38.2709 123.666 38.1084C123.503 38.1084 123.339 37.9458 123.176 37.9458C122.848 37.9458 122.685 37.7832 122.685 37.7832L122.358 39.0837C122.031 39.0837 121.703 38.9212 121.213 38.9212C120.886 38.9212 120.559 38.9212 120.068 39.0837L119.741 37.7832C119.741 37.7832 119.577 37.7832 119.25 37.9458C119.086 37.9458 118.923 38.1084 118.759 38.1084C118.759 38.1084 118.596 38.1084 118.596 38.2709C118.596 38.2709 118.432 38.2709 118.432 38.4335C118.269 38.4335 118.105 38.5961 117.942 38.5961C117.942 38.7586 117.942 38.7586 117.778 38.7586C117.614 38.9212 117.451 39.0837 117.451 39.0837L118.269 40.2217C117.778 40.7094 117.287 41.197 116.96 41.8473L115.652 41.197C115.652 41.197 115.652 41.197 115.652 41.3596C115.652 41.3596 115.488 41.5222 115.488 41.6847C115.488 41.8473 115.325 42.0099 115.325 42.1724C115.325 42.335 115.161 42.4975 115.161 42.6601C115.161 42.8227 115.161 42.9852 114.997 43.1478V43.3103V43.4729C114.997 43.798 114.997 43.9606 114.997 43.9606H116.469C116.469 44.7734 116.633 45.4236 116.96 46.0739L115.652 46.7241C115.652 46.7241 115.652 46.7241 115.652 46.8867C115.652 46.8867 115.652 47.0493 115.815 47.2118C115.815 47.3744 115.979 47.3744 115.979 47.5369C116.142 47.6995 116.142 47.8621 116.306 48.0246C116.469 48.3498 116.797 48.5123 116.96 48.6749C117.124 48.8374 117.124 48.8374 117.124 48.8374H117.287L118.105 47.6995C118.596 48.1872 119.25 48.5123 120.068 48.6749L119.741 49.9754C119.741 49.9754 119.741 49.9754 119.904 49.9754C119.904 49.9754 120.068 49.9754 120.231 49.9754C120.559 49.9754 120.886 49.9754 121.213 49.9754C121.54 49.9754 121.867 49.9754 122.194 49.9754C122.358 49.9754 122.358 49.9754 122.521 49.9754H122.685L122.358 48.5123C123.012 48.3498 123.666 48.0246 124.321 47.5369L125.138 48.6749C125.138 48.6749 125.138 48.6749 125.302 48.6749L125.465 48.5123C125.629 48.3498 125.956 48.0246 126.12 47.8621C126.283 47.6995 126.283 47.5369 126.447 47.3744C126.61 47.2118 126.61 47.0493 126.61 47.0493C126.61 46.8867 126.774 46.8867 126.774 46.7241V46.5616L125.465 45.9113C125.956 45.4236 126.12 44.6108 126.12 43.9606ZM121.376 46.5616C119.904 46.5616 118.596 45.4236 118.596 43.9606C118.596 42.4975 119.741 41.3596 121.376 41.3596C122.848 41.3596 124.157 42.4975 124.157 43.9606C123.993 45.4236 122.848 46.5616 121.376 46.5616Z" fill="white"/>
<path d="M121.376 48.1872C118.923 48.1872 116.96 46.2365 116.96 43.9606C116.96 41.6847 118.923 39.734 121.376 39.734C123.83 39.734 125.793 41.6847 125.793 43.9606C125.793 46.399 123.666 48.1872 121.376 48.1872ZM121.376 40.2217C119.25 40.2217 117.451 41.8473 117.451 43.9606C117.451 46.0739 119.25 47.6995 121.376 47.6995C123.503 47.6995 125.302 46.0739 125.302 43.9606C125.138 42.0099 123.503 40.2217 121.376 40.2217Z" fill="#CAE8E3"/>
<path d="M45.1556 40.7094C45.1556 38.9212 45.9734 36.4828 50.0625 36.4828H54.6423C56.605 36.4828 58.8949 36.9704 58.8949 39.734V47.2118H56.7686L56.2779 45.9113C56.2779 45.9113 54.8058 47.3744 52.5159 47.3744C50.5532 47.3744 49.4082 45.9113 49.4082 44.6108V43.798C49.4082 41.8473 50.7167 40.8719 52.8431 40.8719C53.988 40.8719 56.1143 40.8719 56.1143 40.8719V39.8966C56.1143 38.9212 55.6237 38.7586 54.6423 38.7586H50.0625C48.9175 38.7586 47.7726 38.9212 47.7726 40.7094V46.8867C47.7726 48.8374 49.0811 49.1626 50.0625 49.1626H57.9135C59.8763 49.1626 60.367 48.3498 60.367 46.8867V37.133C60.367 35.5074 59.3856 34.6946 57.9135 34.6946H48.2633V32.9064C49.4082 32.7438 52.5159 32.2562 55.4601 32.2562H57.9135C60.5306 32.2562 62.984 33.5566 62.984 37.133V46.8867C62.984 49.9754 61.3484 51.601 57.9135 51.601H49.8989C47.2819 51.601 44.992 50.3005 44.992 47.2118V40.7094H45.1556ZM53.3338 45.0985C54.3151 45.0985 55.4601 44.7734 56.1143 44.1232V42.4975L53.3338 42.6601C52.6795 42.6601 52.3524 42.9852 52.3524 43.6355V44.1232C52.1888 44.7734 52.6795 45.0985 53.3338 45.0985Z" fill="white"/>
<path d="M150 95.3301C150 104.921 141.658 112.887 131.517 112.887C121.376 112.887 113.035 105.084 113.035 95.3301C113.035 85.7389 121.376 77.7734 131.517 77.7734C141.658 77.7734 150 85.5764 150 95.3301Z" fill="#7964A0"/>
<path d="M145.257 85.4138H117.778V102.483H145.257V85.4138Z" fill="#33C1C2"/>
<path d="M144.602 85.5764H118.432V101.995H144.602V85.5764Z" fill="#A6D1C9"/>
<path d="M131.517 85.5764H118.432V101.995H131.517V85.5764Z" fill="white"/>
<path d="M140.35 99.7192L131.517 102.158V85.5764L140.35 82.3251V99.7192Z" fill="#D8EFEA"/>
<path d="M128.9 87.202H120.886V87.3645H128.9V87.202Z" fill="#33C1C2"/>
<path d="M130.372 89.1527H119.577V89.3153H130.372V89.1527Z" fill="#33C1C2"/>
<path d="M130.372 90.1281H119.577V90.2906H130.372V90.1281Z" fill="#33C1C2"/>
<path d="M130.372 91.1035H119.577V91.266H130.372V91.1035Z" fill="#33C1C2"/>
<path d="M130.372 92.0788H119.577V92.2414H130.372V92.0788Z" fill="#33C1C2"/>
<path d="M130.372 92.8916H119.577V93.0542H130.372V92.8916Z" fill="#33C1C2"/>
<path d="M130.372 93.867H119.577V94.0295H130.372V93.867Z" fill="#33C1C2"/>
<path d="M129.227 85.4138H131.19L130.863 105.734L129.882 104.759L128.9 105.734L129.227 85.4138Z" fill="#8C0303"/>
<path d="M135.606 90.9409L132.499 92.2414V87.0394L135.606 85.7389V90.9409Z" fill="#7964A0"/>
<path d="M135.606 98.0936L132.499 99.3941V93.867L135.606 92.5665V98.0936Z" fill="#7964A0"/>
<path d="M138.878 97.1182L136.588 97.7685V85.4138L138.878 84.4384V97.1182Z" fill="#7964A0"/>
</g>
<defs>
<clipPath id="clip0_134_13457">
<rect width="123" height="99" fill="white" transform="translate(27 16)"/>
</clipPath>
</defs>
</svg>
