<svg width="163" height="130" viewBox="0 0 163 130" fill="none" xmlns="http://www.w3.org/2000/svg">
<rect width="163" height="130" fill="white"/>
<g clip-path="url(#clip0_134_13522)">
<path d="M81.7949 105.769C80.2869 105.769 78.779 105.769 77.271 105.632L77.4081 103.988C78.779 104.125 80.2869 104.125 81.6578 104.125L81.7949 105.769ZM86.3188 105.632L86.1817 103.988C87.5526 103.851 89.0606 103.714 90.4315 103.44L90.7056 104.947C89.1977 105.221 87.6897 105.495 86.3188 105.632ZM72.8842 104.947C71.3762 104.673 70.0053 104.399 68.4974 103.988L69.0457 102.481C70.4166 102.892 71.7875 103.166 73.1584 103.44L72.8842 104.947ZM94.9554 103.988L94.5441 102.481C95.915 102.07 97.2859 101.66 98.6568 101.112L99.3422 102.618C97.8342 103.166 96.4633 103.577 94.9554 103.988ZM64.3847 102.755C63.0138 102.207 61.6429 101.66 60.2721 100.975L61.0946 99.6051C62.3284 100.153 63.6993 100.701 64.9331 101.249L64.3847 102.755ZM103.318 100.975L102.495 99.6051C103.729 99.0572 104.963 98.3723 106.197 97.5505L107.156 98.9202C105.922 99.6051 104.552 100.29 103.318 100.975ZM56.4336 98.9202C55.1998 98.2354 53.966 97.4136 52.8693 96.4548L53.966 95.2221C55.0627 96.0439 56.2965 96.8657 57.3932 97.5505L56.4336 98.9202ZM110.721 96.4548L109.624 95.2221C110.721 94.4003 111.817 93.5785 112.777 92.6197L114.011 93.7154C113.051 94.6742 111.954 95.633 110.721 96.4548ZM49.4421 93.8524C48.3454 92.8936 47.3858 91.9348 46.4262 90.8391L47.797 89.7434C48.7567 90.7021 49.7163 91.6609 50.6759 92.6197L49.4421 93.8524ZM117.164 90.7021L115.793 89.6064C116.752 88.6476 117.575 87.5519 118.397 86.4561L119.768 87.4149C118.946 88.5106 118.123 89.7434 117.164 90.7021ZM43.6844 87.5519C42.8619 86.4561 42.0393 85.2234 41.3539 83.9907L42.8619 83.1689C43.5473 84.2646 44.3698 85.4973 45.1924 86.5931L43.6844 87.5519ZM122.236 83.9907L120.728 83.1689C121.413 82.0731 122.099 80.8404 122.647 79.6077L124.292 80.2926C123.607 81.5253 122.921 82.758 122.236 83.9907ZM39.4347 80.2926C38.8863 79.0598 38.3379 77.6902 37.9267 76.4574L39.5717 76.0465C39.983 77.2793 40.5314 78.512 41.0797 79.7447L39.4347 80.2926ZM125.663 76.4574L124.018 76.0465C124.429 74.8138 124.841 73.4442 125.115 72.2114L126.76 72.4854C126.486 73.7181 126.074 75.0878 125.663 76.4574ZM36.6929 72.4854C36.4187 71.1157 36.1445 69.746 36.0075 68.3763L37.7896 68.2394C37.9267 69.609 38.2009 70.8418 38.475 72.0745L36.6929 72.4854ZM127.445 68.3763L125.663 68.2394C125.8 67.0066 125.937 65.637 125.937 64.2673V64.1303H127.719V64.2673C127.719 65.637 127.582 67.0067 127.445 68.3763ZM37.5154 64.4043H35.8704V64.2673C35.8704 62.8976 36.0074 61.5279 36.1445 60.2952L37.9267 60.4322C37.6525 61.6649 37.5154 63.0346 37.5154 64.4043ZM125.663 60.1582C125.526 58.7886 125.252 57.5559 124.978 56.3231L126.623 56.0492C126.897 57.4189 127.171 58.7886 127.308 60.1582H125.663ZM38.3379 56.4601L36.6929 56.1862C36.9671 54.8165 37.3783 53.4468 37.7896 52.2141L39.4347 52.625C39.0234 53.9947 38.6121 55.2274 38.3379 56.4601ZM124.018 52.488C123.607 51.2553 123.058 50.0226 122.51 48.7899L124.155 48.1051C124.704 49.3378 125.252 50.7075 125.663 51.9402L124.018 52.488ZM40.9426 48.9269L39.2976 48.242C39.8459 47.0093 40.5314 45.7766 41.2168 44.5439L42.7248 45.3657C42.0393 46.5984 41.491 47.6942 40.9426 48.9269ZM120.591 45.2287C119.905 44.133 119.083 42.9003 118.26 41.9415L119.631 40.9827C120.454 42.0785 121.276 43.3112 121.962 44.4069L120.591 45.2287ZM45.0553 42.0785L43.6844 41.1197C44.5069 40.0239 45.4665 38.9282 46.4262 37.8325L47.797 38.7912C46.7003 39.887 45.8778 40.9827 45.0553 42.0785ZM115.656 38.6543C114.696 37.6955 113.736 36.7367 112.777 35.7779L114.011 34.6822C115.107 35.641 116.067 36.5997 117.027 37.6955L115.656 38.6543ZM50.5388 36.0519L49.305 34.8192C50.4017 33.8604 51.4984 32.9016 52.5951 32.0798L53.6918 33.3125C52.5951 34.1343 51.4984 35.0931 50.5388 36.0519ZM109.487 33.1755C108.39 32.3537 107.156 31.5319 106.06 30.8471L107.019 29.4774C108.253 30.1622 109.487 30.984 110.583 31.9428L109.487 33.1755ZM57.2561 30.984L56.2965 29.6144C57.5303 28.9295 58.7641 28.1077 60.135 27.5598L60.9575 28.9295C59.7237 29.6144 58.3528 30.2992 57.2561 30.984ZM102.358 28.9295C101.124 28.3817 99.7535 27.8338 98.3826 27.2859L99.068 25.7793C100.439 26.3271 101.81 26.875 103.181 27.4229L102.358 28.9295ZM64.796 27.4229L64.1105 25.9162C65.4814 25.3684 66.8523 24.9574 68.3603 24.5465L68.9086 26.0532C67.5377 26.4641 66.1669 26.875 64.796 27.4229ZM94.407 26.0532C93.0361 25.6423 91.6653 25.3684 90.2944 25.0944L90.4315 23.4508C91.9394 23.7247 93.3103 23.9987 94.8183 24.4096L94.407 26.0532ZM73.0213 25.0944L72.7471 23.5878C74.2551 23.3138 75.6259 23.1769 77.1339 23.0399L77.271 24.6835C75.9001 24.6835 74.3921 24.8205 73.0213 25.0944ZM85.9076 24.5465C84.5367 24.4096 83.1658 24.4096 81.7949 24.4096H81.6578V22.766H81.7949C83.3029 22.766 84.6738 22.766 86.1817 22.9029L85.9076 24.5465Z" fill="#752A00"/>
<path d="M155 40.9827C155 41.1197 154.863 41.2566 154.726 41.2566C154.589 41.2566 154.452 41.1197 154.452 40.9827C154.452 40.8457 154.589 40.7088 154.726 40.7088C154.863 40.8457 155 40.8457 155 40.9827Z" fill="white"/>
<path d="M106.471 27.6968L79.3273 37.9694L74.2551 24.2726L101.399 14L106.471 27.6968Z" fill="#CAE8E3"/>
<path d="M74.2551 24.2726L90.5686 28.3817L101.399 14L74.2551 24.2726Z" fill="#7964A0"/>
<path d="M54.5143 19.0678C54.1031 20.0266 47.9341 36.1888 47.9341 36.1888C47.9341 36.1888 63.9734 37.8324 64.1105 37.5585C64.2476 37.2846 56.7077 30.5731 56.7077 30.5731L54.5143 19.0678Z" fill="#752A00"/>
<path d="M113.051 107.823C113.325 106.864 117.438 90.0173 117.438 90.0173C117.438 90.0173 101.399 90.4282 101.124 90.7021C100.987 90.976 109.35 96.7287 109.35 96.7287L113.051 107.823Z" fill="#752A00"/>
<path d="M99.2051 117H76.5856V86.1822H96.0521L99.2051 90.7021V117Z" fill="#83BDE6"/>
<path d="M98.7938 116.041H77.5452V86.4561H95.915L98.7938 90.9761V116.041Z" fill="#CAE8E3"/>
<path d="M95.915 86.4561L94.6812 90.9761H98.7939L95.915 86.4561Z" fill="#83BDE6"/>
<path d="M92.6249 91.7979H83.5771V92.3457H92.6249V91.7979Z" fill="#83BDE6"/>
<path d="M95.6409 94.8112H80.8353V95.0851H95.6409V94.8112Z" fill="#83BDE6"/>
<path d="M95.6409 106.59H80.8353V106.864H95.6409V106.59Z" fill="#83BDE6"/>
<path d="M95.6409 97.5505H80.8353V97.8245H95.6409V97.5505Z" fill="#83BDE6"/>
<path d="M95.6409 100.153H80.8353V100.427H95.6409V100.153Z" fill="#83BDE6"/>
<path d="M95.6409 103.166H80.8353V103.44H95.6409V103.166Z" fill="#83BDE6"/>
<path d="M95.6409 109.741H80.8353V110.015H95.6409V109.741Z" fill="#83BDE6"/>
<path d="M82.2062 115.493L54.2402 107.96L57.8045 93.8524L85.9075 101.386L82.2062 115.493Z" fill="#83BDE6"/>
<path d="M57.8044 93.8524L68.9086 106.727L85.9075 101.386L57.8044 93.8524Z" fill="#7964A0"/>
<path d="M73.9809 65.363C73.9809 78.9229 63.288 90.0173 49.9904 90.0173C36.6929 90.0173 26 78.9229 26 65.363C26 51.8032 36.6929 40.7088 49.9904 40.7088C63.1509 40.7088 73.9809 51.6662 73.9809 65.363Z" fill="#327AAD"/>
<path d="M64.2476 83.8537C64.5218 73.3072 64.7959 67.2806 61.78 66.1848C61.0946 65.9109 61.0946 66.0479 60.1349 65.637L54.3772 63.5825H46.289L40.2571 65.5C39.5717 65.7739 38.7492 65.9109 38.2008 66.1848C35.1849 67.2806 35.1849 73.0333 35.4591 83.7168H64.2476V83.8537Z" fill="#022935"/>
<path d="M54.2401 55.5013H45.7407V66.0479H54.2401V55.5013Z" fill="#D2B18D"/>
<path d="M51.2242 59.4734C51.2242 61.6649 49.8533 64.2673 48.3453 65.7739C48.8937 65.9109 49.5791 65.774 50.2646 65.9109C50.95 65.9109 51.4984 66.1849 52.0467 66.1849C52.458 66.1849 53.5547 66.3218 53.8289 66.0479C54.3772 65.7739 53.966 65.363 53.966 64.6782C53.966 62.4867 53.966 60.1583 53.8289 57.9668C53.0063 57.9668 50.6758 58.5146 50.95 59.6104L51.2242 59.4734Z" fill="#D2B18D"/>
<path d="M55.611 54.2686C55.611 57.2819 52.458 61.9388 49.9904 61.9388C47.3858 61.9388 44.3698 57.145 44.3698 54.2686C44.3698 51.2553 46.8374 48.9269 49.9904 48.9269C53.0064 48.9269 55.611 51.2553 55.611 54.2686Z" fill="#E9CCAA"/>
<path d="M44.644 56.4601C44.2327 56.0492 42.4506 53.1729 44.0956 53.7208C44.9182 53.9947 45.0552 56.4601 44.7811 56.7341L44.644 56.4601Z" fill="#E9CCAA"/>
<path d="M55.3368 56.4601C55.7481 56.0492 57.5302 53.1729 55.8852 53.7208C55.0626 53.9947 54.9256 56.4601 55.1997 56.7341L55.3368 56.4601Z" fill="#E9CCAA"/>
<path d="M43.8215 53.4468C43.8215 50.9814 44.0956 47.4202 46.5632 46.0506C48.8937 44.6809 51.9097 44.9548 54.2402 46.3245C55.3369 47.0093 55.7481 49.7487 55.8852 50.9814C55.8852 51.5293 56.4336 53.5838 55.474 53.5838C54.9256 52.3511 54.1031 49.2008 51.7726 49.4748C50.813 49.6117 50.4017 51.3923 49.1679 50.8444C48.2083 50.4335 48.3454 48.7899 46.8374 49.7487C46.152 50.1596 45.4665 51.1184 45.0553 51.8032C44.7811 52.3511 44.7811 53.5838 44.3698 53.9947C44.2327 53.8577 44.0956 53.5838 43.8215 53.4468Z" fill="#2B1601"/>
<path d="M49.1679 54.5425C49.1679 55.2274 48.6195 55.7753 48.0712 55.7753H46.289C45.6036 55.7753 45.1923 55.2274 45.1923 54.5425C45.1923 53.8577 45.0553 53.7207 45.7407 53.7207L48.8937 54.1316C49.305 54.1316 49.1679 55.0904 49.1679 54.5425Z" fill="#EEF7FB"/>
<path d="M48.0712 55.9122H46.289C45.6036 55.9122 44.9182 55.2274 44.9182 54.5425C44.9182 54.4056 44.9182 54.4056 44.9182 54.2686C44.9182 53.9947 44.9182 53.8577 45.0552 53.7207C45.1923 53.5838 45.3294 53.5838 45.6036 53.5838L48.7566 53.9947C49.0308 53.9947 49.1679 54.1316 49.305 54.5425C49.305 54.6795 49.305 54.8165 49.305 54.8165C49.305 55.0904 49.1679 55.3644 48.8937 55.5013C48.7566 55.7753 48.4824 55.9122 48.0712 55.9122ZM45.6036 53.8577H45.3294C45.3294 53.8577 45.3294 53.9947 45.3294 54.2686C45.3294 54.4056 45.3294 54.4056 45.3294 54.5425C45.3294 55.0904 45.7407 55.6383 46.289 55.6383H48.0712C48.3454 55.6383 48.6195 55.5013 48.7566 55.3644C48.8937 55.0904 49.0308 54.8165 49.0308 54.5425C49.0308 54.4056 48.8937 54.2686 48.7566 54.2686L45.6036 53.8577Z" fill="#1D3333"/>
<path d="M50.813 54.5425C50.813 55.2274 51.3613 55.7753 51.9097 55.7753H53.6918C54.3772 55.7753 54.7885 55.2274 54.7885 54.5425C54.7885 53.8577 54.9256 53.7207 54.2402 53.7207L51.0871 54.1316C50.6759 54.1316 50.813 55.0904 50.813 54.5425Z" fill="#EEF7FB"/>
<path d="M50.95 55.5013C50.8129 55.3644 50.6758 55.0904 50.6758 54.8165C50.6758 54.8165 50.6758 54.6795 50.6758 54.5425C50.6758 54.2686 50.95 53.9947 51.2242 53.9947L54.3772 53.5838C54.6514 53.5838 54.7885 53.5838 54.9256 53.7207C55.0627 53.8577 55.0627 53.9947 55.0627 54.2686C55.0627 54.4056 55.0627 54.4056 55.0627 54.5425C55.0627 55.3644 54.5143 55.9122 53.8289 55.9122H52.0467C51.6355 55.9122 51.2242 55.7753 50.95 55.5013ZM51.2242 54.2686C51.0871 54.2686 50.95 54.4056 50.95 54.5425C50.95 54.8165 51.0871 55.0904 51.2242 55.3644C51.3613 55.6383 51.6355 55.6383 51.9096 55.6383H53.6918C54.2401 55.6383 54.6514 55.0904 54.6514 54.5425C54.6514 54.4056 54.6514 54.4056 54.6514 54.2686C54.6514 54.1316 54.6514 53.8577 54.6514 53.8577H54.3772L51.2242 54.2686Z" fill="#1D3333"/>
<path d="M48.7566 55.5013C49.0308 55.3643 49.442 54.9534 49.8533 54.9534C50.4016 54.9534 50.6758 55.3643 51.0871 55.5013C50.6758 54.9534 50.95 54.5425 50.1275 54.5425C49.1679 54.6795 49.1679 54.9534 48.7566 55.5013Z" fill="#1D3333"/>
<path d="M43.9585 53.3099C43.5473 52.488 43.6843 51.2553 43.6843 50.2966C43.6843 49.3378 43.8214 48.242 44.2327 47.2833C44.5069 46.3245 45.1923 45.3657 45.8778 44.5439C46.4261 43.996 46.9745 43.4481 47.6599 43.0372C48.2083 42.6263 49.0308 42.0785 49.7162 41.9415C49.4421 42.2154 49.0308 42.7633 49.0308 43.1742C49.5791 42.9003 50.1275 42.3524 50.8129 42.2154C50.8129 42.6263 50.2646 42.9003 50.1275 43.3112C50.6758 43.5851 51.4984 43.1742 52.1838 43.1742C52.0467 43.4481 51.6355 43.5851 51.6355 43.8591C52.3209 43.996 53.0063 43.7221 53.5547 44.133C54.1031 44.5439 54.5143 44.9548 54.9256 45.5027C55.7481 46.5984 56.2965 47.6942 56.2965 48.9269C56.2965 49.8856 56.2965 51.1184 55.8852 52.0771C55.7481 52.625 55.3368 53.1729 55.1998 53.8577C55.1998 53.5838 55.0627 53.3098 54.9256 53.0359C54.7885 52.488 54.5143 52.0771 54.2401 51.5293C53.8289 50.8444 53.5547 50.0226 52.8693 49.4747C52.3209 49.0638 51.6355 48.6529 50.95 48.6529C50.5388 48.6529 50.4017 48.6529 49.9904 48.9269C49.7162 49.0638 49.1679 49.3378 48.8937 49.3378C48.6195 49.3378 48.4824 49.0638 48.2083 49.0638C47.797 48.9269 47.3857 49.0638 47.1116 49.3378C46.5632 49.6117 46.0148 50.1596 45.7407 50.7075C45.3294 51.2553 44.9181 51.3923 44.644 51.9402C44.5069 52.3511 44.5069 53.0359 44.3698 53.4468C44.3698 53.5838 44.2327 53.7208 44.2327 53.7208C44.0956 53.5838 44.0956 53.3099 43.9585 53.3099Z" fill="#2B1601"/>
<path d="M43.8215 53.1729C43.8215 53.3099 43.8215 53.4468 43.8215 53.5838C44.3698 53.5838 44.2327 53.5838 44.0956 54.1317C44.0956 54.5426 44.3698 54.5426 44.3698 54.8165C44.3698 55.0904 44.2327 55.5014 44.2327 55.9123C44.2327 56.3232 44.3698 57.008 44.7811 57.4189C44.7811 57.2819 44.7811 57.145 44.9182 57.008C45.1924 57.145 45.1924 57.6928 45.4665 57.9668C45.6036 58.2407 46.0149 58.5146 46.2891 58.6516C46.4261 58.1037 46.152 57.145 45.7407 56.7341C45.6036 56.4601 45.1924 56.3232 45.1924 56.0492C45.1924 55.9123 45.1924 55.7753 45.1924 55.7753C45.1924 55.6383 44.9182 55.5014 44.9182 55.3644C44.644 54.9535 44.644 54.1317 44.644 53.7208C44.644 53.4468 44.7811 53.1729 44.5069 52.899C44.3698 52.762 44.0956 52.899 43.9586 53.0359L43.8215 53.1729Z" fill="#2B1601"/>
<path d="M54.9256 52.488H54.7885C54.7885 52.8989 55.0627 53.3098 55.1997 53.5838C55.1997 53.9947 55.1997 54.2686 54.9256 54.6795C55.7481 54.5426 54.3772 55.7753 54.3772 55.9122C54.5143 55.9122 54.5143 55.9122 54.6514 55.9122C54.6514 56.1862 54.5143 56.1862 54.3772 56.3231C54.2401 56.4601 54.2401 56.734 54.103 56.871C53.966 57.2819 53.5547 57.5559 53.4176 57.9668C55.0627 58.1037 55.611 55.5013 55.7481 54.2686C55.8852 53.5838 55.8852 52.8989 55.7481 52.3511C55.7481 52.0771 55.611 51.6662 55.3368 51.6662C55.0627 51.8032 54.6514 52.488 54.9256 52.488Z" fill="#2B1601"/>
<path d="M40.8055 65.0891L39.7088 68.2394L43.9585 68.9242L39.7088 71.9375L49.7162 82.2101L45.1923 63.5825L40.8055 65.0891Z" fill="#83BDE6"/>
<path d="M58.627 65.0891L59.7237 68.2394L55.611 68.9242L59.7237 71.9375L49.9904 82.2101L54.3772 63.7194L58.627 65.0891Z" fill="#83BDE6"/>
<path d="M45.1923 63.5825L49.8533 83.1689L54.3772 63.5825H45.1923Z" fill="white"/>
<path d="M48.7566 69.3351L47.797 74.8139L49.7162 83.7168L52.0467 72.8963L50.8129 69.3351L49.5791 70.4309L48.7566 69.3351Z" fill="#173449"/>
<path d="M48.0712 68.3763C47.9341 68.5133 49.7162 70.4309 49.7162 70.4309L51.6355 68.9242L49.7162 65.5L48.0712 68.3763Z" fill="#173449"/>
<path d="M47.797 69.746L45.1923 63.5825H54.2401L51.7726 69.746L49.7162 65.637L47.797 69.746ZM49.7162 64.6782L52.0467 68.7872L54.3772 63.7194H45.3294L47.797 68.6503L49.7162 64.6782Z" fill="#A1B8BF"/>
<path d="M141.977 65.0891C141.977 78.375 131.969 89.1955 119.768 89.1955C107.43 89.1955 97.5601 78.375 97.5601 65.0891C97.5601 51.8032 107.567 40.9827 119.768 40.9827C132.106 41.1197 141.977 51.8032 141.977 65.0891Z" fill="#7964A0"/>
<path d="M111.817 65.0891C110.583 65.363 109.487 65.637 108.664 65.9109C104.552 66.8697 105.1 72.2115 105.511 82.621H111.817V65.0891Z" fill="#591F03"/>
<path d="M127.857 65.363C129.09 65.637 130.187 65.9109 131.01 66.1848C135.122 67.1436 134.574 72.3484 134.163 82.621H127.857V65.363Z" fill="#591F03"/>
<path d="M123.607 54.1317H116.067V64.9521H123.607V54.1317Z" fill="#D2B18D"/>
<path d="M121.002 58.1038C121.002 60.2952 119.768 63.0346 118.397 64.5413C118.946 64.6782 119.494 64.5413 120.043 64.6782C120.591 64.6782 121.139 64.9522 121.688 65.0891C122.099 65.0891 122.921 65.2261 123.333 64.9522C123.881 64.5413 123.47 64.2673 123.47 63.5825C123.47 61.391 123.47 59.0625 123.333 56.7341C122.51 56.7341 120.591 57.2819 120.865 58.3777L121.002 58.1038Z" fill="#D2B18D"/>
<path d="M124.841 52.8989C124.841 55.9122 122.099 60.7061 119.905 60.7061C117.575 60.7061 114.97 55.9122 114.97 52.8989C114.97 49.8856 116.89 47.0093 119.631 47.0093C122.236 47.0093 124.841 49.8856 124.841 52.8989Z" fill="#E9CCAA"/>
<path d="M114.559 52.2141C115.382 52.488 115.656 55.3644 115.107 55.3644C114.422 55.2274 113.051 51.6662 114.559 52.2141Z" fill="#E9CCAA"/>
<path d="M124.566 55.0904C124.978 55.2274 126.486 51.6662 124.978 52.2141C124.292 52.488 124.018 54.8165 124.566 55.0904Z" fill="#E9CCAA"/>
<path d="M116.615 44.5439C118.535 42.9003 121.688 42.9003 123.47 44.6809C126.486 47.6942 125.252 52.3511 124.704 52.488C124.292 51.2553 123.47 47.5572 121.413 47.9681C120.591 48.242 120.317 50.1596 119.22 49.6117C118.26 49.2008 118.397 47.2833 117.027 48.242C116.341 48.6529 115.793 49.6117 115.519 50.2966C115.244 50.9814 115.107 52.3511 114.833 52.625C114.696 52.488 113.051 47.6942 116.615 44.5439Z" fill="#752A00"/>
<path d="M119.083 53.1729C119.083 53.8577 118.672 54.4056 118.123 54.4056H116.478C115.93 54.4056 115.519 53.8577 115.519 53.1729C115.519 52.488 115.382 52.3511 115.93 52.3511L118.809 52.762C119.22 52.762 119.083 53.7208 119.083 53.1729Z" fill="#B4D3E3"/>
<path d="M118.123 54.5426H116.478C115.793 54.5426 115.382 53.8577 115.382 53.1729C115.382 53.0359 115.382 53.0359 115.382 52.899C115.382 52.625 115.382 52.488 115.519 52.3511C115.656 52.2141 115.793 52.2141 116.067 52.2141L118.946 52.625C119.22 52.625 119.357 52.762 119.357 53.1729C119.357 53.3099 119.357 53.4468 119.357 53.4468C119.357 53.7208 119.22 53.9947 119.083 54.1317C118.672 54.4056 118.397 54.5426 118.123 54.5426ZM115.93 52.3511H115.656C115.656 52.3511 115.656 52.488 115.656 52.762C115.656 52.899 115.656 52.899 115.656 53.0359C115.656 53.7208 116.067 54.1317 116.478 54.1317H118.123C118.397 54.1317 118.535 53.9947 118.809 53.8577C118.946 53.5838 119.083 53.3099 119.083 53.0359C119.083 52.899 118.946 52.762 118.809 52.762L115.93 52.3511Z" fill="#583431"/>
<path d="M120.591 53.1729C120.591 53.8577 121.002 54.4056 121.551 54.4056H123.196C123.744 54.4056 124.155 53.8577 124.155 53.1729C124.155 52.488 124.292 52.3511 123.744 52.3511L120.865 52.762C120.454 52.762 120.591 53.7208 120.591 53.1729Z" fill="#B4D3E3"/>
<path d="M120.728 54.1317C120.591 53.9947 120.454 53.7208 120.454 53.4468C120.454 53.4468 120.454 53.3099 120.454 53.1729C120.454 52.899 120.728 52.625 120.865 52.625L123.744 52.2141C124.018 52.2141 124.155 52.2141 124.292 52.3511C124.429 52.488 124.429 52.625 124.429 52.899C124.429 53.0359 124.429 53.0359 124.429 53.1729C124.429 53.9947 123.881 54.5426 123.333 54.5426H121.688C121.276 54.5426 121.002 54.4056 120.728 54.1317ZM120.865 52.899C120.728 52.899 120.728 53.0359 120.591 53.1729C120.591 53.4468 120.728 53.7208 120.865 53.9947C121.002 54.2686 121.276 54.2686 121.55 54.2686H123.196C123.744 54.2686 124.018 53.7208 124.018 53.1729C124.018 53.0359 124.018 53.0359 124.018 52.899C124.018 52.762 124.018 52.488 124.018 52.488H123.744L120.865 52.899Z" fill="#583431"/>
<path d="M118.672 54.1317C118.946 53.9947 119.22 53.5838 119.631 53.5838C120.18 53.5838 120.317 53.9947 120.728 54.1317C120.454 53.5838 120.591 53.1729 119.905 53.1729C119.22 53.1729 119.083 53.5838 118.672 54.1317Z" fill="#583431"/>
<path d="M117.986 57.2819C117.986 57.145 117.986 57.145 117.986 57.2819C117.849 57.2819 117.712 57.8298 117.438 57.9668C117.164 58.1037 116.889 57.6928 116.752 57.6928C116.478 58.5146 116.889 59.1995 117.164 59.8843C117.575 60.7061 118.123 61.6649 118.946 62.0758C120.454 62.7606 121.962 60.9801 122.51 59.7474C122.647 59.4734 123.333 58.1037 123.196 57.6928C123.058 57.4189 122.51 57.6928 122.236 57.8298C121.688 57.9668 121.962 57.6928 121.688 57.4189C121.413 57.6928 121.276 57.9668 120.865 58.2407C120.454 58.5146 120.043 58.5146 119.631 58.5146C118.946 58.3777 118.26 57.8298 117.986 57.2819Z" fill="#752A00"/>
<path d="M121.551 57.4189C121.413 57.6928 121.002 57.9668 120.728 58.1037C120.591 58.2407 120.317 58.1037 120.317 58.2407C120.18 58.3777 120.18 58.7886 120.18 58.9255C119.905 59.6104 119.083 60.9801 118.26 60.9801C118.123 61.5279 119.083 61.8019 119.494 61.9388C120.043 61.9388 120.591 61.9388 121.002 61.6649C121.962 61.117 122.647 59.7473 123.059 58.6516C123.196 58.2407 123.607 57.4189 123.059 57.4189C122.373 57.5559 121.962 58.1037 121.551 57.4189Z" fill="#591F03"/>
<path d="M127.994 82.621H111.406L108.801 65.7739L115.93 63.5825H123.47L131.558 66.1848L127.994 82.621Z" fill="#752A00"/>
<path d="M115.93 63.5825L119.768 82.621L123.47 63.5825H115.93Z" fill="white"/>
<path d="M115.93 63.5825L117.164 69.746L119.768 63.8564L122.373 69.746L123.47 63.5825H115.93Z" fill="#9FA8B0"/>
<path d="M115.93 63.5825L117.301 68.6503L119.768 63.5825L122.236 68.6503L123.47 63.5825H115.93Z" fill="white"/>
<path d="M118.535 56.0492C118.123 56.0492 116.89 57.2819 117.438 57.6928C117.849 58.1037 118.535 57.008 119.083 57.145C119.357 57.2819 119.494 57.4189 119.768 57.2819C120.043 57.145 120.18 57.008 120.454 57.008C120.591 57.008 120.591 57.145 120.728 57.145C120.865 57.2819 120.865 57.2819 121.139 57.2819C121.413 57.2819 121.551 57.4189 121.825 57.5559C122.373 57.8298 122.647 57.145 122.373 56.7341C122.099 56.3232 121.551 56.1862 121.139 56.0492C120.043 55.6383 118.397 55.7753 118.26 56.1862L118.535 56.0492Z" fill="#752A00"/>
<path d="M118.946 67.9655L118.123 74.129L119.768 82.621L121.825 72.0745L120.728 68.1024L119.768 69.3351L118.946 67.9655Z" fill="#173449"/>
<path d="M118.397 67.0067C118.26 67.1436 119.768 69.1982 119.768 69.1982L121.413 67.5545L119.768 63.9934L118.397 67.0067Z" fill="#173449"/>
<path d="M121.139 69.3351L118.397 71.3897L118.26 73.1702L121.413 70.4309L121.139 69.3351Z" fill="#B4D3E3"/>
<path d="M121.55 71.1157L118.123 74.129L118.26 75.4987L121.825 72.0745L121.55 71.1157Z" fill="#B4D3E3"/>
<path d="M118.535 76.7314L121.413 74.403L121.002 76.4575L118.809 78.2381L118.535 76.7314Z" fill="#B4D3E3"/>
<path d="M112.228 64.6782L111.406 67.9654L114.833 68.6503L111.406 71.8005L119.768 82.4841L115.93 63.5825L112.228 64.6782Z" fill="#591F03"/>
<path d="M127.034 64.6782L127.857 67.9654L124.429 68.6503L127.857 71.8005L119.768 82.4841L123.47 63.5825L127.034 64.6782Z" fill="#591F03"/>
<path d="M128.816 76.7314H125.663V77.5532H128.816V76.7314Z" fill="#591F03"/>
<path d="M125.8 76.7314C125.937 76.4574 127.171 73.855 127.171 73.855L128.816 76.7314H125.8Z" fill="white"/>
</g>
<defs>
<clipPath id="clip0_134_13522">
<rect width="129" height="103" fill="white" transform="translate(26 14)"/>
</clipPath>
</defs>
</svg>
