<svg width="163" height="130" viewBox="0 0 163 130" fill="none" xmlns="http://www.w3.org/2000/svg">
<rect width="163" height="130" fill="white"/>
<path d="M113.958 42.9744H51.9411V82.0769H113.958V42.9744Z" fill="#074751"/>
<path d="M111.638 45.7949H53.7462V77.5897H111.638V45.7949Z" fill="#022935"/>
<path d="M110.735 46.1795H54.5198V76.9487H110.735V46.1795Z" fill="white"/>
<path d="M110.864 77.0769H54.2619V45.9231H110.864V77.0769ZM54.6487 76.6923H110.477V46.3077H54.6487V76.6923Z" fill="#023547"/>
<path d="M82.6274 44.8974C82.6274 45.0256 82.4985 45.1538 82.3695 45.1538C82.2406 45.1538 82.1117 45.0256 82.1117 44.8974C82.1117 44.7692 82.2406 44.641 82.3695 44.641C82.4985 44.641 82.6274 44.7692 82.6274 44.8974Z" fill="white"/>
<path d="M83.7878 44.8974C83.7878 45.0256 83.6589 45.1538 83.5299 45.1538C83.401 45.1538 83.2721 45.0256 83.2721 44.8974C83.2721 44.7692 83.401 44.641 83.5299 44.641C83.6589 44.641 83.7878 44.7692 83.7878 44.8974Z" fill="white"/>
<path d="M85.0772 44.8974C85.0772 45.0256 84.9482 45.1538 84.8193 45.1538C84.6904 45.1538 84.5614 45.0256 84.5614 44.8974C84.5614 44.7692 84.6904 44.641 84.8193 44.641C84.9482 44.641 85.0772 44.7692 85.0772 44.8974Z" fill="white"/>
<path d="M86.4954 79.2564C86.4954 80.0257 84.9482 80.6667 83.1431 80.6667C81.3381 80.6667 79.7909 80.0257 79.7909 79.2564C79.7909 78.4872 81.3381 77.8462 83.1431 77.8462C85.0772 77.9744 86.4954 78.6154 86.4954 79.2564Z" fill="white"/>
<path d="M82.3695 75.7948C90.7721 75.7948 97.5838 69.2513 97.5838 61.1794C97.5838 53.1076 90.7721 46.5641 82.3695 46.5641C73.967 46.5641 67.1553 53.1076 67.1553 61.1794C67.1553 69.2513 73.967 75.7948 82.3695 75.7948Z" fill="#7964A0"/>
<path d="M82.4985 75.7948C73.9888 75.7948 67.1553 69.1282 67.1553 61.0512C67.1553 52.8461 73.9888 46.3076 82.4985 46.3076C91.0081 46.3076 97.8416 52.9743 97.8416 61.0512C97.8416 69.1282 91.0081 75.7948 82.4985 75.7948ZM82.4985 47.0769C74.5046 47.0769 67.9289 53.3589 67.9289 61.0512C67.9289 68.7435 74.5046 75.0256 82.4985 75.0256C90.4924 75.0256 97.068 68.7435 97.068 61.0512C97.068 53.3589 90.4924 47.0769 82.4985 47.0769Z" fill="white"/>
<path d="M82.4985 75.4102C77.8569 75.4102 73.9888 68.8718 73.9888 60.7948C73.9888 52.7179 77.8569 46.1794 82.4985 46.1794C87.1401 46.1794 91.0081 52.7179 91.0081 60.7948C91.0081 68.8718 87.1401 75.4102 82.4985 75.4102ZM82.4985 47.0769C78.2437 47.0769 74.7624 53.2307 74.7624 60.7948C74.7624 68.3589 78.2437 74.5128 82.4985 74.5128C86.7533 74.5128 90.2345 68.3589 90.2345 60.7948C90.2345 53.2307 86.7533 47.0769 82.4985 47.0769Z" fill="white"/>
<path d="M83.1431 46.6923H81.8538V75.282H83.1431V46.6923Z" fill="white"/>
<path d="M97.8416 61.0512H67.9289V61.6923H97.8416V61.0512Z" fill="white"/>
<path d="M93.4579 51.0512H71.2812V51.6923H93.4579V51.0512Z" fill="white"/>
<path d="M93.0711 70.923H72.0548V71.5641H93.0711V70.923Z" fill="white"/>
<path d="M124.402 54.5H97.5837V55.5256H124.402V54.5Z" fill="#074751"/>
<path d="M149.756 47.6153C149.756 54.7948 143.696 60.5641 136.089 60.5641C128.611 60.5641 122.551 54.7948 122.551 47.6153C122.551 40.4359 128.74 34.6666 136.218 34.6666C143.696 34.6666 149.756 40.5641 149.756 47.6153Z" fill="#CAE8E3"/>
<path d="M139.883 32.5L124 36.7327L131.25 63.6796L151.534 58.2315L145.541 35.9365L139.883 32.5Z" fill="#CADEFE"/>
<path d="M139.925 32.5L141.14 37.068L145.541 35.8945L139.925 32.5Z" fill="#A6C8FD"/>
<path d="M136.94 40.8617L128.116 43.2251L129.829 49.6208L138.653 47.2573L136.94 40.8617Z" fill="#7663B7"/>
<path d="M130.454 51.8615C135.734 50.4366 141.015 49.0117 146.337 47.6287C146.798 47.503 146.63 46.7487 146.127 46.8744C140.847 48.2993 135.567 49.7241 130.244 51.1071C129.741 51.2747 129.951 51.9872 130.454 51.8615Z" fill="#90BAFD"/>
<path d="M130.915 53.7054C136.195 52.2805 141.476 50.8557 146.798 49.4727C147.259 49.347 147.091 48.5926 146.589 48.7184C141.308 50.1432 136.028 51.5681 130.705 52.9511C130.244 53.1187 130.454 53.8311 130.915 53.7054Z" fill="#90BAFD"/>
<path d="M131.418 55.5495C136.698 54.1246 141.978 52.6997 147.301 51.3168C147.762 51.191 147.594 50.4367 147.091 50.5624C141.811 51.9873 136.53 53.4122 131.208 54.7951C130.747 54.9628 130.957 55.6752 131.418 55.5495Z" fill="#90BAFD"/>
<path d="M131.921 57.3933C137.201 55.9685 142.482 54.5436 147.804 53.1606C148.265 53.0349 148.097 52.2806 147.594 52.4063C142.314 53.8312 137.034 55.256 131.711 56.639C131.25 56.8066 131.46 57.5191 131.921 57.3933Z" fill="#90BAFD"/>
<path d="M132.424 59.2372C136.07 58.2733 139.674 57.3095 143.32 56.3037C143.781 56.1779 143.613 55.4236 143.11 55.5493C139.464 56.5132 135.86 57.4771 132.214 58.4829C131.753 58.6505 131.921 59.3629 132.424 59.2372Z" fill="#90BAFD"/>
<path d="M138.71 41.5521C140.554 41.0492 142.439 40.5463 144.283 40.0434C144.744 39.9177 144.577 39.1634 144.074 39.2891C142.23 39.792 140.344 40.2949 138.5 40.7978C137.997 40.9235 138.207 41.6779 138.71 41.5521Z" fill="#90BAFD"/>
<path d="M139.171 43.3961C141.015 42.8932 142.901 42.3903 144.744 41.8874C145.205 41.7617 145.038 41.0073 144.535 41.1331C142.691 41.636 140.805 42.1389 138.961 42.6418C138.5 42.8094 138.71 43.5218 139.171 43.3961Z" fill="#90BAFD"/>
<path d="M139.674 45.2401C141.518 44.7372 143.403 44.2343 145.247 43.7314C145.708 43.6057 145.541 42.8513 145.038 42.977C143.194 43.4799 141.308 43.9828 139.464 44.4857C139.003 44.6533 139.213 45.3658 139.674 45.2401Z" fill="#90BAFD"/>
<path d="M83.3736 25.9218L82.3422 25.9246L82.3976 46.5656L83.429 46.5628L83.3736 25.9218Z" fill="#074751"/>
<path d="M103.128 25.9231H82.3695V26.9487H103.128V25.9231Z" fill="#074751"/>
<path d="M118.342 26.9487C118.342 34.1282 112.282 39.8974 104.675 39.8974C97.197 39.8974 91.1371 34.1282 91.1371 26.9487C91.1371 19.7692 97.3259 14 104.804 14C112.282 14 118.342 19.7692 118.342 26.9487Z" fill="#CAE8E3"/>
<path d="M76.2955 77.1978L76.2538 97.8389L77.2853 97.8409L77.327 77.1999L76.2955 77.1978Z" fill="#074751"/>
<path d="M56.639 96.72L56.6343 97.7456L77.3926 97.8408L77.3974 96.8151L56.639 96.72Z" fill="#074751"/>
<path d="M65.7371 91.0513C65.7371 98.2307 59.6772 104 52.199 104C44.7208 104 38.532 98.2307 38.532 91.0513C38.532 83.8718 44.5919 78.1025 52.199 78.1025C59.6772 78.1025 65.7371 83.8718 65.7371 91.0513Z" fill="#7964A0"/>
<path d="M100.402 16.864L100.138 34.5546L112.514 34.7373L112.778 17.0468L100.402 16.864Z" fill="#074751"/>
<path d="M101.26 17.5527L101.016 33.7049L111.717 33.8649L111.961 17.7127L101.26 17.5527Z" fill="#EEF7FB"/>
<path d="M100.376 16.5119L100.364 17.2811L112.74 17.4664L112.752 16.6972L100.376 16.5119Z" fill="#7964A0"/>
<path d="M102.096 18.1025C102.096 18.2307 101.968 18.3589 101.839 18.3589C101.71 18.3589 101.581 18.2307 101.581 18.1025C101.581 17.9743 101.71 17.8461 101.839 17.8461C101.968 17.8461 102.096 17.9743 102.096 18.1025Z" fill="#074751"/>
<path d="M103.257 18.1025C103.257 18.2307 103.128 18.3589 102.999 18.3589C102.87 18.3589 102.741 18.2307 102.741 18.1025C102.741 17.9743 102.87 17.8461 102.999 17.8461C103.128 17.8461 103.257 17.9743 103.257 18.1025Z" fill="#074751"/>
<path d="M104.804 18.1025C104.804 18.2307 104.675 18.3589 104.546 18.3589C104.417 18.3589 104.288 18.2307 104.288 18.1025C104.288 17.9743 104.417 17.8461 104.546 17.8461C104.675 17.8461 104.804 17.9743 104.804 18.1025Z" fill="#074751"/>
<path d="M106.222 18.1025C106.222 18.2307 106.093 18.3589 105.964 18.3589C105.836 18.3589 105.707 18.2307 105.707 18.1025C105.578 17.9743 105.707 17.8461 105.964 17.8461C106.093 17.8461 106.222 17.9743 106.222 18.1025Z" fill="#074751"/>
<path d="M107.512 18.2307C107.512 18.3589 107.383 18.4871 107.254 18.4871C107.125 18.4871 106.996 18.3589 106.996 18.2307C106.996 17.9743 107.125 17.8461 107.254 17.8461C107.383 17.8461 107.512 17.9743 107.512 18.2307Z" fill="#074751"/>
<path d="M109.059 18.2307C109.059 18.3589 108.93 18.4871 108.801 18.4871C108.672 18.4871 108.543 18.3589 108.543 18.2307C108.414 17.9743 108.543 17.8461 108.672 17.8461C108.93 17.8461 109.059 17.9743 109.059 18.2307Z" fill="#074751"/>
<path d="M110.219 18.2307C110.219 18.3589 110.09 18.4871 109.961 18.4871C109.832 18.4871 109.704 18.3589 109.704 18.2307C109.704 18.1025 109.832 17.9743 109.961 17.9743C110.09 17.9743 110.219 18.1025 110.219 18.2307Z" fill="#074751"/>
<path d="M111.638 18.2307C111.638 18.3589 111.509 18.4871 111.38 18.4871C111.251 18.4871 111.122 18.3589 111.122 18.2307C111.122 18.1025 111.251 17.9743 111.38 17.9743C111.509 17.9743 111.638 18.1025 111.638 18.2307Z" fill="#074751"/>
<path d="M101.968 17.9743C101.968 18.1025 101.839 18.1025 101.839 18.1025C101.71 18.1025 101.71 17.9743 101.71 17.9743V16.3076C101.71 16.1794 101.839 16.1794 101.839 16.1794C101.968 16.1794 101.968 16.3076 101.968 16.3076V17.9743Z" fill="#AF0804"/>
<path d="M111.509 18.2307C111.509 18.3589 111.38 18.3589 111.38 18.3589C111.251 18.3589 111.251 18.2307 111.251 18.2307V16.5641C111.251 16.4359 111.251 16.4359 111.38 16.4359C111.509 16.4359 111.509 16.5641 111.509 16.5641V18.2307Z" fill="#AF0804"/>
<path d="M103.128 17.9743C103.128 18.1025 102.999 18.1025 102.999 18.1025C102.87 18.1025 102.87 17.9743 102.87 17.9743V16.3076C102.87 16.1794 102.999 16.1794 102.999 16.1794C103.128 16.1794 103.128 16.3076 103.128 16.3076V17.9743Z" fill="#AF0804"/>
<path d="M104.546 17.9743C104.546 18.1025 104.417 18.1025 104.417 18.1025C104.288 18.1025 104.288 17.9743 104.288 17.9743V16.3076C104.288 16.1794 104.417 16.1794 104.417 16.1794C104.546 16.1794 104.546 16.3076 104.546 16.3076V17.9743Z" fill="#AF0804"/>
<path d="M106.093 17.9743C106.093 18.1025 105.964 18.1025 105.964 18.1025C105.836 18.1025 105.836 17.9743 105.836 17.9743V16.3076C105.836 16.1794 105.964 16.1794 105.964 16.1794C106.093 16.1794 106.093 16.3076 106.093 16.3076V17.9743Z" fill="#AF0804"/>
<path d="M107.383 17.9743C107.383 18.1025 107.254 18.1025 107.254 18.1025C107.125 18.1025 107.125 17.9743 107.125 17.9743V16.3076C107.125 16.1794 107.254 16.1794 107.254 16.1794C107.383 16.1794 107.383 16.3076 107.383 16.3076V17.9743Z" fill="#AF0804"/>
<path d="M108.801 18.1025C108.801 18.2307 108.672 18.2307 108.672 18.2307C108.543 18.2307 108.543 18.1025 108.543 18.1025V16.4359C108.543 16.3076 108.672 16.3076 108.672 16.3076C108.801 16.3076 108.801 16.4359 108.801 16.4359V18.1025Z" fill="#AF0804"/>
<path d="M110.09 17.9743C110.09 18.1025 109.961 18.1025 109.961 18.1025C109.832 18.1025 109.832 17.9743 109.832 17.9743V16.3076C109.832 16.1794 109.961 16.1794 109.961 16.1794C110.09 16.1794 110.09 16.3076 110.09 16.3076V17.9743Z" fill="#AF0804"/>
<path d="M105.964 24L105.191 23.4871L106.222 21.5641L106.48 21.6923L105.964 24Z" fill="#F27525"/>
<path d="M101.194 39.2564C100.936 40.0256 100.162 40.4102 99.6467 40.282C99.002 40.0256 98.7442 39.2564 99.002 38.4871C99.2599 37.7179 100.034 37.3333 100.549 37.4615C101.194 37.7179 101.452 38.4871 101.194 39.2564Z" fill="white"/>
<path d="M103.923 24.7673L99.1269 38.1755L101.192 38.9059L105.988 25.4976L103.923 24.7673Z" fill="#F27525"/>
<path d="M104.526 24.9812L99.7349 38.3908L100.707 38.7342L105.498 25.3245L104.526 24.9812Z" fill="#7964A0"/>
<path d="M99.1179 37.8167L98.9017 38.4206L101.21 39.2374L101.426 38.6335L99.1179 37.8167Z" fill="#5B2003"/>
<path d="M105.964 25.4102L104.03 24.7692L105.32 22.9743L106.222 23.2307L105.964 25.4102Z" fill="#5B2003"/>
<path d="M105.449 25.1538C105.32 25.4102 105.062 25.4102 104.804 25.4102C104.546 25.282 104.417 25.0256 104.546 24.8974C104.675 24.641 104.933 24.641 105.191 24.641C105.449 24.7692 105.578 25.0256 105.449 25.1538Z" fill="#5B2003"/>
<path d="M104.546 24.8974C104.546 25.0256 104.288 25.1538 104.159 25.1538C104.03 25.1538 103.902 24.8974 104.03 24.7692C104.159 24.641 104.288 24.5128 104.417 24.5128C104.546 24.5128 104.546 24.7692 104.546 24.8974Z" fill="#5B2003"/>
<path d="M105.449 25.282C105.449 25.4102 105.449 25.6666 105.578 25.6666C105.707 25.6666 105.964 25.6666 105.964 25.4102C105.964 25.1538 105.964 25.0256 105.836 25.0256C105.707 25.0256 105.578 25.0256 105.449 25.282Z" fill="#5B2003"/>
<path d="M59.2903 100.795H44.5919V80.6666H57.2274L59.2903 83.7436V100.795Z" fill="#CAE8E3"/>
<path d="M57.2274 80.6666L56.4538 83.7436H59.2904L57.2274 80.6666Z" fill="white"/>
<path d="M55.2934 84H48.9756V84.1282H55.2934V84Z" fill="white"/>
<path d="M56.9695 86.6923H46.7838V86.8205H56.9695V86.6923Z" fill="white"/>
<path d="M56.9695 87.4615H46.7838V87.5897H56.9695V87.4615Z" fill="white"/>
<path d="M56.9695 88.1025H46.7838V88.2307H56.9695V88.1025Z" fill="white"/>
<path d="M56.9695 88.8717H46.7838V89H56.9695V88.8717Z" fill="white"/>
<path d="M56.9695 89.641H46.7838V89.7692H56.9695V89.641Z" fill="white"/>
<path d="M56.9695 90.282H46.7838V90.4102H56.9695V90.282Z" fill="white"/>
<path d="M48.9756 98.7435L49.7492 103.359H49.6203L48.8467 98.7435H48.9756Z" fill="#074751"/>
<path d="M49.4914 97.0769L47.9442 96.9487L47.4284 93.3589L50.5228 93.6153L49.4914 97.0769ZM48.4599 96.3076H48.9756L49.7492 94.1282L48.202 94L48.4599 96.3076Z" fill="#023844"/>
<path d="M48.2378 98.8976L47.1291 103.511L47.2545 103.541L48.3632 98.9273L48.2378 98.8976Z" fill="#074751"/>
<path d="M50.5228 98.3589C50.5228 99.3846 49.6203 100.154 48.5888 100.154C47.5574 100.154 46.6548 99.3846 46.6548 98.3589C46.6548 97.3333 47.5574 96.5641 48.5888 96.5641C49.6203 96.5641 50.5228 97.4615 50.5228 98.3589Z" fill="#AF0804"/>
<path d="M49.8782 98.3589C49.8782 99.1282 49.2335 99.641 48.5888 99.641C47.8152 99.641 47.2995 99 47.2995 98.3589C47.2995 97.7179 47.9442 97.0769 48.5888 97.0769C49.2335 97.0769 49.8782 97.7179 49.8782 98.3589Z" fill="#8C0303"/>
<path d="M57.0985 91.3076H51.9411V99H57.0985V91.3076Z" fill="white"/>
<path d="M67.6711 61.1794H40.8528V62.2051H67.6711V61.1794Z" fill="#074751"/>
<path d="M25.5 81.5C36.2696 81.5 45 72.5457 45 61.5C45 50.4543 36.2696 41.5 25.5 41.5C14.7304 41.5 6 50.4543 6 61.5C6 72.5457 14.7304 81.5 25.5 81.5Z" fill="#CAE8E3"/>
<path d="M89.5695 78.2299L88.538 78.2319L88.5791 98.873L89.6106 98.8709L89.5695 78.2299Z" fill="#074751"/>
<path d="M109.315 97.8006L88.5571 97.8933L88.5617 98.9189L109.32 98.8262L109.315 97.8006Z" fill="#074751"/>
<path d="M156 93.5C156 105.698 145.754 115.5 133.109 115.5C120.464 115.5 110 105.698 110 93.5C110 81.302 120.246 71.5 133.109 71.5C145.754 71.5 156 81.302 156 93.5Z" fill="#7964A0"/>
<path d="M134.822 91.5124H115.6V78.3732H129.157L134.822 91.5124Z" fill="#FF9700"/>
<path d="M152 82.1339H115.6V105.673H152V82.1339Z" fill="#FF9700"/>
<path d="M150.097 84.3162H117.504V103.537H150.097V84.3162Z" fill="white"/>
<path d="M152 86.4518H115.6V105.673H152V86.4518Z" fill="#FFBA00"/>
<path d="M133.8 102.284C137.082 102.284 139.743 99.623 139.743 96.3409C139.743 93.0588 137.082 90.3981 133.8 90.3981C130.518 90.3981 127.857 93.0588 127.857 96.3409C127.857 99.623 130.518 102.284 133.8 102.284Z" fill="white"/>
<path d="M133.8 93.2302V98.4765" stroke="#90BAFD" stroke-width="2.36" stroke-miterlimit="10"/>
<path d="M131.943 95.4124L133.8 93.5553L135.657 95.4124V93.8339L133.8 91.9767L131.943 93.8339V95.4124Z" fill="#90BAFD"/>
<path d="M131.34 99.5445H136.261" stroke="#90BAFD" stroke-width="2.5054" stroke-miterlimit="10"/>
<path fill-rule="evenodd" clip-rule="evenodd" d="M45.9703 62.1646C45.9703 65.2345 43.6523 67.7404 40.7704 67.7404H11.1999C8.31802 67.7404 5.99999 65.2345 5.99999 62.1646C5.99999 59.0948 8.31802 56.5888 11.1999 56.5888H40.7704C43.5897 56.5888 45.9703 59.0948 45.9703 62.1646Z" fill="#7964A0"/>
<path fill-rule="evenodd" clip-rule="evenodd" d="M40.6451 55.0853C40.6451 57.466 38.3897 59.4081 35.6331 59.4081H16.2744C13.5178 59.4081 11.2625 57.466 11.2625 55.0853C11.2625 52.7046 13.5178 50.7625 16.2744 50.7625H35.6331C38.3897 50.8252 40.6451 52.7046 40.6451 55.0853Z" fill="#7964A0"/>
<path fill-rule="evenodd" clip-rule="evenodd" d="M32.8143 52.4541C32.8143 56.2757 29.7444 59.4082 25.9855 59.4082C22.2265 59.4082 19.1567 56.2757 19.1567 52.4541C19.1567 48.6325 22.2265 45.5 25.9855 45.5C29.7444 45.5627 32.8143 48.6325 32.8143 52.4541Z" fill="#7964A0"/>
</svg>
