<svg width="163" height="130" viewBox="0 0 163 130" fill="none" xmlns="http://www.w3.org/2000/svg">
<rect width="163" height="130" fill="white"/>
<path d="M127.091 19H21V93.1525H127.091V19Z" fill="#7964A0"/>
<path d="M122.64 22.8559H25.7481V84.9958H122.64V22.8559Z" fill="white"/>
<path d="M122.936 85.2924H25.4514V22.411H123.085V85.2924H122.936ZM26.1933 84.5508H122.343V23.1525H26.1933V84.5508Z" fill="#023547"/>
<path d="M78.5711 88.2585C78.5711 89.4449 76.4938 90.3347 73.9713 90.3347C71.4489 90.3347 69.3716 89.4449 69.3716 88.2585C69.3716 87.072 71.4489 86.1822 73.9713 86.1822C76.4938 86.1822 78.5711 87.2203 78.5711 88.2585Z" fill="white"/>
<path d="M73.823 20.928C73.823 21.2246 73.5262 21.5212 73.0811 21.5212C72.6359 21.5212 72.3392 21.2246 72.3392 20.928C72.3392 20.6314 72.6359 20.3347 73.0811 20.3347C73.5262 20.3347 73.823 20.6314 73.823 20.928Z" fill="white"/>
<path d="M76.9389 20.928C76.9389 21.2246 76.6422 21.5212 76.197 21.5212C75.7519 21.5212 75.4551 21.2246 75.4551 20.928C75.4551 20.6314 75.7519 20.3347 76.197 20.3347C76.6422 20.3347 76.9389 20.6314 76.9389 20.928Z" fill="white"/>
<path d="M80.0548 20.928C80.0548 21.2246 79.7581 21.5212 79.3129 21.5212C78.8678 21.5212 78.571 21.2246 78.571 20.928C78.571 20.6314 78.8678 20.3347 79.3129 20.3347C79.6097 20.3347 80.0548 20.6314 80.0548 20.928Z" fill="white"/>
<path d="M101.421 23.1525H49.6371V84.6991H101.421V23.1525Z" fill="#CAE8E3"/>
<path d="M48.5985 59.9322L50.0823 47.178L38.0636 50.1441L42.3666 52.3687L36.4314 59.1907L39.9925 62.4534L45.9277 55.7797L48.5985 59.9322Z" fill="#022935"/>
<path d="M122.194 23.1525H26.1932V28.1949H122.194V23.1525Z" fill="white"/>
<path d="M109.286 23.1525H108.692V28.3432H109.286V23.1525Z" fill="#7964A0"/>
<path d="M115.963 23.1525H115.369V28.3432H115.963V23.1525Z" fill="#7964A0"/>
<path d="M107.653 24.7839H104.092V25.5254H107.653V24.7839Z" fill="#7964A0"/>
<path d="M113.885 23.7458H110.918V27.1568H113.885V23.7458Z" fill="#7964A0"/>
<path d="M112.402 24.7839H110.027V27.3051H112.402V24.7839Z" fill="white"/>
<path d="M120.414 27.4534L117.298 24.339L117.743 23.8941L120.711 27.0085L120.414 27.4534Z" fill="#7964A0"/>
<path d="M120.859 24.339L117.298 27.6017L117.001 27.1568L120.414 23.8941L120.859 24.339Z" fill="#7964A0"/>
<path d="M96.3765 84.8474C96.6733 72.6864 96.8217 66.3093 92.8154 64.9746C91.9252 64.678 90.293 64.233 88.9576 63.9364L81.0935 61.7119H70.2618L62.2494 63.9364C61.2107 64.233 60.172 64.5296 59.5785 64.678C55.4239 65.8644 55.5723 72.5381 56.0174 84.8474H96.3765Z" fill="#022935"/>
<path d="M81.2418 48.9576H70.4102V63.4915H81.2418V48.9576Z" fill="#D2B18D"/>
<path d="M77.5324 54.2966C77.6807 57.2627 75.7518 60.9703 73.8229 62.8983C74.5648 63.1949 75.455 62.8983 76.1969 63.0466C76.9388 63.0466 77.6807 63.4915 78.571 63.4915C79.1645 63.4915 80.3516 63.6398 80.9451 63.3432C81.687 62.8983 81.2418 62.4534 81.2418 61.4153C81.2418 58.4492 81.2418 55.3347 81.0935 52.2203C80.0548 52.2203 77.0872 52.9619 77.5324 54.4449V54.2966Z" fill="#D2B18D"/>
<path d="M82.874 47.178C82.874 51.1822 78.8678 57.7076 75.7518 57.7076C72.3391 57.7076 68.6296 51.1822 68.6296 47.178C68.6296 43.1737 71.4488 39.3178 75.3067 39.3178C79.3129 39.3178 82.874 43.1737 82.874 47.178Z" fill="#E9CCAA"/>
<path d="M68.3329 46.4364C69.5199 46.8814 69.8167 50.7373 69.2231 50.589C68.1845 50.589 66.1072 45.6949 68.3329 46.4364Z" fill="#E9CCAA"/>
<path d="M82.7256 50.2924C83.3191 50.589 85.5448 45.6949 83.4675 46.4364C82.2805 46.733 81.8353 49.8474 82.7256 50.2924Z" fill="#E9CCAA"/>
<path d="M71.3005 36.0551C74.1197 33.8305 78.571 33.9788 81.0935 36.2034C85.3965 40.2076 83.6159 46.5847 82.874 46.7331C82.2805 45.1017 80.9451 40.2076 78.1259 40.6525C76.9389 40.9492 76.6421 43.6186 75.0099 42.8771C73.6745 42.2839 73.8229 39.7627 71.894 41.0975C71.0037 41.6907 70.1134 42.8771 69.6683 43.9153C69.3715 44.6568 69.3715 46.4364 68.778 46.8814C68.4813 46.7331 66.1072 40.2076 71.3005 36.0551Z" fill="#752A00"/>
<path d="M74.8615 47.6229C74.8615 48.5127 74.268 49.4025 73.3777 49.4025H71.0037C70.2618 49.4025 69.5199 48.661 69.5199 47.6229C69.5199 46.733 69.3715 46.4364 70.2618 46.4364L74.268 47.0297C75.0099 47.0297 74.8615 48.3644 74.8615 47.6229Z" fill="#B4D3E3"/>
<path d="M73.3778 49.5508H71.0037C70.1134 49.5508 69.3715 48.661 69.3715 47.6229C69.3715 47.4746 69.3715 47.3263 69.3715 47.3263C69.3715 46.8813 69.3715 46.733 69.5199 46.5847C69.6683 46.4364 69.965 46.4364 70.2618 46.4364L74.4164 47.0297C74.7132 47.0297 75.0099 47.3263 75.0099 47.7712C75.0099 48.0678 75.0099 48.0678 75.0099 48.2161C75.0099 48.661 74.8615 48.9576 74.5648 49.2542C74.268 49.2542 73.8229 49.5508 73.3778 49.5508ZM70.2618 46.733C70.2618 46.733 69.965 46.733 69.8167 46.733C69.8167 46.733 69.8167 47.0297 69.8167 47.3263C69.8167 47.4746 69.8167 47.4746 69.8167 47.6229C69.8167 48.5127 70.4102 49.1059 71.1521 49.1059H73.5261C73.8229 49.1059 74.1197 48.9576 74.4164 48.661C74.7132 48.3644 74.8615 47.9195 74.8615 47.6229C74.8615 47.4746 74.7132 47.178 74.5648 47.178L70.2618 46.733Z" fill="#583431"/>
<path d="M76.7905 47.6229C76.7905 48.5127 77.384 49.4025 78.2743 49.4025H80.6484C81.3902 49.4025 82.1321 48.661 82.1321 47.6229C82.1321 46.733 82.2805 46.4364 81.3902 46.4364L77.384 47.0297C76.6421 47.0297 76.7905 48.3644 76.7905 47.6229Z" fill="#B4D3E3"/>
<path d="M77.0873 48.9576C76.7905 48.661 76.6421 48.3644 76.6421 47.9195C76.6421 47.9195 76.4937 47.7712 76.6421 47.4746C76.7905 47.0297 76.9389 46.7331 77.2356 46.7331L81.3902 46.1398C81.687 46.1398 81.9838 46.1398 82.1321 46.2881C82.2805 46.4364 82.2805 46.7331 82.2805 47.0297C82.2805 47.178 82.2805 47.178 82.2805 47.3263C82.2805 48.3644 81.5386 49.2542 80.6484 49.2542H78.2743C77.8291 49.5508 77.384 49.2542 77.0873 48.9576ZM77.384 47.178C77.2356 47.178 77.0873 47.4746 77.0873 47.6229C77.0873 48.0678 77.2356 48.3644 77.5324 48.661C77.8291 48.9576 78.1259 49.1059 78.4227 49.1059H80.7967C81.5386 49.1059 82.1321 48.3644 82.1321 47.6229C82.1321 47.4746 82.1321 47.3263 82.1321 47.3263C82.1321 47.0297 82.1321 46.8814 82.1321 46.7331C82.1321 46.7331 81.8354 46.7331 81.687 46.7331L77.384 47.178Z" fill="#583431"/>
<path d="M74.268 48.9576C74.5648 48.661 75.1583 48.2161 75.6034 48.2161C76.3453 48.2161 76.6421 48.661 77.2356 48.9576C76.7904 48.2161 77.0872 47.7712 75.9002 47.6229C74.8615 47.7712 74.7131 48.2161 74.268 48.9576Z" fill="#583431"/>
<path d="M86.2868 79.6568C86.2868 82.178 84.5062 84.1059 82.1322 84.1059H70.1135C67.8878 84.1059 65.9589 82.178 65.9589 79.6568C65.9589 77.1356 67.7394 75.2076 70.1135 75.2076H82.1322C84.5062 75.2076 86.2868 77.1356 86.2868 79.6568Z" fill="#752A00"/>
<path d="M75.3068 76.5424V82.7712L82.5773 79.8051L75.3068 76.5424Z" fill="#591F03"/>
<path d="M155.404 61.9873C155.404 49.3814 145.166 39 132.702 39C120.09 39 110 49.233 110 61.9873C110 69.5508 113.561 76.2246 119.2 80.3771C123.354 90.1653 129.883 106.331 129.883 106.331C129.883 106.331 134.483 106.627 136.115 104.254C139.824 98.9152 142.792 86.0127 145.908 79.1907C151.695 75.1864 155.404 69.8475 155.404 61.9873Z" fill="#FFCF0F"/>
<path d="M137.747 96.6907C136.857 96.839 136.115 96.9873 135.224 97.1356C134.334 97.2839 133.592 96.9873 132.85 96.3941C130.625 96.2458 128.399 96.2458 126.025 95.9492C125.135 99.5085 124.69 103.513 124.69 105.886C124.69 111.076 128.251 115.229 132.554 115.229C136.857 115.229 140.418 111.076 140.418 105.886C140.418 103.661 139.527 100.102 138.044 96.6907C138.044 96.5424 137.895 96.5424 137.747 96.6907Z" fill="#7964A0"/>
<path d="M140.714 94.3178H124.541V98.9152H140.714V94.3178Z" fill="#33C1C2"/>
<path d="M140.714 98.9153H124.541V101.436H140.714V98.9153Z" fill="#7964A0"/>
<path d="M140.714 101.436H124.541V104.254H140.714V101.436Z" fill="#33C1C2"/>
<path d="M144.572 70.589L138.489 61.6907L133.147 69.6992L128.844 61.6907L123.206 69.1059L122.612 68.2161L128.844 60.0593L133.147 68.0678L138.489 60.0593L145.166 69.8475L144.572 70.589Z" fill="white"/>
<path d="M131.07 94.4661C131.218 94.911 130.921 95.5042 130.476 95.6525C130.031 95.8009 129.586 95.5042 129.438 95.0593L120.683 65.1017C120.535 64.6568 120.832 64.0636 121.277 63.9153C121.722 63.767 122.167 64.0636 122.315 64.5085L131.07 94.4661Z" fill="#33C1C2"/>
<path d="M135.224 95.0593C135.076 95.5042 134.483 95.8008 134.037 95.5042C133.592 95.3559 133.444 94.7627 133.592 94.3178L145.166 65.5466C145.314 65.1017 145.908 64.8051 146.353 65.1017C146.798 65.25 146.946 65.8432 146.798 66.2881L135.224 95.0593Z" fill="#33C1C2"/>
</svg>
