<svg width="230" height="130" viewBox="0 0 230 130" fill="none" xmlns="http://www.w3.org/2000/svg">
<rect width="230" height="130" fill="white"/>
<g clip-path="url(#clip0_30_6246)">
<path d="M63.7339 84.2157H32.588C30.5481 84.2157 28.5578 83.1207 27.6124 81.2793C26.5183 79.1395 26.9159 76.6014 28.6074 74.959L50.3006 53.2612H34.7273C30.4483 53.2612 27.0153 49.7774 27.0153 45.547H55.7235C57.7634 45.547 59.7533 46.6421 60.6987 48.4834C61.7935 50.6232 61.3953 53.1614 59.7037 54.8034L38.0109 76.5019H55.9723C60.251 76.5019 63.7339 79.9856 63.7339 84.2157ZM187.024 45C182.546 45 178.566 46.9409 175.779 50.0263C172.993 46.9409 169.013 45 164.535 45C156.276 45 149.51 52.0667 149.51 60.3279V84.2157C153.788 84.2157 157.221 80.732 157.221 76.5019V60.2783C157.221 56.2968 160.306 52.9128 164.286 52.7638C168.466 52.6144 171.899 55.9484 171.899 60.079V76.5019C171.899 80.7819 175.381 84.2157 179.611 84.2157V60.2284C179.611 56.2472 182.695 52.8629 186.675 52.7138C190.855 52.5644 194.288 55.8988 194.288 60.0294V76.452C194.288 80.7323 197.771 84.1658 202 84.1658V60.2786C202.049 52.0667 195.283 45 187.024 45ZM102.741 64.9063C102.741 75.9046 93.8349 84.8126 82.8393 84.8126C71.8437 84.8126 62.9378 75.9046 62.9378 64.9063C62.9378 53.908 71.8437 45 82.8393 45C93.8349 45 102.741 53.908 102.741 64.9063ZM95.0288 64.9063C95.0288 58.188 89.5559 52.7138 82.8393 52.7138C76.1226 52.7138 70.6494 58.188 70.6494 64.9063C70.6494 71.625 76.1226 77.0991 82.8393 77.0991C89.5559 77.0991 95.0288 71.625 95.0288 64.9063ZM145.628 64.9063C145.628 75.9046 136.723 84.8126 125.727 84.8126C114.731 84.8126 105.825 75.9046 105.825 64.9063C105.825 53.908 114.731 45 125.727 45C136.723 45 145.629 53.908 145.629 64.9063M137.917 64.9063C137.917 58.188 132.444 52.7138 125.727 52.7138C119.011 52.7138 113.538 58.188 113.538 64.9063C113.538 71.625 119.011 77.0991 125.727 77.0991C132.444 77.0991 137.917 71.625 137.917 64.9063Z" fill="#0B5CFF"/>
</g>
<defs>
<clipPath id="clip0_30_6246">
<rect width="175" height="40" fill="white" transform="translate(27 45)"/>
</clipPath>
</defs>
</svg>
