<svg width="706" height="587" viewBox="0 0 706 587" fill="none" xmlns="http://www.w3.org/2000/svg">
<path d="M0.277649 404.303H555.675C561.479 404.303 566.196 409.027 566.196 414.839V448.507H0.277649V404.303Z" fill="#494C7F"/>
<path d="M0.277649 430.871H566.196V449.824H0.277649V430.871Z" fill="#2C2858"/>
<path d="M151.264 145.635H174.222V159.292H151.264V145.635Z" fill="#10342D"/>
<path d="M126.047 370.578H194.721L198.323 411.317H121.244L126.047 370.578Z" fill="#7864A0"/>
<path d="M114.01 419.362C113.095 417.988 112.781 415.898 112.781 413.722L121.844 403.988H197.78L206.815 413.722C206.815 416.07 206.443 418.131 205.385 419.362H114.01Z" fill="#ADADAD"/>
<path d="M205.757 414.323L206.786 415.354C206.786 417.702 206.415 419.763 205.357 420.994H114.01C113.095 419.62 112.781 417.53 112.781 415.354L113.639 414.323H205.757Z" fill="#7864A0"/>
<path d="M31.8415 374.385C31.8415 378.164 34.7863 381.256 38.3887 381.256H281.15C284.781 381.256 287.697 378.193 287.697 374.385V166.163C287.697 162.384 284.752 159.292 281.15 159.292H38.3887C34.7577 159.292 31.8415 162.355 31.8415 166.163V374.385Z" fill="#ADADAD"/>
<path d="M151.521 358.61C154.895 358.61 156.353 355.49 155.867 352.798C156.61 352.541 157.411 352.369 158.24 352.369C162.328 352.369 165.645 355.833 165.645 360.128C165.645 364.422 162.328 367.886 158.24 367.886C154.151 367.886 150.835 364.422 150.835 360.128C150.835 359.584 150.892 359.068 150.978 358.553C151.178 358.582 151.349 358.61 151.521 358.61Z" fill="#7864A0"/>
<path d="M146.746 139.165C146.746 148.584 154.037 156.228 163.043 156.228C172.049 156.228 179.339 148.584 179.339 139.165C179.339 129.746 172.049 122.102 163.043 122.102C154.037 122.13 146.746 129.746 146.746 139.165Z" fill="#7864A0"/>
<path d="M151.292 137.304C151.292 145.063 157.296 151.361 164.73 151.361C172.135 151.361 178.167 145.063 178.167 137.304C178.167 129.546 172.163 123.247 164.73 123.247C157.296 123.247 151.292 129.546 151.292 137.304Z" fill="#ADADAD"/>
<path d="M159.755 139.165C159.755 143.202 162.871 146.466 166.702 146.466C170.534 146.466 173.65 143.202 173.65 139.165C173.65 135.128 170.534 131.864 166.702 131.864C162.871 131.893 159.755 135.157 159.755 139.165Z" fill="#10342D"/>
<path d="M282.151 336.909C282.151 340.517 279.349 343.465 275.889 343.465H43.4206C39.9611 343.465 37.1307 340.545 37.1307 336.909V170.972C37.1307 167.365 39.9325 164.445 43.4206 164.445H275.889C279.349 164.445 282.151 167.365 282.151 170.972V336.909Z" fill="#7864A0"/>
<path d="M43.5064 171.545H275.803V335.564H43.5064V171.545Z" fill="white"/>
<path d="M43.5064 171.545H79.7877V335.564H43.5064V171.545Z" fill="white"/>
<path d="M79.7876 185.001V321.049C79.7876 322.995 81.3601 324.599 83.2756 324.599H265.911C267.827 324.599 269.399 323.024 269.399 321.049V185.001C269.399 183.054 267.827 181.451 265.911 181.451H83.2756C81.3601 181.48 79.7876 183.054 79.7876 185.001Z" fill="#D4DEFF"/>
<path d="M51.6546 201.978C51.6546 207.504 55.9146 211.97 61.2039 211.97C66.4645 211.97 70.7244 207.504 70.7244 201.978C70.7244 196.453 66.4645 191.987 61.2039 191.987C55.9432 191.987 51.6546 196.453 51.6546 201.978Z" fill="#D4DEFF"/>
<path d="M46.1652 224.51C46.1652 227.115 48.1951 229.234 50.6825 229.234C53.1698 229.234 55.1998 227.115 55.1998 224.51C55.1998 221.904 53.1698 219.786 50.6825 219.786C48.1951 219.786 46.1652 221.904 46.1652 224.51Z" fill="#D4DEFF"/>
<path d="M74.241 224.51C74.241 225.941 73.4405 227.086 72.4684 227.086H60.9751C60.003 227.086 59.2025 225.941 59.2025 224.51C59.2025 223.078 60.003 221.933 60.9751 221.933H72.4684C73.4405 221.933 74.241 223.107 74.241 224.51Z" fill="#D4DEFF"/>
<path d="M46.1652 239.368C46.1652 241.974 48.1951 244.092 50.6825 244.092C53.1698 244.092 55.1998 241.974 55.1998 239.368C55.1998 236.763 53.1698 234.645 50.6825 234.645C48.1951 234.645 46.1652 236.763 46.1652 239.368Z" fill="#D4DEFF"/>
<path d="M74.241 239.369C74.241 240.8 73.4405 241.945 72.4684 241.945H60.9751C60.003 241.945 59.2025 240.8 59.2025 239.369C59.2025 237.937 60.003 236.792 60.9751 236.792H72.4684C73.4405 236.792 74.241 237.937 74.241 239.369Z" fill="#D4DEFF"/>
<path d="M46.1652 254.227C46.1652 256.833 48.1951 258.951 50.6825 258.951C53.1698 258.951 55.1998 256.833 55.1998 254.227C55.1998 251.622 53.1698 249.503 50.6825 249.503C48.1951 249.503 46.1652 251.593 46.1652 254.227Z" fill="#D4DEFF"/>
<path d="M74.241 254.485C74.241 255.773 73.4405 256.804 72.4684 256.804H60.9751C60.003 256.804 59.2025 255.773 59.2025 254.485C59.2025 253.197 60.003 252.166 60.9751 252.166H72.4684C73.4405 252.166 74.241 253.225 74.241 254.485Z" fill="#D4DEFF"/>
<path d="M46.1652 269.057C46.1652 271.663 48.1951 273.781 50.6825 273.781C53.1698 273.781 55.1998 271.663 55.1998 269.057C55.1998 266.452 53.1698 264.333 50.6825 264.333C48.1951 264.333 46.1652 266.452 46.1652 269.057Z" fill="#D4DEFF"/>
<path d="M74.241 269.057C74.241 270.489 73.4405 271.634 72.4684 271.634H60.9751C60.003 271.634 59.2025 270.489 59.2025 269.057C59.2025 267.626 60.003 266.481 60.9751 266.481H72.4684C73.4405 266.481 74.241 267.626 74.241 269.057Z" fill="#D4DEFF"/>
<path d="M46.1652 283.916C46.1652 286.521 48.1951 288.64 50.6825 288.64C53.1698 288.64 55.1998 286.521 55.1998 283.916C55.1998 281.311 53.1698 279.192 50.6825 279.192C48.1951 279.192 46.1652 281.282 46.1652 283.916Z" fill="#D4DEFF"/>
<path d="M74.241 283.916C74.241 285.347 73.4405 286.492 72.4684 286.492H60.9751C60.003 286.492 59.2025 285.347 59.2025 283.916C59.2025 282.484 60.003 281.339 60.9751 281.339H72.4684C73.4405 281.339 74.241 282.484 74.241 283.916Z" fill="#D4DEFF"/>
<path d="M46.1652 298.116C46.1652 300.722 48.1951 302.84 50.6825 302.84C53.1698 302.84 55.1998 300.722 55.1998 298.116C55.1998 295.511 53.1698 293.392 50.6825 293.392C48.1951 293.392 46.1652 295.511 46.1652 298.116Z" fill="#D4DEFF"/>
<path d="M74.241 298.116C74.241 299.548 73.4405 300.693 72.4684 300.693H60.9751C60.003 300.693 59.2025 299.548 59.2025 298.116C59.2025 296.685 60.003 295.54 60.9751 295.54H72.4684C73.4405 295.54 74.241 296.685 74.241 298.116Z" fill="#D4DEFF"/>
<path d="M58.3733 206.759C57.4584 207.16 57.0296 208.849 57.0296 209.851L56.9724 210.939C58.2876 211.626 59.7456 212.027 61.3181 212.027C62.7191 212.027 64.0628 211.712 65.2636 211.14L65.2064 209.136C65.2064 208.62 64.9491 207.361 63.977 206.788C63.491 206.502 62.7762 206.244 62.1472 206.158C62.1758 206.13 62.1758 206.101 62.1758 206.072L62.0615 204.984C63.3481 204.526 64.7204 203.238 64.9491 201.291L65.0349 199.115C65.0349 196.854 63.2051 195.222 61.0894 195.193C58.9737 195.193 57.1439 196.939 57.1439 199.201L57.3726 201.463C57.6299 203.524 58.9165 204.727 60.1173 205.156L60.0602 206.158C59.4884 206.215 58.9165 206.502 58.3733 206.759Z" fill="#494C7F"/>
<path d="M691.88 263.56C688.077 263.56 665.233 212.17 665.233 212.17C649.08 212.17 525.226 211.455 519.966 213.316C505.67 218.641 502.668 232.669 509.358 244.608C518.622 269.057 532.774 300.578 529.572 326.402C529.257 327.92 528.543 332.042 528.257 333.531C527.914 335.191 526.97 339.343 526.599 341.032C526.599 341.032 471.734 541.295 467.645 554.809C466.073 559.99 627.208 563.913 627.208 563.913C647.965 498.781 704.745 331.326 691.88 263.56Z" fill="#ADADAD"/>
<path d="M606.166 586.358H616.515C618.917 585.184 620.832 583.152 621.747 580.575C621.747 580.575 657.114 473.1 658.372 469.492C673.696 424.029 690.822 378.708 703.259 332.414C710.892 295.253 701.772 257.748 685.933 223.966C674.068 199.974 634.413 216.093 645.535 240.37C653.054 258.35 660.03 276.902 664.833 295.597C667.292 305.989 669.15 316.067 667.521 326.431C665.548 337.739 662.46 350.107 659.715 361.33C646.85 412.52 632.412 463.452 617.63 514.212C614.543 524.747 608.596 547.308 604.164 563.168C602.906 567.72 601.763 571.729 600.848 574.735C599.418 579.344 601.734 584.154 606.166 586.358Z" fill="#7864A0"/>
<path d="M276.69 579.945V581.52C276.69 583.18 276.833 584.812 277.09 586.387H610.654C610.94 584.812 611.054 583.18 611.054 581.52V579.945C611.054 572.788 608.453 566.26 604.107 561.221C598.846 555.123 591.07 551.258 582.378 551.258H305.337C289.498 551.23 276.69 564.084 276.69 579.945Z" fill="#7864A0"/>
<path d="M367.006 308.394C367.006 308.394 375.241 391.935 409.006 421.252C415.611 427.006 433.737 429.554 441.885 426.376C467.487 416.481 474.651 408.915 474.707 408.856C474.66 409.049 460.805 466.711 457.038 481.03C478.032 495.361 600.195 536.239 600.419 536.314C600.43 536.289 608.263 519.19 614.635 492.993C633.113 492 649.439 489.795 659.487 485.611C691.668 377.518 619.371 325.095 586.903 317.107C586.901 317.103 586.898 317.101 586.895 317.098C555.713 317.783 540.473 317.442 540.408 317.441C502.926 320.79 480.11 324.885 434.508 375.13C420.07 343.695 387.992 303.326 387.992 303.326L367.006 308.394Z" fill="#327AAD"/>
<mask id="mask0_256_9375" style="mask-type:alpha" maskUnits="userSpaceOnUse" x="367" y="303" width="301" height="234">
<path d="M367 308.394C367 308.394 375.235 391.936 409 421.252C415.605 427.007 433.731 429.554 441.879 426.376C467.582 416.442 474.7 408.855 474.7 408.855C474.7 408.855 460.805 466.687 457.031 481.031C478.031 495.364 600.241 536.257 600.412 536.314C600.412 536.314 608.252 519.209 614.629 492.994C633.107 492 649.433 489.796 659.481 485.612C691.662 377.518 619.364 325.096 586.897 317.107C586.894 317.104 586.891 317.101 586.889 317.098C555.722 317.783 540.482 317.443 540.402 317.441C502.92 320.791 480.104 324.885 434.502 375.129C420.064 343.694 387.986 303.327 387.986 303.327L367 308.394Z" fill="#327AAD"/>
</mask>
<g mask="url(#mask0_256_9375)">
<g style="mix-blend-mode:screen">
<g opacity="0.7">
<path d="M516.421 505.302L549.551 504.971H550.131L512.693 446.622L516.421 505.302ZM517.042 504.639L513.522 448.986L549.013 504.307L517.042 504.639Z" fill="#8FF1DF"/>
<path d="M517.125 506.09L513.439 447.825V447.534L475.049 447.078L517.125 506.09ZM476.25 447.7L512.818 448.115L516.338 503.892L476.25 447.7Z" fill="#8FF1DF"/>
<path d="M464.157 491.7L464.074 491.99L517.497 505.468L475.504 446.581L464.157 491.7ZM475.753 448.115L515.965 504.473L464.861 491.576L475.753 448.115Z" fill="#8FF1DF"/>
<path d="M406.799 502.441L464.488 492.115L465.275 491.99L427.175 466.072L406.799 502.441ZM408.042 501.57L427.382 466.984L463.618 491.617L408.042 501.57Z" fill="#8FF1DF"/>
<path d="M464.488 492.944L475.918 447.452L476.001 447.161L447.053 439.323L464.488 492.944ZM448.047 440.236L475.256 447.576L464.447 490.622L448.047 440.236Z" fill="#8FF1DF"/>
<path d="M465.027 492.571L447.674 439.116L427.009 466.362L426.802 466.611L465.027 492.571ZM427.754 466.445L447.467 440.443L463.867 490.995L427.754 466.445Z" fill="#8FF1DF"/>
<path d="M407.255 502.234L407.545 502.441L428.169 465.616L388.991 489.129L407.255 502.234ZM390.11 489.212L426.388 467.399L407.296 501.529L390.11 489.212Z" fill="#8FF1DF"/>
<path d="M427.299 467.025L447.798 439.987L448.13 439.572L392.636 431.361L427.299 467.025ZM427.257 466.03L394.417 432.232L446.97 439.987L427.257 466.03Z" fill="#8FF1DF"/>
<path d="M475.173 447.7L513.107 448.156H513.522L497.826 384.292L475.173 447.7ZM476.084 447.037L497.743 386.449L512.693 447.493L476.084 447.037Z" fill="#8FF1DF"/>
<path d="M475.835 447.742L498.074 385.495L497.536 385.163L447.301 439.572L446.929 439.945L475.835 447.742ZM448.171 439.614L496.956 386.739L475.421 446.995L448.171 439.614Z" fill="#8FF1DF"/>
<path d="M447.84 440.153L451.112 402.995L393.381 431.485L392.47 431.942L447.84 440.153ZM394.582 431.61L450.366 404.032L447.26 439.406L394.582 431.61Z" fill="#8FF1DF"/>
<path d="M427.216 466.86L428.21 467.067L393.547 431.403L361.948 453.962L427.216 466.86ZM363.563 453.589L393.505 432.191L426.346 465.989L363.563 453.589Z" fill="#8FF1DF"/>
<path d="M392.967 432.439L450.904 403.825L451.443 403.576L412.39 380.394L392.967 432.439ZM394.127 431.154L412.68 381.307L450.076 403.493L394.127 431.154Z" fill="#8FF1DF"/>
<path d="M393.712 432.273L413.135 380.187L358.47 407.848L357.973 408.096L393.712 432.273ZM359.174 408.138L411.934 381.473L393.381 431.278L359.174 408.138Z" fill="#8FF1DF"/>
<path d="M389.447 489.627L428.127 466.404L362.818 453.465L361.99 453.299L389.447 489.627ZM389.613 488.756L363.522 454.211L426.429 466.652L389.613 488.756Z" fill="#8FF1DF"/>
<path d="M362.487 454.336L394.085 431.776L358.718 407.848L358.18 407.474L362.487 454.336ZM363.025 453.175L358.925 408.719L392.967 431.776L363.025 453.175Z" fill="#8FF1DF"/>
<path d="M358.304 407.93L358.718 408.387L413.301 380.809L385.968 369.653L385.72 369.571L358.304 407.93ZM359.588 407.225L385.968 370.317L411.769 380.85L359.588 407.225Z" fill="#8FF1DF"/>
<path d="M450.449 403.991L497.909 385.703L498.82 385.329L449.621 372.432L450.449 403.991ZM451.07 403.079L450.283 373.262L496.749 385.454L451.07 403.079Z" fill="#8FF1DF"/>
<path d="M451.07 404.074L450.242 372.432L412.431 380.519L411.645 380.685L451.07 404.074ZM413.384 380.975L449.662 373.22L450.408 402.954L413.384 380.975Z" fill="#8FF1DF"/>
<path d="M449.662 373.096L497.702 385.703L497.992 385.163L446.018 339.173L449.662 373.096ZM450.242 372.557L446.805 340.707L496.584 384.749L450.242 372.557Z" fill="#8FF1DF"/>
<path d="M450.283 373.096L446.639 339.215L412.266 380.643L411.686 381.348L450.283 373.096ZM413.342 380.311L446.183 340.749L449.621 372.598L413.342 380.311Z" fill="#8FF1DF"/>
<path d="M412.142 381.763L446.929 339.795L414.751 329.22L414.336 329.096L412.142 381.763ZM412.887 379.897L414.958 330.008L445.852 340.127L412.887 379.897Z" fill="#8FF1DF"/>
<path d="M497.577 385.62L498.074 386.034L501.139 330.589L445.686 339.712L497.577 385.62ZM447.136 340.168L500.476 331.377L497.536 384.707L447.136 340.168Z" fill="#8FF1DF"/>
<path d="M512.818 447.866L513.025 448.696L533.732 406.977L497.288 384.707L512.818 447.866ZM498.282 386.034L532.903 407.225L513.232 446.871L498.282 386.034Z" fill="#8FF1DF"/>
<path d="M595.81 514.26L595.934 515.048L617.635 484.692L586.658 444.01L595.81 514.26ZM587.569 446.29L616.807 484.733L596.348 513.389L587.569 446.29Z" fill="#8FF1DF"/>
<path d="M587.652 445.834L577.008 401.71L533.276 406.811L532.448 406.894L587.652 445.834ZM534.187 407.35L576.512 402.415L586.616 444.341L534.187 407.35Z" fill="#8FF1DF"/>
<path d="M616.973 484.816L617.47 485.438L622.232 443.802L586.492 444.756L616.973 484.816ZM587.776 445.378L621.528 444.466L617.014 483.821L587.776 445.378Z" fill="#8FF1DF"/>
<path d="M587.03 446.042L611.837 394.411L576.718 401.71L576.387 401.793L587.03 446.042ZM577.133 402.291L610.677 395.324L587.237 444.134L577.133 402.291Z" fill="#8FF1DF"/>
<path d="M586.617 445.419L621.901 444.466H622.274L611.382 393.914L586.617 445.419ZM587.652 444.756L611.133 395.863L621.487 443.844L587.652 444.756Z" fill="#8FF1DF"/>
<path d="M621.776 445.129L636.602 414.4L611.464 394.619L610.76 394.08L621.776 445.129ZM611.754 395.655L635.816 414.566L621.983 443.139L611.754 395.655Z" fill="#8FF1DF"/>
<path d="M532.862 407.474L576.801 402.332L577.795 402.208L541.31 382.136L532.862 407.474ZM533.773 406.728L541.641 383.09L575.725 401.834L533.773 406.728Z" fill="#8FF1DF"/>
<path d="M533.483 407.599L541.931 382.302L497.785 385.081L496.791 385.122L533.483 407.599ZM498.82 385.62L541.02 382.966L533.152 406.603L498.82 385.62Z" fill="#8FF1DF"/>
<path d="M497.412 386.449L518.905 356.632L501.056 330.838L500.518 330.091L497.412 386.449ZM498.157 384.293L501.056 331.916L518.119 356.59L498.157 384.293Z" fill="#8FF1DF"/>
<path d="M541.476 382.966L542.138 382.924L518.491 356.134L497.122 385.786L541.476 382.966ZM498.447 384.998L518.574 357.088L540.813 382.302L498.447 384.998Z" fill="#8FF1DF"/>
<path d="M445.894 340.376L500.849 331.294L500.891 330.672L455.46 315.659L445.894 340.376ZM446.887 339.546L455.833 316.447L499.483 330.879L446.887 339.546Z" fill="#8FF1DF"/>
<path d="M446.597 340.376L456.205 315.577L414.585 329.262L413.674 329.552L446.597 340.376ZM415.703 329.552L455.129 316.572L446.225 339.546L415.703 329.552Z" fill="#8FF1DF"/>
<path d="M455.17 316.24L500.684 331.294L501.719 331.625L470.038 293.39L455.17 316.24ZM456.123 315.908L470.12 294.468L499.855 330.34L456.123 315.908Z" fill="#8FF1DF"/>
<path d="M500.559 331.211L500.973 331.75L506.564 302.389L469.251 293.39L500.559 331.211ZM470.949 294.468L505.86 302.845L500.642 330.298L470.949 294.468Z" fill="#8FF1DF"/>
<path d="M518.284 356.798L518.408 356.964L543.464 349.955L499.897 330.174L518.284 356.798ZM501.719 331.75L541.6 349.831L518.698 356.217L501.719 331.75Z" fill="#8FF1DF"/>
<path d="M541.227 382.841L541.766 383.463L542.843 349.499L517.953 356.425L541.227 382.841ZM519.113 356.798L542.18 350.37L541.186 381.846L519.113 356.798Z" fill="#8FF1DF"/>
<path d="M576.594 402.332L577.008 401.876L559.698 375.252L540.73 382.592L576.594 402.332ZM542.221 382.675L559.449 376.04L575.807 401.171L542.221 382.675Z" fill="#8FF1DF"/>
<path d="M541.144 383.09L560.07 375.791L542.801 349.748L542.263 348.918L541.144 383.09ZM541.807 382.177L542.801 350.95L559.077 375.501L541.807 382.177Z" fill="#8FF1DF"/>
<path d="M576.594 402.415L611.299 395.199L612.375 394.992L558.745 375.045L576.594 402.415ZM576.884 401.669L560.36 376.247L610.098 394.785L576.884 401.669Z" fill="#8FF1DF"/>
<path d="M636.023 414.732L636.644 415.229L632.047 382.053L610.719 394.826L636.023 414.732ZM611.796 394.909L631.55 383.09L635.774 413.736L611.796 394.909Z" fill="#8FF1DF"/>
<path d="M610.968 394.95L611.092 395.365L632.337 382.675L599.496 345.767L598.958 346.057L610.968 394.95ZM599.827 347.094L631.302 382.468L611.465 394.328L599.827 347.094Z" fill="#8FF1DF"/>
<path d="M611.713 395.365L599.827 345.891L559.366 375.376L558.869 375.708L611.713 395.365ZM560.236 375.542L599.413 346.969L610.802 394.37L560.236 375.542Z" fill="#8FF1DF"/>
<path d="M631.923 383.214L640.868 356.093L640.992 355.761L598.709 345.891L631.923 383.214ZM600.531 346.969L640.164 356.259L631.633 381.97L600.531 346.969Z" fill="#8FF1DF"/>
<path d="M559.491 376.081L600.697 346.057L542.47 349.624L541.931 349.665L559.491 376.081ZM559.656 375.211L543.091 350.204L598.585 346.804L559.656 375.211Z" fill="#8FF1DF"/>
<path d="M500.476 330.921L500.808 330.962L500.683 330.713L500.808 331.003L500.476 330.921L500.352 331.501L531.205 317.899L505.984 302.057L500.476 330.921ZM506.44 303.094L529.88 317.816L501.222 330.464L506.44 303.094Z" fill="#8FF1DF"/>
<path d="M542.387 350.204L543.091 350.536L530.708 317.443L500.021 331.003L542.387 350.204ZM501.594 331.003L530.377 318.314L541.973 349.333L501.594 331.003Z" fill="#8FF1DF"/>
<path d="M599.662 346.762L600.614 346.721L568.146 324.866L541.683 350.328L599.662 346.762ZM543.339 349.541L568.188 325.654L598.668 346.181L543.339 349.541Z" fill="#8FF1DF"/>
<path d="M640.495 356.3L640.744 355.72L608.897 332.911L599.04 346.181L598.751 346.555L640.495 356.3ZM599.827 346.181L609.021 333.823L639.087 355.346L599.827 346.181Z" fill="#8FF1DF"/>
<path d="M568.146 325.239L568.187 324.907L567.939 325.488L599.33 346.803L609.518 333.16L568.187 324.949L568.146 325.239ZM599.206 345.933L569.637 325.861L608.4 333.574L599.206 345.933Z" fill="#8FF1DF"/>
<path d="M542.387 350.494L568.809 325.073L530.584 317.567L530.046 317.443L542.387 350.494ZM542.635 349.375L531.04 318.314L567.483 325.488L542.635 349.375Z" fill="#8FF1DF"/>
<path d="M512.817 447.659L512.652 447.991L557.71 464.869L533.317 406.355L512.817 447.659ZM533.276 407.889L556.591 463.749L513.563 447.659L533.276 407.889Z" fill="#8FF1DF"/>
<path d="M596.1 514.467L597.135 514.675L568.519 486.06L548.93 504.846L596.1 514.467ZM550.214 504.473L568.477 486.973L595.148 513.638L550.214 504.473Z" fill="#8FF1DF"/>
<path d="M556.84 464.413L557.006 464.744L587.693 445.088L532.572 406.23L556.84 464.413ZM534.021 408.013L586.575 445.088L557.296 463.832L534.021 408.013Z" fill="#8FF1DF"/>
<path d="M549.758 505.468L557.544 464.081L513.273 447.493L512.362 447.161L549.758 505.468ZM513.894 448.447L556.799 464.496L549.427 503.809L513.894 448.447Z" fill="#8FF1DF"/>
<path d="M568.519 487.263L587.859 444.258L556.964 464.04L556.716 464.205L568.519 487.263ZM557.585 464.413L586.409 445.917L568.477 485.77L557.585 464.413Z" fill="#8FF1DF"/>
<path d="M549.261 504.597L549.096 505.593L568.891 486.599L557.006 463.335L549.261 504.597ZM557.296 465.284L568.105 486.475L550.048 503.768L557.296 465.284Z" fill="#8FF1DF"/>
</g>
<path d="M599.247 362.523C590.326 362.523 583.094 355.281 583.094 346.347C583.094 337.414 590.326 330.172 599.247 330.172C608.169 330.172 615.401 337.414 615.401 346.347C615.401 355.281 608.169 362.523 599.247 362.523Z" fill="url(#paint0_radial_256_9375)"/>
<path d="M599.301 349.819C597.357 349.819 595.781 348.24 595.781 346.294C595.781 344.347 597.357 342.769 599.301 342.769C601.245 342.769 602.821 344.347 602.821 346.294C602.821 348.24 601.245 349.819 599.301 349.819Z" fill="#8FF1DF"/>
<path d="M639.626 359.618C637.681 359.618 636.105 358.04 636.105 356.093C636.105 354.146 637.681 352.568 639.626 352.568C641.57 352.568 643.146 354.146 643.146 356.093C643.146 358.04 641.57 359.618 639.626 359.618Z" fill="#8FF1DF"/>
<path d="M631.343 385.329C629.399 385.329 627.823 383.751 627.823 381.804C627.823 379.858 629.399 378.279 631.343 378.279C633.287 378.279 634.863 379.858 634.863 381.804C634.863 383.751 633.287 385.329 631.343 385.329Z" fill="#8FF1DF"/>
<path d="M610.636 397.77C608.692 397.77 607.116 396.192 607.116 394.245C607.116 392.299 608.692 390.72 610.636 390.72C612.58 390.72 614.156 392.299 614.156 394.245C614.156 396.192 612.58 397.77 610.636 397.77Z" fill="#8FF1DF"/>
<path d="M567.98 328.93C566.036 328.93 564.46 327.352 564.46 325.405C564.46 323.458 566.036 321.88 567.98 321.88C569.924 321.88 571.5 323.458 571.5 325.405C571.5 327.352 569.924 328.93 567.98 328.93Z" fill="#8FF1DF"/>
<path d="M542.304 352.983C540.36 352.983 538.784 351.404 538.784 349.458C538.784 347.511 540.36 345.933 542.304 345.933C544.248 345.933 545.824 347.511 545.824 349.458C545.824 351.404 544.248 352.983 542.304 352.983Z" fill="#8FF1DF"/>
<path d="M560.526 379.524C558.582 379.524 557.006 377.945 557.006 375.999C557.006 374.052 558.582 372.474 560.526 372.474C562.47 372.474 564.046 374.052 564.046 375.999C564.046 377.945 562.47 379.524 560.526 379.524Z" fill="#8FF1DF"/>
<path d="M540.647 384.915C538.703 384.915 537.127 383.336 537.127 381.39C537.127 379.443 538.703 377.865 540.647 377.865C542.591 377.865 544.167 379.443 544.167 381.39C544.167 383.336 542.591 384.915 540.647 384.915Z" fill="#8FF1DF"/>
<path d="M518.698 359.618C516.754 359.618 515.178 358.04 515.178 356.093C515.178 354.146 516.754 352.568 518.698 352.568C520.642 352.568 522.218 354.146 522.218 356.093C522.218 358.04 520.642 359.618 518.698 359.618Z" fill="#8FF1DF"/>
<path d="M500.476 333.492C498.532 333.492 496.956 331.913 496.956 329.967C496.956 328.02 498.532 326.442 500.476 326.442C502.42 326.442 503.996 328.02 503.996 329.967C503.996 331.913 502.42 333.492 500.476 333.492Z" fill="#8FF1DF"/>
<path d="M577.505 405.65C575.561 405.65 573.985 404.071 573.985 402.125C573.985 400.178 575.561 398.6 577.505 398.6C579.449 398.6 581.026 400.178 581.026 402.125C581.026 404.071 579.449 405.65 577.505 405.65Z" fill="#8FF1DF"/>
<path d="M587.445 448.613C585.501 448.613 583.925 447.035 583.925 445.088C583.925 443.141 585.501 441.563 587.445 441.563C589.389 441.563 590.965 443.141 590.965 445.088C590.965 447.035 589.389 448.613 587.445 448.613Z" fill="#8FF1DF"/>
<path d="M621.694 459.895C612.772 459.895 605.54 452.653 605.54 443.719C605.54 434.786 612.772 427.543 621.694 427.543C630.615 427.543 637.847 434.786 637.847 443.719C637.847 452.653 630.615 459.895 621.694 459.895Z" fill="url(#paint1_radial_256_9375)"/>
<path d="M621.747 447.19C619.803 447.19 618.227 445.612 618.227 443.665C618.227 441.719 619.803 440.14 621.747 440.14C623.691 440.14 625.267 441.719 625.267 443.665C625.267 445.612 623.691 447.19 621.747 447.19Z" fill="#8FF1DF"/>
<path d="M636.023 417.095C634.079 417.095 632.503 415.517 632.503 413.57C632.503 411.624 634.079 410.045 636.023 410.045C637.967 410.045 639.543 411.624 639.543 413.57C639.543 415.517 637.967 417.095 636.023 417.095Z" fill="#8FF1DF"/>
<path d="M496.625 401.298C487.703 401.298 480.471 394.056 480.471 385.122C480.471 376.188 487.703 368.946 496.625 368.946C505.546 368.946 512.778 376.188 512.778 385.122C512.778 394.056 505.546 401.298 496.625 401.298Z" fill="url(#paint2_radial_256_9375)"/>
<path d="M496.678 388.593C494.734 388.593 493.158 387.015 493.158 385.068C493.158 383.121 494.734 381.543 496.678 381.543C498.623 381.543 500.199 383.121 500.199 385.068C500.199 387.015 498.623 388.593 496.678 388.593Z" fill="#8FF1DF"/>
<path d="M534.073 422.884C525.152 422.884 517.92 415.642 517.92 406.708C517.92 397.775 525.152 390.532 534.073 390.532C542.995 390.532 550.227 397.775 550.227 406.708C550.227 415.642 542.995 422.884 534.073 422.884Z" fill="url(#paint3_radial_256_9375)"/>
<path d="M534.127 410.179C532.183 410.179 530.607 408.601 530.607 406.654C530.607 404.708 532.183 403.13 534.127 403.13C536.071 403.13 537.647 404.708 537.647 406.654C537.647 408.601 536.071 410.179 534.127 410.179Z" fill="#8FF1DF"/>
<path d="M512.611 451.682C510.666 451.682 509.09 450.103 509.09 448.157C509.09 446.21 510.666 444.632 512.611 444.632C514.555 444.632 516.131 446.21 516.131 448.157C516.131 450.103 514.555 451.682 512.611 451.682Z" fill="#8FF1DF"/>
<path d="M557.627 480.091C548.706 480.091 541.473 472.849 541.473 463.915C541.473 454.982 548.706 447.74 557.627 447.74C566.548 447.74 573.781 454.982 573.781 463.915C573.781 472.849 566.548 480.091 557.627 480.091Z" fill="url(#paint4_radial_256_9375)"/>
<path d="M557.681 467.386C555.736 467.386 554.16 465.808 554.16 463.862C554.16 461.915 555.736 460.337 557.681 460.337C559.625 460.337 561.201 461.915 561.201 463.862C561.201 465.808 559.625 467.386 557.681 467.386Z" fill="#8FF1DF"/>
<path d="M568.684 489.253C566.74 489.253 565.164 487.675 565.164 485.728C565.164 483.782 566.74 482.203 568.684 482.203C570.628 482.203 572.204 483.782 572.204 485.728C572.204 487.675 570.628 489.253 568.684 489.253Z" fill="#8FF1DF"/>
<path d="M617.801 488.424C615.857 488.424 614.281 486.846 614.281 484.899C614.281 482.952 615.857 481.374 617.801 481.374C619.745 481.374 621.321 482.952 621.321 484.899C621.321 486.846 619.745 488.424 617.801 488.424Z" fill="#8FF1DF"/>
<path d="M595.727 517.743C593.783 517.743 592.207 516.165 592.207 514.218C592.207 512.271 593.783 510.693 595.727 510.693C597.671 510.693 599.247 512.271 599.247 514.218C599.247 516.165 597.671 517.743 595.727 517.743Z" fill="#8FF1DF"/>
<path d="M549.344 508.329C547.4 508.329 545.824 506.751 545.824 504.805C545.824 502.858 547.4 501.28 549.344 501.28C551.288 501.28 552.864 502.858 552.864 504.805C552.864 506.751 551.288 508.329 549.344 508.329Z" fill="#8FF1DF"/>
<path d="M516.752 507.251C514.808 507.251 513.232 505.673 513.232 503.726C513.232 501.78 514.808 500.201 516.752 500.201C518.696 500.201 520.272 501.78 520.272 503.726C520.272 505.673 518.696 507.251 516.752 507.251Z" fill="#8FF1DF"/>
<path d="M474.8 451.101C472.856 451.101 471.28 449.523 471.28 447.576C471.28 445.629 472.856 444.051 474.8 444.051C476.744 444.051 478.32 445.629 478.32 447.576C478.32 449.523 476.744 451.101 474.8 451.101Z" fill="#8FF1DF"/>
<path d="M448.295 443.636C446.351 443.636 444.775 442.058 444.775 440.111C444.775 438.165 446.351 436.586 448.295 436.586C450.24 436.586 451.816 438.165 451.816 440.111C451.816 442.058 450.24 443.636 448.295 443.636Z" fill="#8FF1DF"/>
<path d="M464.861 495.059C462.917 495.059 461.341 493.481 461.341 491.534C461.341 489.588 462.917 488.009 464.861 488.009C466.805 488.009 468.381 489.588 468.381 491.534C468.381 493.481 466.805 495.059 464.861 495.059Z" fill="#8FF1DF"/>
<path d="M426.76 470.758C424.816 470.758 423.24 469.18 423.24 467.233C423.24 465.286 424.816 463.708 426.76 463.708C428.704 463.708 430.281 465.286 430.281 467.233C430.281 469.18 428.704 470.758 426.76 470.758Z" fill="#8FF1DF"/>
<path d="M407.71 504.473C405.766 504.473 404.19 502.895 404.19 500.948C404.19 499.001 405.766 497.423 407.71 497.423C409.654 497.423 411.23 499.001 411.23 500.948C411.23 502.895 409.654 504.473 407.71 504.473Z" fill="#8FF1DF"/>
<path d="M390.027 492.032C388.083 492.032 386.507 490.454 386.507 488.507C386.507 486.56 388.083 484.982 390.027 484.982C391.971 484.982 393.547 486.56 393.547 488.507C393.547 490.454 391.971 492.032 390.027 492.032Z" fill="#8FF1DF"/>
<path d="M393.34 434.803C391.396 434.803 389.82 433.225 389.82 431.278C389.82 429.331 391.396 427.753 393.34 427.753C395.284 427.753 396.86 429.331 396.86 431.278C396.86 433.225 395.284 434.803 393.34 434.803Z" fill="#8FF1DF"/>
<path d="M451.608 406.894C449.664 406.894 448.088 405.315 448.088 403.369C448.088 401.422 449.664 399.844 451.608 399.844C453.553 399.844 455.129 401.422 455.129 403.369C455.129 405.315 453.553 406.894 451.608 406.894Z" fill="#8FF1DF"/>
<path d="M409.698 380.975C409.698 382.924 411.272 384.5 413.218 384.5C415.165 384.5 416.738 382.924 416.738 380.975C416.738 379.026 415.165 377.45 413.218 377.45C411.272 377.45 409.698 379.026 409.698 380.975Z" fill="#8FF1DF"/>
<path d="M386.175 386.368C377.254 386.368 370.022 379.126 370.022 370.193C370.022 361.259 377.254 354.017 386.175 354.017C395.097 354.017 402.329 361.259 402.329 370.193C402.329 379.126 395.097 386.368 386.175 386.368Z" fill="url(#paint5_radial_256_9375)"/>
<path d="M386.229 373.664C384.285 373.664 382.709 372.086 382.709 370.139C382.709 368.192 384.285 366.614 386.229 366.614C388.173 366.614 389.749 368.192 389.749 370.139C389.749 372.086 388.173 373.664 386.229 373.664Z" fill="#8FF1DF"/>
<path d="M449.952 376.745C448.008 376.745 446.432 375.167 446.432 373.22C446.432 371.273 448.008 369.695 449.952 369.695C451.896 369.695 453.472 371.273 453.472 373.22C453.472 375.167 451.896 376.745 449.952 376.745Z" fill="#8FF1DF"/>
<path d="M446.349 342.739C444.405 342.739 442.829 341.161 442.829 339.214C442.829 337.268 444.405 335.689 446.349 335.689C448.293 335.689 449.869 337.268 449.869 339.214C449.869 341.161 448.293 342.739 446.349 342.739Z" fill="#8FF1DF"/>
<path d="M414.875 333.077C412.931 333.077 411.355 331.499 411.355 329.552C411.355 327.605 412.931 326.027 414.875 326.027C416.819 326.027 418.395 327.605 418.395 329.552C418.395 331.499 416.819 333.077 414.875 333.077Z" fill="#8FF1DF"/>
<path d="M455.46 320.055C453.516 320.055 451.94 318.477 451.94 316.53C451.94 314.583 453.516 313.005 455.46 313.005C457.404 313.005 458.98 314.583 458.98 316.53C458.98 318.477 457.404 320.055 455.46 320.055Z" fill="#8FF1DF"/>
<path d="M505.736 306.246C503.792 306.246 502.216 304.668 502.216 302.721C502.216 300.774 503.792 299.196 505.736 299.196C507.68 299.196 509.256 300.774 509.256 302.721C509.256 304.668 507.68 306.246 505.736 306.246Z" fill="#8FF1DF"/>
<path d="M531.412 321.714C529.468 321.714 527.892 320.136 527.892 318.189C527.892 316.242 529.468 314.664 531.412 314.664C533.356 314.664 534.932 316.242 534.932 318.189C534.932 320.136 533.356 321.714 531.412 321.714Z" fill="#8FF1DF"/>
</g>
</g>
<path d="M326.943 551.535H308.874V468.338H326.943V551.535Z" fill="#7864A0"/>
<path d="M534.775 442.094H305.337C289.498 442.094 276.69 454.949 276.69 470.781V471.239V480.887C276.69 487.042 281.693 492.053 287.84 492.053C293.987 492.053 298.99 487.042 298.99 480.887C298.99 475.562 303.307 471.239 308.625 471.239H534.775V442.094Z" fill="#ADADAD"/>
<path d="M355.285 282.714C358.115 294.996 369.037 311 369.037 311L387.478 305.417L388.392 297.744C388.392 297.744 397.684 290.415 395.369 274.411C393.081 258.608 387.42 256.203 387.42 256.203C387.42 256.203 384.418 258.55 388.049 269.888C386.477 275.728 384.819 276.902 384.819 276.902L382.646 268.628C382.646 268.628 381.045 260.497 380.073 251.794C381.559 244.951 383.361 235.189 378.815 234.33C377.385 237.479 376.013 242.174 374.812 249.589C374.498 253.34 374.812 259.466 374.926 264.563C373.926 260.297 372.811 254.914 372.353 250.219C375.069 239.712 375.984 229.32 371.61 230.665C370.809 233.729 367.807 242.203 366.95 249.675C366.921 257.062 367.121 263.389 367.121 264.706C364.519 258.693 364.519 255.086 364.262 251.565C364.777 245.839 365.777 240.027 365.006 236.906C364.262 234.015 362.575 231.61 361.317 236.219C360.488 239.197 358.458 246.469 358.43 251.593C358.401 256.002 358.887 261.528 360.431 267.54C353.112 254.657 357.829 246.268 353.255 244.55C351.94 246.411 350.453 252.252 351.082 258.693C351.825 266.738 354.113 277.532 355.285 282.714Z" fill="#F2B39D"/>
<path d="M383.961 277.503C383.961 277.503 371.524 277.303 375.327 295.253C372.21 290.873 367.15 274.64 383.961 277.503Z" fill="#DE623C"/>
<path d="M296.789 586.358H409.549C421.214 582.092 433.794 577.426 446.031 572.845C452.206 570.526 458.296 568.236 464.1 566.031C479.481 560.162 492.948 554.866 501.325 551.23C503.926 550.113 506.013 549.14 507.529 548.367C527.999 537.917 560.421 495.689 560.421 495.689L437.768 484.638C437.768 484.638 435.967 485.611 432.736 487.357C414.181 497.435 349.138 532.85 317.46 551.23C307.053 557.271 300.248 561.479 299.877 562.338C299.562 563.082 298.418 572.158 296.789 586.358Z" fill="#062440"/>
<path d="M354.742 586.358H512.332C531.545 579 547.498 572.645 553.702 569.467C560.564 565.974 568.769 558.988 576.632 551.23C592.271 535.856 606.652 517.504 606.652 517.504C606.652 517.504 556.247 475.734 501.182 470.122C458.067 465.742 438.997 480.658 432.736 487.357C430.992 489.218 430.249 490.421 430.249 490.421L448.432 514.269L449.948 516.245C449.948 516.245 448.518 517.275 446.002 519.079C438.197 524.662 419.928 537.803 401.515 551.23C382.017 565.487 362.289 580.06 354.742 586.358Z" fill="#2C2858"/>
<path d="M547.212 289.814L545.268 326.803C545.268 326.803 550.872 335.735 566.768 331.098C578.49 327.691 579.519 319.073 579.519 319.073L576.546 269.515L547.212 289.814Z" fill="#F2B39D"/>
<path d="M446.002 514.298H464.071V586.387H446.002V514.298Z" fill="#7864A0"/>
<path d="M652.225 488.045L450.805 485.267C434.966 485.267 422.815 500.871 422.815 516.703V517.161V526.809C422.815 532.964 427.818 537.974 433.965 537.974C440.112 537.974 445.116 532.964 445.116 526.809C445.116 521.484 449.433 517.161 454.751 517.161H642.447L652.225 488.045Z" fill="#ADADAD"/>
<path d="M494.177 465.055C494.177 465.055 471.991 457.869 465.701 458.499C459.411 459.129 453.064 469.149 453.064 469.149L459.84 476.22L494.177 465.055Z" fill="#DE623C"/>
<path d="M499.094 463.366C472.62 462.45 460.24 465.628 454.465 467.517C448.689 469.435 420.099 479.112 420.099 479.112C420.099 479.112 417.84 485.668 440.97 479.227C443.343 478.568 456.495 477.938 459.582 476.908C473.392 472.327 499.094 463.366 499.094 463.366Z" fill="#F2B39D"/>
<path d="M481.311 470.495C469.332 471.439 450.548 473.1 445.287 476.135C440.027 479.169 422.215 495.574 422.215 495.574C422.215 495.574 429.048 501.1 440.913 487.987C442.571 486.155 447.489 489.447 450.319 487.815C462.928 480.544 481.311 470.495 481.311 470.495Z" fill="#F2B39D"/>
<path d="M507.328 486.355C507.328 486.355 494.663 492.396 467.759 490.707C457.61 495.86 454.522 495.431 454.522 495.431C454.522 495.431 450.577 510.261 448.289 510.547C446.002 510.834 445.316 503.733 447.346 491.28C448.89 481.803 456.323 475.791 465.472 471.897C474.621 468.004 499.123 463.337 499.123 463.337L507.328 486.355Z" fill="#F2B39D"/>
<path d="M465.701 473.558C454.979 477.595 443.943 484.036 443.943 484.036L431.392 508.171C431.392 508.171 438.368 508.715 442.056 502.445C445.773 496.175 446.717 493.541 446.717 493.541L456.895 487.1L465.701 473.558Z" fill="#F2B39D"/>
<path d="M499.094 463.194L614.6 458.728L605.308 411.289C603.249 419.878 608.767 453.832 608.767 453.832C608.767 453.832 530.944 453.031 499.094 463.194Z" fill="#064470"/>
<path d="M296.503 364.394H310.026V353.944H360.717V416.013H310.026V405.563H296.503C294.673 405.563 293.186 404.074 293.186 402.242V367.686C293.186 365.882 294.673 364.394 296.503 364.394ZM299.819 398.949H310.026V371.036H299.819V398.949Z" fill="#8BA3F0"/>
<path d="M38.9033 441.836H61.118V586.358H38.9033V441.836Z" fill="#2C2858"/>
<path d="M338.96 343.465C345.936 336.108 354.113 329.723 345.078 318.386C338.731 310.427 336.015 302.182 339.646 296.513C331.126 301.58 327.238 316.01 333.985 321.65C342.305 328.607 338.96 343.465 338.96 343.465Z" fill="#EDF1FF"/>
<path d="M324.493 342.32C329.725 336.766 335.901 331.985 329.096 323.453C324.321 317.47 322.263 311.257 325.008 306.991C318.603 310.799 315.687 321.678 320.748 325.887C327.009 331.155 324.493 342.32 324.493 342.32Z" fill="#EDF1FF"/>
<path d="M539.384 308.337C515.1 306.799 497 280.442 498.955 249.466C500.911 218.49 522.182 194.625 546.466 196.162C570.75 197.699 588.851 224.057 586.895 255.033C584.939 286.009 563.668 309.874 539.384 308.337Z" fill="#F2B39D"/>
<path d="M517.821 258.379C516.592 260.583 513.79 261.385 511.56 260.125C509.358 258.894 508.558 256.088 509.816 253.855C511.045 251.651 513.847 250.849 516.077 252.109C518.279 253.368 519.051 256.174 517.821 258.379Z" fill="black"/>
<path d="M555.017 258.779C553.674 261.184 550.643 262.014 548.242 260.669C545.84 259.323 545.011 256.289 546.355 253.884C547.698 251.479 550.729 250.649 553.131 251.994C555.504 253.368 556.361 256.403 555.017 258.779Z" fill="black"/>
<path d="M528.4 259.237C526.227 266.194 523.425 274.755 523.425 274.755C523.425 274.755 527.256 280.48 535.605 278.391C531.688 277.847 527.599 276.415 527.799 271.319C528 266.252 528.4 259.237 528.4 259.237Z" fill="#DE623C"/>
<path d="M514.219 243.863C513.647 244.092 512.99 244.007 512.504 243.606C512.446 243.577 510.731 242.289 508.844 242.661C507.529 242.919 506.328 243.978 505.27 245.81C504.784 246.64 503.698 246.955 502.869 246.469C502.039 245.982 501.725 244.894 502.211 244.064C503.812 241.315 505.813 239.683 508.186 239.225C511.674 238.567 514.533 240.771 514.648 240.857C515.42 241.458 515.534 242.575 514.934 243.319C514.762 243.577 514.505 243.777 514.219 243.863Z" fill="#201D40"/>
<path d="M548.184 242.632C548.756 242.861 549.414 242.775 549.9 242.375C549.957 242.346 551.672 241.058 553.559 241.43C554.874 241.687 556.075 242.747 557.133 244.579C557.619 245.409 558.706 245.724 559.535 245.238C560.364 244.751 560.678 243.663 560.192 242.833C558.591 240.084 556.59 238.452 554.217 237.994C550.729 237.336 547.87 239.54 547.755 239.626C546.984 240.227 546.869 241.344 547.47 242.088C547.641 242.346 547.898 242.518 548.184 242.632Z" fill="#201D40"/>
<path d="M577.747 274.153C565.053 259.237 574.059 234.015 574.059 234.015C566.797 233.27 564.281 235.99 564.281 235.99C559.62 228.375 562.108 222.362 562.108 222.362C546.84 218.039 540.436 228.26 527.485 232.755C509.73 238.91 486.6 233.786 482.369 211.77C481.769 208.592 485.085 206.158 487.944 207.704C490.603 209.136 494.034 210.166 498.122 209.651C498.122 209.651 493.891 205.729 493.148 199.774C492.719 196.51 496.407 194.363 499.123 196.224C503.211 199.001 510.502 201.32 522.767 197.77C530.944 195.422 548.699 180.248 560.821 181.709C570.713 182.911 579.205 190.441 583.636 201.95C583.636 201.95 607.709 202.15 612.598 228.174C617.402 253.74 577.832 285.29 577.832 285.29C577.832 285.29 581.006 278.619 577.747 274.153Z" fill="#201D40"/>
<path d="M518.507 286.407C517.793 285.462 518.536 284.116 519.737 284.26C522.739 284.603 527.713 285.061 532.431 285.033C537.177 285.004 542.123 284.489 545.125 284.116C546.297 283.973 547.069 285.29 546.383 286.264C544.21 289.212 539.75 293.707 532.488 293.765C525.226 293.765 520.709 289.327 518.507 286.407Z" fill="white"/>
<path d="M565.224 257.233C565.224 250.219 558.706 244.493 550.672 244.493C542.638 244.493 536.119 250.191 536.119 257.233C536.119 264.248 542.638 269.974 550.672 269.974C558.706 269.945 565.224 264.248 565.224 257.233ZM561.965 257.233C561.965 262.444 556.904 266.71 550.672 266.71C544.439 266.71 539.378 262.473 539.378 257.233C539.378 252.023 544.439 247.757 550.672 247.757C556.904 247.757 561.965 251.994 561.965 257.233Z" fill="black"/>
<path d="M526.427 257.262C526.427 250.763 520.366 245.467 512.932 245.467C505.499 245.467 499.438 250.763 499.438 257.262C499.438 263.761 505.499 269.058 512.932 269.058C520.366 269.058 526.427 263.761 526.427 257.262ZM523.396 257.262C523.396 262.101 518.708 266.051 512.932 266.051C507.157 266.051 502.468 262.101 502.468 257.262C502.468 252.424 507.157 248.473 512.932 248.473C518.708 248.473 523.396 252.424 523.396 257.262Z" fill="black"/>
<path d="M536.348 259.238C530.973 256.919 525.655 258.55 525.598 258.579L524.254 254.371C524.54 254.285 531.201 252.195 538.12 255.172L536.348 259.238Z" fill="black"/>
<path d="M562.537 258.493L562.508 254.084L577.003 254.456L577.032 258.894L562.537 258.493Z" fill="black"/>
<path d="M575.603 253.769C569.627 257.949 567.569 265.307 570.999 270.202C574.43 275.098 582.035 275.671 588.011 271.491C593.986 267.311 596.045 259.953 592.614 255.057C589.183 250.162 581.549 249.589 575.603 253.769Z" fill="#F2B39D"/>
<path d="M578.09 269.2C577.89 269.086 577.69 268.914 577.547 268.714C575.488 265.65 575.46 262.358 577.432 259.867C579.462 257.319 583.065 256.26 585.981 257.405C586.81 257.72 587.21 258.636 586.896 259.466C586.581 260.297 585.666 260.697 584.837 260.382C583.236 259.753 581.092 260.411 579.92 261.871C578.805 263.274 578.919 265.078 580.177 266.967C580.663 267.712 580.492 268.685 579.748 269.172C579.262 269.487 578.605 269.487 578.09 269.2Z" fill="#DE623C"/>
<mask id="mask1_256_9375" style="mask-type:luminance" maskUnits="userSpaceOnUse" x="79" y="186" width="191" height="139">
<path d="M79.7876 186.604H269.399V324.656H79.7876V186.604Z" fill="white"/>
</mask>
<g mask="url(#mask1_256_9375)">
<path d="M96.0268 207.962L97.1419 203.925C97.1419 203.925 99.9723 204.698 100.658 202.78L97.8852 201.491C97.8852 201.491 96.9989 199.43 100.601 196.023C102.774 192.273 99.2861 193.074 99.4863 191.671C99.8008 189.61 94.8546 191.815 92.9962 195.651C90.5947 200.632 91.4523 205.9 91.4523 205.9L96.0268 207.962Z" fill="#F2B39D"/>
<path d="M166.016 249.704L167.389 246.239C167.389 246.239 164.958 241.687 167.817 240.714C168.589 240.456 167.789 244.006 169.333 243.405C169.647 243.291 170.133 241.716 170.705 239.282C170.762 236.763 172.878 235.704 173.993 235.618C176.08 235.475 177.996 238.824 176.68 242.89C174.965 248.129 170.734 251.364 170.734 251.364L166.016 249.704Z" fill="#F2B39D"/>
<path d="M137.454 291.474C137.454 291.474 139.942 328.406 138.941 336.623C137.94 344.839 134.367 355.346 134.767 382.516C129.792 383.775 122.559 382.516 122.559 382.516C122.559 382.516 121.501 351.796 126.761 338.083C124.617 324.77 117.755 294.251 117.755 294.251L137.454 291.474Z" fill="#0E6A41"/>
<path d="M130.049 292.476C130.049 292.476 125.046 333.932 122.587 341.805C120.129 349.678 116.641 355.203 112.209 381.943C107.091 382.201 99.6864 382 99.6864 382C99.6864 382 101.716 349.134 109.693 341.404C109.95 327.891 108.407 292.734 108.407 292.734L130.049 292.476Z" fill="#ADADAD"/>
<path d="M110.722 242.661C110.722 242.661 110.265 242.775 92.9105 231.066C92.9105 231.066 92.9104 231.066 92.8818 231.066L83.6757 233.757C83.6757 233.757 83.6471 233.785 83.6757 233.785C86.1917 241.515 109.607 259.094 109.607 259.094L110.722 242.661Z" fill="#95A6DB"/>
<path d="M119.5 238.137L126.733 236.963L133.938 238.481L126.533 247.213L119.5 238.137Z" fill="#607EDB"/>
<path d="M122.159 242.374C125.018 244.607 128.048 245.581 131.222 243.291L131.651 232.125L122.187 232.01L122.159 242.374Z" fill="#F2B39D"/>
<path d="M136.082 242.26L133.852 241.544L133.938 238.481L128.248 243.72L126.561 244.092L124.903 243.634L119.471 238.166L119.414 241.258L117.527 241.773L109.55 242.861V278.362L106.577 294.766C115.897 297.2 129.821 297.314 139.742 295.282L138.083 280.337L141.257 244.35L136.082 242.26Z" fill="#95A6DB"/>
<path d="M126.933 248.043C126.933 248.043 125.932 269.744 124.303 280.852C124.817 281.482 127.219 284.374 127.219 284.374C127.219 284.374 130.107 281.625 130.879 281.139C132.651 261.556 129.449 248.129 129.449 248.129L126.933 248.043Z" fill="#327AAD"/>
<path d="M125.103 244.264L128.163 243.462L130.393 244.378L129.449 248.129H126.733L125.103 244.264Z" fill="#064470"/>
<path d="M128.163 243.462C128.163 243.462 125.704 246.726 123.445 248.014L117.698 241.888L119.471 238.109L128.163 243.462Z" fill="white"/>
<path d="M128.162 243.462C128.162 243.462 130.107 246.297 132.651 248.186L137.14 242.575L133.938 238.481L128.162 243.462Z" fill="white"/>
<path d="M91.0522 205.041C94.3687 205.7 96.0555 206.101 98.1998 207.332C94.6546 225.483 95.0548 233.27 91.0522 236.792C87.7071 239.712 83.876 237.135 83.4757 233.299C82.9611 228.231 88.4218 213.229 91.0522 205.041Z" fill="#95A6DB"/>
<path d="M141.314 244.293C145.774 242.288 161.013 260.382 161.013 260.382L165.101 247.012L173.278 251.393C173.278 251.393 168.304 273.151 162.757 274.067C157.582 274.926 139.942 261.871 139.942 261.871L141.314 244.293Z" fill="#95A6DB"/>
<path d="M119.242 231.638C114.582 232.182 112.152 226.227 112.152 226.227C109.293 225.769 109.779 222.906 109.779 222.906C108.435 222.477 106.634 221.045 107.206 218.44C107.692 216.264 109.836 216.35 110.122 213.802C110.351 211.741 108.864 206.702 115.44 206.301C115.44 206.301 115.611 202.465 119.528 201.577C124.36 200.461 125.561 203.352 127.676 203.896C130.049 204.469 135.11 202.293 135.796 207.79C135.796 207.79 139.17 207.876 140.714 210.338C142.172 212.628 141.314 215.548 140.342 216.636C140.342 216.636 143.058 217.552 143.658 220.129C144.087 221.847 143.401 224.08 141.686 225.139C140.599 225.826 139.57 225.884 139.57 225.884C138.455 226.055 138.398 229.033 137.426 229.606C135.853 230.522 134.166 231.18 132.451 231.695L119.242 231.638Z" fill="#2C2858"/>
<path d="M137.14 220.244C137.683 228.289 133.28 235.131 127.305 235.532C121.329 235.933 116.069 229.749 115.525 221.704C114.982 213.659 119.757 208.477 125.732 208.076C131.679 207.675 136.597 212.199 137.14 220.244Z" fill="#F2B39D"/>
<path d="M121.987 224.395C121.358 224.424 120.815 223.965 120.758 223.307C120.7 222.649 121.186 222.133 121.844 222.076C122.473 222.047 123.016 222.505 123.073 223.164C123.102 223.794 122.616 224.338 121.987 224.395Z" fill="black"/>
<path d="M131.136 223.765C130.507 223.794 129.964 223.336 129.906 222.677C129.878 222.047 130.335 221.503 130.993 221.446C131.622 221.417 132.165 221.875 132.222 222.534C132.251 223.164 131.765 223.736 131.136 223.765Z" fill="black"/>
<path d="M133.023 221.446C132.823 221.446 132.651 221.36 132.537 221.217C132.222 220.759 131.851 220.501 131.45 220.444C130.764 220.329 130.107 220.845 130.107 220.845C129.878 221.045 129.506 220.988 129.335 220.759C129.134 220.53 129.192 220.186 129.42 219.986C129.449 219.957 130.421 219.184 131.622 219.356C132.337 219.471 132.966 219.871 133.452 220.616C133.623 220.873 133.566 221.217 133.309 221.389C133.194 221.417 133.109 221.446 133.023 221.446Z" fill="#2C2858"/>
<path d="M119.643 222.391C119.528 222.391 119.385 222.362 119.299 222.305C119.042 222.133 118.985 221.79 119.157 221.532C119.814 220.587 120.586 220.043 121.444 219.9C122.559 219.728 123.359 220.387 123.388 220.387C123.617 220.587 123.674 220.931 123.474 221.16C123.274 221.389 122.93 221.446 122.702 221.246C122.673 221.246 122.216 220.874 121.587 220.988C121.043 221.074 120.529 221.475 120.071 222.162C119.986 222.305 119.814 222.391 119.643 222.391Z" fill="#2C2858"/>
<path d="M127.676 224.366C129.249 225.34 129.735 225.74 130.335 226.055C130.021 227.401 127.991 228.203 127.391 228.088C128.792 227.286 128.934 226.284 128.934 226.284L127.676 224.366Z" fill="#DE623C"/>
<path d="M117.441 223.021C118.556 224.681 118.47 226.714 117.241 227.544C116.012 228.374 114.096 227.687 112.981 226.027C111.866 224.366 111.952 222.334 113.21 221.503C114.41 220.673 116.326 221.36 117.441 223.021Z" fill="#F2B39D"/>
<path d="M116.326 226.17C116.269 226.17 116.24 226.17 116.183 226.141C115.983 226.084 115.897 225.855 115.954 225.683C116.183 225.053 116.154 224.538 115.869 224.194C115.44 223.651 114.525 223.536 113.867 223.622C113.667 223.651 113.496 223.507 113.467 223.278C113.438 223.078 113.581 222.906 113.81 222.878C114.696 222.792 115.869 222.963 116.469 223.736C116.783 224.109 117.041 224.824 116.669 225.912C116.612 226.084 116.469 226.17 116.326 226.17Z" fill="#DE623C"/>
<path d="M123.188 229.978C123.016 229.72 123.216 229.376 123.531 229.405C124.331 229.52 125.647 229.691 126.933 229.72C128.191 229.749 129.535 229.634 130.335 229.577C130.65 229.548 130.85 229.92 130.65 230.149C130.049 230.922 128.82 232.096 126.876 232.039C124.932 231.982 123.731 230.779 123.188 229.978Z" fill="white"/>
<path d="M111.723 215.978L124.503 205.242L138.97 212.285L137.397 222.677C136.94 217.896 134.052 219.499 132.508 218.125C130.936 216.751 130.25 214.546 126.676 216.579C126.676 216.579 123.702 214.632 122.273 217.495C121.158 219.728 119.585 219.328 118.013 219.471C116.155 219.643 116.641 221.446 115.497 221.389L111.723 215.978Z" fill="#2C2858"/>
<path d="M97.1704 201.491C97.9709 201.549 98.4284 201.606 99.0002 200.632C99.572 199.659 100.058 198.285 100.744 199.115C101.402 199.917 101.116 202.236 100.601 202.98C99.3146 203.123 97.1704 201.491 97.1704 201.491Z" fill="#F2B39D"/>
<path d="M187.087 235.303C182.084 235.246 164.53 262.615 164.53 262.615L161.327 294.738L169.504 295.053L177.109 266.996L185.057 262.816L187.087 235.303Z" fill="#201D40"/>
<path d="M226.571 287.81L226.657 292.104C226.657 292.104 223.597 292.018 223.483 294.108L226.371 294.194C226.371 294.194 228.115 296.456 225.599 300.865C224.598 305.188 227.772 303.355 227.972 304.787C228.286 306.905 232.489 303.27 233.147 298.946C234.004 293.364 232.861 292.677 232.861 292.677L231.603 288.439L226.571 287.81Z" fill="#F2B39D"/>
<path d="M222.454 238.853C227.343 239.941 236.349 269.029 236.349 269.029L233.632 291.274L225.484 290.358L225.97 273.008L219.881 256.546L222.454 238.853Z" fill="#201D40"/>
<path d="M221.253 289.041C221.253 289.041 223.912 327.089 222.825 335.506C221.739 343.923 216.049 354.774 216.507 382.602C211.132 383.919 203.327 382.602 203.327 382.602C203.327 382.602 202.183 351.138 207.873 337.081C205.557 323.425 198.123 292.161 198.123 292.161L221.253 289.041Z" fill="#201D40"/>
<path d="M204.899 290.357C204.899 290.357 203.813 332.786 201.182 340.86C198.524 348.933 194.206 354.23 189.432 381.657C183.914 381.915 175.937 382.029 175.937 382.029C175.937 382.029 179.854 347.473 188.46 339.572C188.746 325.715 185.858 290.586 185.858 290.586L204.899 290.357Z" fill="#2C2858"/>
<path d="M212.304 234.215L204.928 232.669L197.494 233.871L204.671 243.147L212.304 234.215Z" fill="#95A6DB"/>
<path d="M210.274 239.139C206.958 241.286 202.498 241.344 199.067 238.853L199.238 227.458L209.817 227.831L210.274 239.139Z" fill="#F2B39D"/>
<path d="M195.121 237.651L197.437 237.021L197.494 233.872L203.069 239.483L204.756 239.941L206.472 239.54L212.304 234.187L212.218 237.336L214.134 237.937L221.024 239.884L217.422 278.992L218.68 292.591C209.016 294.623 198.495 294.223 188.431 291.646L190.289 278.362L187.345 239.397L195.121 237.651Z" fill="#95A6DB"/>
<path d="M206.5 244.006L208.73 274.239L206.043 277.474L203.041 274.783L204.184 244.092L206.5 244.006Z" fill="#2C2858"/>
<path d="M208.33 240.313L205.557 239.712L202.498 240.37L204.184 244.149L206.529 244.121L208.33 240.313Z" fill="#2C2858"/>
<path d="M212.904 235.618L212.647 269.773L211.932 293.822C211.932 293.822 218.794 296.284 223.912 292.39L222.539 238.853L212.904 235.618Z" fill="#2C2858"/>
<path d="M212.733 235.274L212.59 272.149L217.994 243.519L212.733 235.274Z" fill="#494C7F"/>
<path d="M197.294 234.215L199.067 294.766C199.067 294.766 186.63 296.942 181.569 293.592L184.314 274.468L186.773 235.331L197.294 234.215Z" fill="#2C2858"/>
<path d="M197.408 234.101L198.38 271.119L191.948 241.974L197.408 234.101Z" fill="#494C7F"/>
<path d="M170.448 291.904L170.362 296.198C170.362 296.198 173.421 296.112 173.535 298.202L170.648 298.288C170.648 298.288 168.904 300.55 171.42 304.959C172.42 309.282 169.247 307.449 169.047 308.881C168.732 311 164.529 307.364 163.872 303.041C163.014 297.458 164.158 296.771 164.158 296.771L165.416 292.533L170.448 291.904Z" fill="#F2B39D"/>
<path d="M195.607 219.356C197.294 227.086 203.556 232.268 209.617 230.951C215.678 229.634 219.223 222.305 217.565 214.575C215.878 206.845 209.617 201.663 203.556 202.98C197.466 204.297 193.921 211.626 195.607 219.356Z" fill="#F2B39D"/>
<path d="M213.877 217.524C214.506 217.696 215.135 217.352 215.335 216.751C215.506 216.121 215.163 215.491 214.563 215.291C213.934 215.119 213.305 215.463 213.105 216.064C212.905 216.694 213.276 217.323 213.877 217.524Z" fill="black"/>
<path d="M204.384 217.18C204.699 217.753 205.385 217.953 205.957 217.667C206.529 217.352 206.729 216.665 206.443 216.093C206.129 215.52 205.442 215.32 204.871 215.606C204.299 215.921 204.07 216.636 204.384 217.18Z" fill="black"/>
<path d="M211.875 216.636C212.704 218.526 213.762 220.874 213.762 220.874C213.762 220.874 212.847 222.62 210.446 222.276C211.532 221.99 212.647 221.446 212.418 220.043C212.218 218.612 211.875 216.636 211.875 216.636Z" fill="#DE623C"/>
<path d="M203.127 215.434C203.355 215.52 203.613 215.463 203.784 215.262C203.813 215.205 204.728 214.089 205.814 214.547C206.1 214.661 206.415 214.547 206.529 214.26C206.643 213.974 206.529 213.659 206.243 213.545C204.728 212.886 203.413 213.945 202.927 214.575C202.755 214.804 202.784 215.148 203.041 215.32C203.041 215.377 203.069 215.405 203.127 215.434Z" fill="#2C2858"/>
<path d="M216.278 215.434C216.049 215.52 215.792 215.463 215.621 215.262C215.592 215.205 214.677 214.089 213.591 214.547C213.305 214.661 212.99 214.547 212.876 214.26C212.761 213.974 212.876 213.659 213.162 213.545C214.677 212.886 215.992 213.945 216.478 214.575C216.65 214.804 216.621 215.148 216.364 215.32C216.335 215.377 216.307 215.405 216.278 215.434Z" fill="#2C2858"/>
<path d="M196.78 219.671C197.094 216.808 199.524 217.696 200.21 213.974C200.897 210.252 201.583 207.418 205.071 208.448C208.559 209.479 209.502 208.735 211.046 208.048C215.649 205.986 217.365 213.859 217.365 213.859C217.365 213.859 220.71 207.532 217.25 204.068C213.419 200.232 212.304 202.866 208.73 200.089C205.157 197.311 199.496 198.256 198.095 200.489C196.637 202.837 196.236 204.555 192.691 205.929C189.146 207.275 187.173 209.966 189.889 213.888C192.605 217.81 187.173 219.814 192.034 223.708C193.921 225.225 197.38 225.912 198.009 225.254C198.895 224.338 196.579 221.503 196.78 219.671Z" fill="#2C2858"/>
<path d="M217.965 218.812C217.965 218.812 217.365 222.649 216.507 223.822C216.221 222.019 214.506 223.536 213.219 223.45C210.103 223.25 204.785 221.131 203.355 225.597C199.41 226.027 197.323 217.524 197.323 217.524C195.321 226.399 201.011 232.612 210.674 232.984C217.05 233.213 219.423 225.139 217.965 218.812Z" fill="#2C2858"/>
<path d="M214.334 225.941C214.534 225.712 214.334 225.368 214.02 225.397C213.248 225.483 211.99 225.569 210.789 225.54C209.588 225.512 208.33 225.368 207.558 225.254C207.272 225.197 207.043 225.54 207.215 225.798C207.758 226.571 208.873 227.716 210.732 227.773C212.59 227.802 213.762 226.685 214.334 225.941Z" fill="white"/>
<path d="M198.009 217.724C199.324 219.127 199.438 221.131 198.295 222.219C197.151 223.279 195.15 223.021 193.835 221.618C192.519 220.215 192.405 218.211 193.549 217.123C194.692 216.035 196.694 216.322 198.009 217.724Z" fill="#F2B39D"/>
<path d="M196.522 221.561C196.579 221.532 196.637 221.504 196.694 221.475C197.38 220.816 197.58 219.958 197.208 219.185C196.837 218.412 195.95 217.954 195.15 218.068C194.921 218.097 194.778 218.326 194.807 218.555C194.835 218.784 195.064 218.927 195.293 218.898C195.75 218.812 196.265 219.099 196.465 219.557C196.665 219.986 196.551 220.444 196.122 220.845C195.95 221.017 195.95 221.275 196.122 221.446C196.208 221.561 196.351 221.618 196.522 221.561Z" fill="#DE623C"/>
<path d="M205.557 239.712L200.21 244.465L196.151 236.105L197.494 233.872L205.557 239.712Z" fill="white"/>
<path d="M205.557 239.712L209.674 244.092L213.533 236.534L212.304 234.215L205.557 239.712Z" fill="white"/>
<path d="M172.506 373.555C172.077 369.261 174.279 336.68 174.279 336.68C180.511 308.022 178.081 287.495 178.081 287.495L167.36 288.239L163.129 304.443L165.13 331.498C165.13 331.498 164.386 333.588 163.986 335.249C161.842 344.267 163.986 355.06 165.301 362.275C165.93 365.596 166.874 372.61 166.902 374.214L164.215 377.706C164.215 377.706 173.964 388.528 175.48 388.586C178.396 388.729 177.538 385.837 177.538 385.837C173.478 381.657 172.62 374.786 172.506 373.555Z" fill="#F2B39D"/>
<path d="M168.875 289.585L153.751 287.495C147.976 300.607 146.089 323.396 144.516 331.527C138.226 342.091 136.225 374.185 136.225 374.185L133.537 377.678C133.537 377.678 143.287 388.5 144.802 388.557C147.718 388.7 146.861 385.808 146.861 385.808C142.858 381.686 142.057 376.218 141.8 375.015C141.4 373.211 154.037 337.625 154.037 337.625L155.381 334.247C170.791 308.738 173.335 289.47 173.335 289.47L168.875 289.585Z" fill="#F2B39D"/>
<path d="M174.422 252.423C179.339 250.706 189.803 245.409 184.857 238.28C179.911 231.152 177.795 234.129 179.711 225.569C181.627 217.009 175.594 210.166 169.762 211.827C163.929 213.487 162.385 218.182 155.266 216.894C148.147 215.634 142.143 222.248 144.773 228.06C147.404 233.871 148.519 236.677 145.974 239.855C143.43 243.033 132.079 246.354 136.711 254.084C141.343 261.814 143.516 261.356 141.829 265.278C140.142 269.2 143.887 273.724 150.434 273.18C157.01 272.636 162.957 270.231 165.444 262.93C167.903 255.63 174.422 252.423 174.422 252.423Z" fill="black"/>
<path d="M173.106 250.162C175.337 250.391 177.967 251.536 178.939 254.17C179.911 256.832 179.282 263.761 179.282 263.761L173.106 250.162Z" fill="#064470"/>
<path d="M160.784 243.033L160.87 252.738C160.87 252.738 165.587 255.601 169.276 253.311C168.704 250.448 167.875 243.92 167.875 243.92L160.784 243.033Z" fill="#F2B39D"/>
<path d="M164.558 244.808C159.205 244.808 154.866 238.963 154.866 231.753C154.866 224.543 159.205 218.698 164.558 218.698C169.911 218.698 174.25 224.543 174.25 231.753C174.25 238.963 169.911 244.808 164.558 244.808Z" fill="#F2B39D"/>
<path d="M154.237 231.753C159.583 231.066 164.587 228.088 167.388 224.223C169.218 228.747 174.279 231.753 174.279 231.753C174.279 231.753 178.081 223.107 171.162 218.469C164.529 214.003 148.776 217.037 154.237 231.753Z" fill="black"/>
<path d="M160.498 234.53C159.926 234.53 159.469 234.072 159.469 233.499C159.469 232.927 159.926 232.469 160.498 232.469C161.07 232.469 161.528 232.927 161.528 233.499C161.528 234.072 161.07 234.53 160.498 234.53Z" fill="black"/>
<path d="M168.704 234.53C168.132 234.53 167.674 234.072 167.674 233.499C167.674 232.927 168.132 232.469 168.704 232.469C169.276 232.469 169.733 232.927 169.733 233.499C169.733 234.072 169.276 234.53 168.704 234.53Z" fill="black"/>
<path d="M170.533 232.583C170.362 232.583 170.19 232.497 170.105 232.354C169.847 231.925 169.533 231.667 169.19 231.581C168.589 231.438 167.96 231.867 167.96 231.867C167.732 232.01 167.417 231.953 167.274 231.753C167.131 231.524 167.16 231.209 167.389 231.066C167.417 231.037 168.332 230.407 169.39 230.636C170.019 230.779 170.562 231.18 170.962 231.867C171.105 232.096 171.019 232.411 170.791 232.554C170.705 232.554 170.619 232.583 170.533 232.583Z" fill="black"/>
<path d="M158.526 232.612C158.411 232.612 158.297 232.583 158.211 232.497C158.011 232.326 157.954 232.011 158.125 231.81C158.783 231.009 159.498 230.551 160.27 230.493C161.27 230.407 161.956 231.037 161.985 231.066C162.185 231.238 162.214 231.553 162.014 231.753C161.842 231.953 161.528 231.982 161.327 231.782C161.299 231.782 160.899 231.438 160.355 231.467C159.869 231.495 159.383 231.839 158.926 232.411C158.811 232.555 158.668 232.612 158.526 232.612Z" fill="black"/>
<path d="M165.587 234.845C166.931 235.818 167.331 236.191 167.846 236.534C167.503 237.737 165.616 238.309 165.101 238.195C166.388 237.565 166.588 236.677 166.588 236.677L165.587 234.845Z" fill="#DE623C"/>
<path d="M156.324 232.755C157.439 234.158 157.496 235.99 156.438 236.792C155.38 237.622 153.636 237.135 152.521 235.732C151.406 234.33 151.349 232.497 152.407 231.696C153.465 230.865 155.209 231.352 156.324 232.755Z" fill="#F2B39D"/>
<path d="M155.352 235.79C155.323 235.79 155.266 235.79 155.238 235.761C155.066 235.704 154.98 235.503 155.066 235.332C155.295 234.759 155.295 234.33 155.095 233.986C154.752 233.471 153.923 233.328 153.322 233.356C153.151 233.356 152.979 233.213 152.979 233.041C152.979 232.87 153.122 232.698 153.294 232.698C154.094 232.669 155.123 232.898 155.638 233.614C155.895 233.986 156.095 234.616 155.695 235.589C155.581 235.733 155.466 235.79 155.352 235.79Z" fill="#DE623C"/>
<path d="M161.985 239.941C161.842 239.712 162.042 239.426 162.299 239.483C162.957 239.626 164.043 239.827 165.101 239.912C166.159 239.998 167.274 239.998 167.932 239.97C168.189 239.97 168.332 240.285 168.16 240.485C167.617 241.086 166.531 242.002 164.93 241.859C163.329 241.716 162.414 240.657 161.985 239.941Z" fill="white"/>
<path d="M152.236 249.675C152.236 249.675 139.656 255.258 132.651 269.887C136.74 275.671 141.171 272.235 141.171 272.235L152.893 263.074C152.893 263.074 155.867 257.663 155.495 254.828C154.894 250.591 152.236 249.675 152.236 249.675Z" fill="#064470"/>
<path d="M154.38 330.353C150.349 329.609 146.46 329.637 144.173 329.666C145.603 324.856 144.802 294.767 153.922 284.517L177.309 284.832C185.429 298.803 181.141 320.075 186.144 328.549C184.171 329.494 179.911 331.298 172.706 332.042C164.758 332.844 161.213 331.613 154.38 330.353Z" fill="#070635"/>
<path d="M177.109 278.734C177.109 273.953 181.255 266.795 179.254 261.957C177.795 258.063 175.279 251.078 172.335 249.99C170.934 249.475 170.248 249.074 168.504 248.616C168.504 248.616 168.418 252.309 166.359 252.481C162.414 252.796 160.841 247.728 160.841 247.728C158.726 247.528 150.863 249.761 150.863 250.534C150.892 256.804 153.637 266.939 155.295 273.695C155.609 277.131 155.352 279.822 155.009 281.769C154.38 283.801 153.293 284.861 153.293 285.29C153.293 285.29 168.189 290.358 177.452 285.261C177.481 285.261 177.109 281.969 177.109 278.734Z" fill="#F5A3B7"/>
<path d="M159.097 247.843C159.097 247.843 163.7 265.02 163.7 272.264C163.7 280.509 159.469 294.423 159.469 294.423L149.119 294.022C149.119 294.022 150.377 288.239 153.551 283.086C156.81 277.76 153.236 266.423 152.436 263.417C151.635 260.411 150.377 250.677 150.377 250.677C150.377 250.677 154.666 247.814 159.097 247.843Z" fill="#327AAD"/>
<path d="M170.047 249.102C171.077 251.278 175.051 260.239 174.793 265.679C174.536 271.119 174.05 289.814 175.537 294.91C179.254 294.795 180.94 293.679 180.94 293.679C181.455 292.247 175.908 284.002 177.395 277.617C178.882 271.204 180.197 266.652 179.797 264.047C179.339 261.098 177.052 253.655 173.107 250.19C171.706 249.56 170.047 249.102 170.047 249.102Z" fill="#327AAD"/>
<path d="M150.863 283.229L151.521 283.515C151.521 283.515 152.865 281.683 154.237 281.769L153.408 283.544C153.408 283.544 154.98 286.149 159.183 285.891C162.757 286.693 160.27 288.411 161.242 289.069C162.7 290.071 158.611 292.533 155.152 291.474C150.692 290.1 147.804 285.891 147.804 285.891L150.863 283.229Z" fill="#F2B39D"/>
<path d="M150.863 283.229L141.4 271.262C141.4 271.262 139.399 267.454 132.651 269.859C132.337 273.495 136.225 278.448 148.262 286.435L150.863 283.229Z" fill="#064470"/>
<path d="M233.918 382.115L229.63 384.119L227.457 379.567L221.224 338.799C222.311 325.171 232.718 296.141 232.718 296.141L244.754 313.691L231.088 341.29C236.492 346.787 233.232 363.707 233.918 382.115Z" fill="#F2B39D"/>
<path d="M239.808 297.114C239.922 296.284 253.36 295.053 253.36 295.053C255.904 305.703 256.105 322.881 254.103 334.619C257.048 344.782 255.619 368.659 253.989 380.855L246.898 380.827C246.441 374.242 246.784 352.684 240.98 334.619C239.837 327.834 239.351 301.638 239.808 297.114Z" fill="#F2B39D"/>
<path d="M223.054 225.769C222.625 219.757 224.341 214.432 229.144 211.741C234.004 208.993 240.094 211.684 240.094 211.684C240.094 211.684 245.24 209.851 249.901 215.005C254.561 220.158 251.044 224.681 252.96 228.432C254.103 230.665 259.85 231.123 258.363 238.338C257.934 240.428 255.418 241.831 253.303 241.974C249.557 242.231 246.098 240.771 244.583 242.231C239.608 246.984 228.543 245.266 227 240.914C226.514 239.569 216.593 242.174 217.565 232.984C218.051 228.317 223.454 231.152 223.054 225.769Z" fill="black"/>
<path d="M234.147 238.767L240.551 237.794L240.037 243.749C240.037 243.749 238.15 249.303 234.376 249.417C230.602 249.532 232.003 245.066 232.003 245.066L234.147 238.767Z" fill="#F2B39D"/>
<path d="M222.511 275.728C222.511 270.689 218.165 263.159 220.252 258.092C221.767 253.998 224.312 247.155 227.428 246.01C228.886 245.466 230.402 245.094 232.232 244.579C232.232 244.579 231.66 247.928 233.804 248.1C237.95 248.444 240.123 243.119 240.123 243.119C242.353 242.918 252.502 246.239 252.988 247.871C252.96 254.456 247.213 263.331 245.469 270.431C244.783 278.133 246.412 282.227 246.441 283.114C246.441 283.114 231.917 287.981 222.168 282.599C222.111 282.57 222.511 279.106 222.511 275.728Z" fill="#ADADAD"/>
<path d="M245.984 230.15C244.668 237.135 239.15 241.974 233.69 240.943C228.2 239.912 224.827 233.413 226.142 226.428C227.457 219.442 232.975 214.604 238.436 215.634C243.896 216.665 247.299 223.164 245.984 230.15Z" fill="#F2B39D"/>
<path d="M240.123 227.344C240.037 227.315 239.98 227.287 239.922 227.229C239.15 226.256 237.692 226.37 237.692 226.37C237.492 226.399 237.321 226.256 237.292 226.056C237.264 225.855 237.406 225.683 237.607 225.655C237.692 225.655 239.436 225.483 240.466 226.771C240.58 226.914 240.58 227.172 240.408 227.287C240.323 227.344 240.208 227.372 240.123 227.344Z" fill="black"/>
<path d="M228.315 227.229C228.286 227.229 228.229 227.201 228.2 227.172C228.029 227.058 228 226.828 228.115 226.657C229.03 225.368 230.459 225.597 230.516 225.597C230.716 225.626 230.859 225.826 230.831 226.027C230.802 226.227 230.602 226.37 230.402 226.342C230.345 226.342 229.344 226.199 228.715 227.086C228.629 227.229 228.486 227.287 228.315 227.229Z" fill="black"/>
<path d="M232.775 230.15C232.346 230.636 231.974 231.152 231.545 231.438C231.402 231.524 231.374 231.753 231.488 231.925C231.946 232.612 233.118 233.213 233.861 233.499C233.976 233.557 234.033 233.413 233.947 233.328C233.175 232.698 232.832 232.24 232.689 232.011C232.603 231.896 232.603 231.753 232.632 231.61C232.746 231.323 232.946 230.779 233.089 230.293C233.118 230.178 232.889 230.035 232.775 230.15Z" fill="#DE623C"/>
<path d="M237.464 235.503C237.607 235.274 237.406 235.017 237.149 235.074C236.52 235.188 235.462 235.389 234.433 235.475C233.404 235.561 232.346 235.532 231.688 235.503C231.431 235.503 231.288 235.79 231.46 235.99C231.974 236.591 233.032 237.479 234.576 237.336C236.148 237.221 237.035 236.19 237.464 235.503Z" fill="white"/>
<path d="M237.292 228.46C237.292 229.09 237.807 229.577 238.407 229.577C239.008 229.577 239.522 229.062 239.522 228.46C239.522 227.831 239.008 227.344 238.407 227.344C237.807 227.344 237.292 227.859 237.292 228.46Z" fill="black"/>
<path d="M228.944 228.46C228.944 229.09 229.458 229.577 230.059 229.577C230.659 229.577 231.174 229.062 231.174 228.46C231.174 227.831 230.659 227.344 230.059 227.344C229.458 227.344 228.944 227.859 228.944 228.46Z" fill="black"/>
<path d="M232.031 215.32C234.49 212.972 238.922 211.941 241.838 213.23C245.698 214.919 249.643 222.82 247.156 228.088C242.067 227.659 235.205 223.794 232.031 220.53C231.145 221.303 228.915 223.193 226.113 224.681C225.77 222.162 230.888 215.806 232.031 215.32Z" fill="black"/>
<path d="M244.468 227.315C243.21 228.403 242.896 230.121 243.782 231.18C244.668 232.211 246.412 232.182 247.699 231.094C248.957 230.006 249.271 228.289 248.385 227.229C247.47 226.199 245.726 226.227 244.468 227.315Z" fill="#F2B39D"/>
<path d="M245.383 230.78C245.326 230.751 245.297 230.722 245.24 230.665C244.697 230.007 244.611 229.262 245.011 228.661C245.412 228.031 246.212 227.716 246.898 227.917C247.099 227.974 247.213 228.174 247.156 228.375C247.099 228.575 246.898 228.69 246.698 228.632C246.327 228.518 245.841 228.718 245.612 229.09C245.383 229.434 245.44 229.835 245.783 230.236C245.926 230.379 245.898 230.608 245.726 230.751C245.64 230.837 245.498 230.837 245.383 230.78Z" fill="#DE623C"/>
<path d="M260.965 330.725C253.617 321.621 258.992 289.355 245.669 279.507L222.768 281.368C215.135 291.274 220.424 312.517 214.134 332.729C224.941 336.594 241.638 336.795 260.965 330.725Z" fill="#ADADAD"/>
<path d="M251.559 282.542L250.215 283.085C250.215 283.085 248.814 280.852 247.385 280.938L248.099 283.057C248.099 283.057 247.299 285.548 242.982 285.261C239.293 286.092 241.867 287.838 240.866 288.554C239.351 289.584 243.582 292.132 247.127 291.016C251.73 289.613 254.704 285.261 254.704 285.261L251.559 282.542Z" fill="#F2B39D"/>
<path d="M251.559 282.542L259.421 271.004C259.421 271.004 261.279 266.595 268.256 269.086C268.599 272.836 265.883 278.19 253.446 286.407C252.645 284.317 251.559 282.542 251.559 282.542Z" fill="#F2B39D"/>
<path d="M251.559 246.669C251.559 246.669 262.795 253.253 268.255 269.086C263.367 274.525 258.821 270.03 258.821 270.03L248.357 259.667C248.357 259.667 245.154 255.716 246.698 250.906C248.013 246.755 251.559 246.669 251.559 246.669Z" fill="#F2B39D"/>
<path d="M231.231 245.896C231.231 246.497 230.745 246.955 230.173 246.955C229.573 246.955 229.115 246.468 229.115 245.896C229.115 245.295 229.601 244.836 230.173 244.836C230.745 244.836 231.231 245.295 231.231 245.896Z" fill="white"/>
<path d="M231.231 248.014C231.231 248.616 230.745 249.074 230.173 249.074C229.573 249.074 229.115 248.587 229.115 248.014C229.115 247.413 229.601 246.955 230.173 246.955C230.745 246.955 231.231 247.442 231.231 248.014Z" fill="white"/>
<path d="M230.516 251.02C229.932 251.02 229.458 250.546 229.458 249.961C229.458 249.376 229.932 248.902 230.516 248.902C231.1 248.902 231.574 249.376 231.574 249.961C231.574 250.546 231.1 251.02 230.516 251.02Z" fill="white"/>
<path d="M232.803 251.507C232.803 252.108 232.317 252.566 231.746 252.566C231.145 252.566 230.688 252.08 230.688 251.507C230.688 250.906 231.174 250.448 231.746 250.448C232.346 250.448 232.803 250.906 232.803 251.507Z" fill="white"/>
<path d="M234.833 252.108C234.833 252.71 234.347 253.168 233.775 253.168C233.204 253.168 232.718 252.681 232.718 252.108C232.718 251.507 233.204 251.049 233.775 251.049C234.347 251.049 234.833 251.507 234.833 252.108Z" fill="white"/>
<path d="M236.835 251.507C236.835 252.108 236.349 252.566 235.777 252.566C235.176 252.566 234.719 252.08 234.719 251.507C234.719 250.906 235.205 250.448 235.777 250.448C236.349 250.448 236.835 250.906 236.835 251.507Z" fill="white"/>
<path d="M238.579 250.448C238.579 251.049 238.093 251.507 237.521 251.507C236.92 251.507 236.463 251.021 236.463 250.448C236.463 249.847 236.949 249.389 237.521 249.389C238.093 249.36 238.579 249.847 238.579 250.448Z" fill="white"/>
<path d="M239.98 249.102C239.98 249.704 239.494 250.162 238.922 250.162C238.35 250.162 237.864 249.675 237.864 249.102C237.864 248.501 238.35 248.043 238.922 248.043C239.494 248.043 239.98 248.501 239.98 249.102Z" fill="white"/>
<path d="M240.38 248.816C239.796 248.816 239.322 248.342 239.322 247.757C239.322 247.172 239.796 246.698 240.38 246.698C240.964 246.698 241.438 247.172 241.438 247.757C241.438 248.342 240.964 248.816 240.38 248.816Z" fill="white"/>
<path d="M241.438 247.213C240.853 247.213 240.38 246.738 240.38 246.153C240.38 245.568 240.853 245.094 241.438 245.094C242.022 245.094 242.496 245.568 242.496 246.153C242.496 246.738 242.022 247.213 241.438 247.213Z" fill="white"/>
<path d="M243.182 244.378C243.182 244.98 242.696 245.438 242.124 245.438C241.524 245.438 241.066 244.951 241.066 244.378C241.066 243.777 241.552 243.319 242.124 243.319C242.724 243.319 243.182 243.777 243.182 244.378Z" fill="white"/>
</g>
<defs>
<radialGradient id="paint0_radial_256_9375" cx="0" cy="0" r="1" gradientUnits="userSpaceOnUse" gradientTransform="translate(599.247 346.347) rotate(90) scale(11.0224 11.0073)">
<stop offset="0.15" stop-color="#8FF1DF"/>
<stop offset="1" stop-color="#8FF1DF" stop-opacity="0"/>
</radialGradient>
<radialGradient id="paint1_radial_256_9375" cx="0" cy="0" r="1" gradientUnits="userSpaceOnUse" gradientTransform="translate(621.694 443.719) rotate(90) scale(11.0224 11.0073)">
<stop offset="0.15" stop-color="#8FF1DF"/>
<stop offset="1" stop-color="#8FF1DF" stop-opacity="0"/>
</radialGradient>
<radialGradient id="paint2_radial_256_9375" cx="0" cy="0" r="1" gradientUnits="userSpaceOnUse" gradientTransform="translate(496.625 385.122) rotate(90) scale(11.0224 11.0073)">
<stop offset="0.15" stop-color="#8FF1DF"/>
<stop offset="1" stop-color="#8FF1DF" stop-opacity="0"/>
</radialGradient>
<radialGradient id="paint3_radial_256_9375" cx="0" cy="0" r="1" gradientUnits="userSpaceOnUse" gradientTransform="translate(534.073 406.708) rotate(90) scale(11.0224 11.0073)">
<stop offset="0.15" stop-color="#8FF1DF"/>
<stop offset="1" stop-color="#8FF1DF" stop-opacity="0"/>
</radialGradient>
<radialGradient id="paint4_radial_256_9375" cx="0" cy="0" r="1" gradientUnits="userSpaceOnUse" gradientTransform="translate(557.627 463.915) rotate(90) scale(11.0224 11.0073)">
<stop offset="0.15" stop-color="#8FF1DF"/>
<stop offset="1" stop-color="#8FF1DF" stop-opacity="0"/>
</radialGradient>
<radialGradient id="paint5_radial_256_9375" cx="0" cy="0" r="1" gradientUnits="userSpaceOnUse" gradientTransform="translate(386.175 370.193) rotate(90) scale(11.0224 11.0073)">
<stop offset="0.15" stop-color="#8FF1DF"/>
<stop offset="1" stop-color="#8FF1DF" stop-opacity="0"/>
</radialGradient>
</defs>
</svg>
