<svg width="239" height="119" viewBox="0 0 239 119" fill="none" xmlns="http://www.w3.org/2000/svg">
<g clip-path="url(#clip0_176_10636)">
<path d="M238.994 118.562C238.97 118.688 238.903 118.801 238.805 118.881C238.706 118.961 238.583 119.004 238.456 119H0.527118C0.404731 119.003 0.285387 118.961 0.189976 118.884C0.0945654 118.806 0.0291664 118.697 0.00522686 118.576C-0.00712365 118.503 -0.00350811 118.428 0.0158206 118.356C0.0351494 118.285 0.0697247 118.218 0.117129 118.161C0.164533 118.105 0.223621 118.059 0.290261 118.028C0.356901 117.997 0.429484 117.981 0.502935 117.981H238.496C238.568 117.981 238.639 117.996 238.705 118.026C238.771 118.057 238.829 118.101 238.876 118.156C238.924 118.211 238.959 118.276 238.979 118.346C238.999 118.416 239.004 118.49 238.994 118.562Z" fill="#090814"/>
<path d="M216.384 115.093H74.627V21.3633C74.6286 19.9735 75.1755 18.6411 76.1477 17.6584C77.12 16.6756 78.4381 16.1228 79.813 16.1211H211.198C212.573 16.1228 213.891 16.6756 214.863 17.6584C215.835 18.6411 216.382 19.9735 216.384 21.3633V115.093Z" fill="#090814"/>
<path d="M211.944 22.5107H78.5254V107.344H211.944V22.5107Z" fill="white"/>
<path d="M222.18 118.356H69.3813L59.6009 116.474C59.1365 116.384 58.7176 116.133 58.4162 115.765C58.1148 115.397 57.9497 114.934 57.9492 114.456V112.371H232.523V114.486C232.521 114.957 232.36 115.413 232.067 115.779C231.773 116.144 231.364 116.397 230.909 116.496L222.18 118.353V118.356Z" fill="#CCCCCC"/>
<path d="M157.355 115.093H133.117C132.515 115.092 131.939 114.85 131.513 114.42C131.088 113.99 130.849 113.407 130.848 112.799V112.374H159.629V112.799C159.628 113.407 159.389 113.99 158.964 114.42C158.538 114.85 157.962 115.092 157.36 115.093H157.355Z" fill="#2F2E41"/>
<path d="M24.7695 15.2564C24.7698 14.0999 25.0872 12.9662 25.6864 11.981C26.2856 10.9958 27.1432 10.1978 28.164 9.67561C29.1848 9.15337 30.3288 8.92734 31.469 9.02261C32.6092 9.11788 33.7009 9.53073 34.623 10.2153C35.5451 10.8999 36.2615 11.8294 36.6925 12.9006C37.1236 13.9719 37.2525 15.1429 37.0649 16.2837C36.8773 17.4246 36.3806 18.4905 35.6299 19.3632C34.8792 20.2359 33.9039 20.8812 32.8123 21.2274L31.6153 29.2202L25.5148 24.0821C26.3462 22.9763 27.0274 21.7628 27.5402 20.4741C26.6878 19.9042 25.9886 19.1295 25.505 18.2194C25.0215 17.3093 24.7688 16.2922 24.7695 15.2591V15.2564Z" fill="#E49497"/>
<path d="M7.38571 105.46L10.4492 107.743L12.7078 104.647L9.64432 102.364L7.38571 105.46Z" fill="#E49497"/>
<path d="M4.99875 107.414C4.94257 107.246 4.92237 107.067 4.93951 106.891C4.95665 106.714 5.01073 106.542 5.09818 106.388C5.23269 106.213 5.40149 106.068 5.59404 105.962C5.78658 105.856 5.99872 105.791 6.2172 105.771C6.29244 105.681 7.24486 104.58 7.6106 104.529C7.71243 104.223 7.92606 103.968 8.20773 103.816C8.30114 103.785 8.40043 103.776 8.49791 103.789C8.5954 103.803 8.68847 103.839 8.76993 103.895L8.77799 103.901V103.911C8.77799 103.911 8.62871 105.216 9.35093 105.877C9.76236 106.255 10.3786 106.356 11.1799 106.176C11.2229 106.152 11.7932 105.63 12.167 105.282L12.1831 105.268L14.7788 110.679L16.7494 113.219C16.8702 113.375 16.9372 113.566 16.9401 113.764C16.943 113.962 16.8817 114.155 16.7655 114.315C16.6647 114.451 16.5282 114.557 16.3714 114.619C16.2146 114.681 16.0437 114.698 15.8779 114.668L14.2504 114.355C13.5668 114.223 12.9208 113.939 12.3593 113.523L5.84608 108.67C5.42908 108.363 5.1283 107.921 4.99338 107.417L4.99875 107.414Z" fill="#090814"/>
<path d="M35.9185 115.248H39.7246V111.4H35.9185V115.248Z" fill="#E49497"/>
<path d="M35.1469 118.252C35.0032 118.15 34.8824 118.019 34.7925 117.867C34.7025 117.715 34.6454 117.545 34.625 117.369C34.6307 117.147 34.6813 116.929 34.7738 116.728C34.8662 116.527 34.9985 116.347 35.1624 116.199C35.1705 116.083 35.2887 114.622 35.555 114.361C35.4587 114.054 35.4818 113.72 35.6195 113.429C35.6764 113.348 35.7508 113.281 35.8371 113.234C35.9233 113.186 36.0191 113.159 36.1172 113.154H36.128L36.1334 113.162C36.1387 113.173 36.7815 114.302 37.7474 114.4C38.3015 114.457 38.8557 114.169 39.3964 113.543C39.4152 113.497 39.5686 112.736 39.6681 112.233V112.213L44.9374 115.011L48.0147 115.873C48.1904 115.922 48.3471 116.024 48.4638 116.166C48.5805 116.307 48.6518 116.482 48.668 116.665C48.6842 116.849 48.6447 117.033 48.5546 117.193C48.4646 117.353 48.3283 117.482 48.164 117.562L46.6712 118.288C46.0437 118.591 45.3573 118.749 44.6619 118.75H36.5707C36.055 118.753 35.5538 118.577 35.1505 118.253L35.1469 118.252Z" fill="#090814"/>
<path d="M24.3924 42.8569L21.4121 51.7346L38.2724 51.5414L35.7573 43.4306L24.3924 42.8569Z" fill="#E49497"/>
<path d="M21.4226 51.4817L38.2426 51.4714L41.5376 112.428H35.1142L30.9612 84.6181L14.3013 106.868L8.2207 101.304L20.3842 84.6178L21.4226 51.4817Z" fill="#090814"/>
<path d="M28.0094 63.6683L27.8804 57.6049L31.3826 57.5288L31.5116 63.5922C31.8607 63.9368 32.1385 64.3482 32.3287 64.8024C32.519 65.2566 32.618 65.7445 32.6198 66.2378C32.6602 68.1276 31.439 69.6882 29.8922 69.7208C28.3453 69.7534 27.0558 68.2498 27.0167 66.36C26.9969 65.8672 27.0746 65.3753 27.245 64.9131C27.4155 64.451 27.6753 64.0278 28.0094 63.6683Z" fill="#E49497"/>
<path d="M24.4845 22.2225L32.2824 24.754L35.572 32.3644L37.3634 35.6841C37.7605 36.4202 37.9111 37.2664 37.7927 38.0962C37.6743 38.9261 37.2932 39.6948 36.7065 40.2874L35.572 41.4343L37.1565 47.3045L22.3701 46.7715L21.4314 33.4864C21.3535 32.3898 21.4906 31.2884 21.8347 30.2454L24.4815 22.2177L24.4845 22.2225Z" fill="#6C63FF"/>
<path d="M32.8434 33.3241V62.711H26.7616L24.9648 33.5716" fill="#6C63FF"/>
<path d="M22.7813 23.4761C22.7813 23.4761 23.0691 25.6922 25.7482 25.7656L31.179 25.9125C31.179 25.9125 26.5874 14.6178 28.4758 15.8902C30.3643 17.1625 35.3996 11.828 35.3996 11.828L36.8843 14.645C36.8843 14.645 40.4322 13.3454 36.4998 10.1642C36.4998 10.1642 31.806 6.49614 26.8242 8.69865C21.8423 10.9012 22.7813 23.4761 22.7813 23.4761Z" fill="#090814"/>
<path opacity="0.5" d="M26.6131 62.72L24.7109 31.0872L25.0095 31.0691L26.9114 62.7019L26.6131 62.72Z" fill="black"/>
<path d="M32.6948 62.7113L32.668 34.2377H32.9665L32.9934 62.711L32.6948 62.7113Z" fill="black"/>
<path d="M184.207 65.9903H108.912C107.721 65.9891 106.579 65.5103 105.737 64.659C104.895 63.8077 104.421 62.6534 104.42 61.4494V4.54083C104.421 3.3369 104.895 2.18262 105.737 1.3313C106.579 0.479991 107.721 0.00119846 108.912 0L184.207 0C185.398 0.00119846 186.54 0.479991 187.382 1.3313C188.225 2.18262 188.698 3.3369 188.699 4.54083V61.4458C188.698 62.6498 188.225 63.804 187.382 64.6554C186.54 65.5067 185.398 65.9855 184.207 65.9867V65.9903Z" fill="#CCCCCC"/>
<path d="M108.909 2.38989C108.345 2.39069 107.804 2.61753 107.405 3.02067C107.006 3.42382 106.782 3.97037 106.781 4.5405V61.4467C106.782 62.0168 107.006 62.5634 107.405 62.9665C107.804 63.3697 108.345 63.5965 108.909 63.5973H184.205C184.769 63.5965 185.31 63.3697 185.709 62.9665C186.107 62.5634 186.332 62.0168 186.333 61.4467V4.5405C186.332 3.97037 186.107 3.42382 185.709 3.02067C185.31 2.61753 184.769 2.39069 184.205 2.38989H108.909Z" fill="white"/>
<path d="M157.028 34.6348C163.614 34.6348 168.952 29.2382 168.952 22.5813C168.952 15.9244 163.614 10.5278 157.028 10.5278C150.442 10.5278 145.104 15.9244 145.104 22.5813C145.104 29.2382 150.442 34.6348 157.028 34.6348Z" fill="#6C63FF"/>
<path d="M183.143 8.13373L180.334 5.29503L180.756 4.86829L183.564 7.70729L183.143 8.13373Z" fill="#CCC9DD"/>
<path d="M180.756 8.13373L180.334 7.70729L183.143 4.86829L183.564 5.29503L180.756 8.13373Z" fill="#CCC9DD"/>
<path d="M133.64 30.3856H119.424V29.9329H133.64V30.3856Z" fill="#090814"/>
<path d="M169.063 41.8598H119.424V41.4071H169.063V41.8598Z" fill="#090814"/>
<path d="M169.063 53.3338H119.424V52.8811H169.063V53.3338Z" fill="#090814"/>
<path d="M157.215 15.5654V29.3734" stroke="white" stroke-width="5" stroke-linecap="round"/>
<path d="M164.064 22.4669L150.372 22.4669" stroke="white" stroke-width="5" stroke-linecap="round"/>
</g>
<defs>
<clipPath id="clip0_176_10636">
<rect width="239" height="119" fill="white"/>
</clipPath>
</defs>
</svg>
